M48
;DRILL file {KiCad 5.0.2-bee76a0~70~ubuntu18.10.1} date Fri 21 Dec 2018 05:55:37 PM CET
;FORMAT={-:-/ absolute / inch / decimal}
FMAT,2
INCH,TZ
T1C0.0157
T2C0.0394
T3C0.0400
%
G90
G05
T1
X4.5459Y-2.9225
X4.55Y-2.6
X4.55Y-2.75
X4.55Y-2.85
X4.55Y-3.65
X4.55Y-3.75
X4.55Y-3.85
X4.55Y-3.95
X4.6Y-2.55
X4.6Y-3.6472
X4.65Y-3.85
X4.6526Y-3.335
X4.6814Y-3.7238
X4.7Y-3.85
X4.78Y-2.8446
X4.7868Y-3.0953
X4.825Y-2.9
X4.825Y-3.825
X4.8368Y-3.0946
X4.85Y-4.
X4.8865Y-3.0952
X4.9115Y-2.9204
X4.95Y-4.
X4.963Y-2.866
X4.9694Y-3.37
X4.9868Y-3.0961
X5.Y-2.55
X5.0368Y-3.0951
X5.05Y-4.1
X5.05Y-4.2
X5.05Y-4.3
X5.0868Y-3.0951
X5.1Y-2.55
X5.1302Y-2.9511
X5.15Y-3.35
X5.1868Y-3.2498
X5.1926Y-2.6948
X5.2Y-4.05
X5.2Y-4.15
X5.25Y-3.35
X5.2705Y-3.0859
X5.2791Y-2.8478
X5.3Y-4.05
X5.3Y-4.15
X5.3067Y-3.1167
X5.3301Y-3.6588
X5.35Y-3.8
X5.3761Y-3.147
X5.4Y-3.35
X5.4Y-4.05
X5.4Y-4.15
X5.45Y-3.4
X5.5Y-2.55
X5.5Y-3.45
X5.5Y-3.7
X5.5Y-4.05
X5.5Y-4.15
X5.525Y-3.5032
X5.55Y-3.7785
X5.6Y-2.55
X5.6Y-2.675
X5.6Y-3.55
X5.6Y-4.05
X5.6Y-4.15
X5.625Y-3.425
X5.65Y-3.8
X5.675Y-2.675
X5.675Y-3.625
X5.7Y-2.55
X5.7Y-4.05
X5.7Y-4.15
X5.75Y-2.675
X5.75Y-3.7
X5.8Y-2.55
X5.8Y-4.05
X5.8Y-4.15
X5.816Y-3.7559
X5.8185Y-3.627
X5.9Y-2.7
X5.9Y-4.05
X5.9Y-4.15
X5.9298Y-3.798
X5.9337Y-3.3792
X5.9832Y-3.6621
X6.Y-2.85
X6.0168Y-4.0514
X6.0252Y-3.7559
X6.15Y-3.75
X6.15Y-3.95
X6.25Y-2.55
X6.25Y-3.85
X6.25Y-3.95
X6.35Y-2.55
X6.35Y-2.65
X6.35Y-2.75
X6.35Y-2.85
X6.35Y-2.95
X6.35Y-3.05
X6.35Y-3.25
X6.35Y-3.35
X6.35Y-3.45
X6.35Y-3.55
X6.35Y-3.625
X6.35Y-3.7
T2
X5.1Y-4.25
X5.1Y-4.35
X5.2Y-4.25
X5.2Y-4.35
X5.3Y-4.25
X5.3Y-4.35
X5.4Y-4.25
X5.4Y-4.35
X5.5Y-4.25
X5.5Y-4.35
X5.6Y-4.25
X5.6Y-4.35
X5.7Y-4.25
X5.7Y-4.35
X5.8Y-4.25
X5.8Y-4.35
X5.9Y-4.25
X5.9Y-4.35
X6.Y-4.25
X6.Y-4.35
X6.35Y-3.8
X6.35Y-3.9
X6.35Y-4.
T3
X5.8Y-3.05
X5.8Y-3.15
X5.9Y-3.05
X5.9Y-3.15
X6.Y-3.05
X6.Y-3.15
X6.1Y-3.05
X6.1Y-3.15
X6.2Y-3.05
X6.2Y-3.15
X6.Y-2.65
X6.Y-2.75
X6.1Y-2.65
X6.1Y-2.75
X6.2Y-2.65
X6.2Y-2.75
X4.95Y-3.45
X4.95Y-3.55
X5.05Y-3.45
X5.05Y-3.55
X5.15Y-3.45
X5.15Y-3.55
X5.25Y-3.45
X5.25Y-3.55
X5.35Y-3.45
X5.35Y-3.55
X5.1Y-3.85
X5.1Y-3.95
X5.2Y-3.85
X5.2Y-3.95
X5.3Y-3.85
X5.3Y-3.95
X5.4Y-3.85
X5.4Y-3.95
X5.5Y-3.85
X5.5Y-3.95
X5.6Y-3.85
X5.6Y-3.95
X5.7Y-3.85
X5.7Y-3.95
X5.8Y-3.85
X5.8Y-3.95
X5.9Y-3.85
X5.9Y-3.95
X6.Y-3.85
X6.Y-3.95
X5.8Y-3.45
X5.8Y-3.55
X5.9Y-3.45
X5.9Y-3.55
X6.Y-3.45
X6.Y-3.55
X6.1Y-3.45
X6.1Y-3.55
X6.2Y-3.45
X6.2Y-3.55
T0
M30
