G04 #@! TF.GenerationSoftware,KiCad,Pcbnew,5.0.2-bee76a0~70~ubuntu18.10.1*
G04 #@! TF.CreationDate,2018-12-21T17:56:49+01:00*
G04 #@! TF.ProjectId,jtag_adapter,6a746167-5f61-4646-9170-7465722e6b69,rev?*
G04 #@! TF.SameCoordinates,Original*
G04 #@! TF.FileFunction,Legend,Bot*
G04 #@! TF.FilePolarity,Positive*
%FSLAX46Y46*%
G04 Gerber Fmt 4.6, Leading zero omitted, Abs format (unit mm)*
G04 Created by KiCad (PCBNEW 5.0.2-bee76a0~70~ubuntu18.10.1) date Fri 21 Dec 2018 05:56:49 PM CET*
%MOMM*%
%LPD*%
G01*
G04 APERTURE LIST*
%ADD10C,0.200000*%
%ADD11C,0.250000*%
%ADD12C,0.010000*%
G04 APERTURE END LIST*
D10*
X142875000Y-64770000D02*
X141605000Y-64770000D01*
X142875000Y-73660000D02*
X142875000Y-64770000D01*
X131445000Y-73660000D02*
X142875000Y-73660000D01*
X131445000Y-64770000D02*
X131445000Y-73660000D01*
X141605000Y-64770000D02*
X131445000Y-64770000D01*
X136525000Y-64770000D02*
X136525000Y-73660000D01*
X142875000Y-67310000D02*
X131445000Y-67310000D01*
D11*
X135318333Y-68187380D02*
X134746904Y-68187380D01*
X135032619Y-69187380D02*
X135032619Y-68187380D01*
X134413571Y-69187380D02*
X134413571Y-68187380D01*
X134080238Y-68901666D01*
X133746904Y-68187380D01*
X133746904Y-69187380D01*
X133318333Y-69139761D02*
X133175476Y-69187380D01*
X132937380Y-69187380D01*
X132842142Y-69139761D01*
X132794523Y-69092142D01*
X132746904Y-68996904D01*
X132746904Y-68901666D01*
X132794523Y-68806428D01*
X132842142Y-68758809D01*
X132937380Y-68711190D01*
X133127857Y-68663571D01*
X133223095Y-68615952D01*
X133270714Y-68568333D01*
X133318333Y-68473095D01*
X133318333Y-68377857D01*
X133270714Y-68282619D01*
X133223095Y-68235000D01*
X133127857Y-68187380D01*
X132889761Y-68187380D01*
X132746904Y-68235000D01*
X135294523Y-69937380D02*
X134723095Y-69937380D01*
X135008809Y-70937380D02*
X135008809Y-69937380D01*
X134389761Y-70937380D02*
X134389761Y-69937380D01*
X134151666Y-69937380D01*
X134008809Y-69985000D01*
X133913571Y-70080238D01*
X133865952Y-70175476D01*
X133818333Y-70365952D01*
X133818333Y-70508809D01*
X133865952Y-70699285D01*
X133913571Y-70794523D01*
X134008809Y-70889761D01*
X134151666Y-70937380D01*
X134389761Y-70937380D01*
X133199285Y-69937380D02*
X133008809Y-69937380D01*
X132913571Y-69985000D01*
X132818333Y-70080238D01*
X132770714Y-70270714D01*
X132770714Y-70604047D01*
X132818333Y-70794523D01*
X132913571Y-70889761D01*
X133008809Y-70937380D01*
X133199285Y-70937380D01*
X133294523Y-70889761D01*
X133389761Y-70794523D01*
X133437380Y-70604047D01*
X133437380Y-70270714D01*
X133389761Y-70080238D01*
X133294523Y-69985000D01*
X133199285Y-69937380D01*
X135270714Y-71687380D02*
X134699285Y-71687380D01*
X134985000Y-72687380D02*
X134985000Y-71687380D01*
X133794523Y-72592142D02*
X133842142Y-72639761D01*
X133985000Y-72687380D01*
X134080238Y-72687380D01*
X134223095Y-72639761D01*
X134318333Y-72544523D01*
X134365952Y-72449285D01*
X134413571Y-72258809D01*
X134413571Y-72115952D01*
X134365952Y-71925476D01*
X134318333Y-71830238D01*
X134223095Y-71735000D01*
X134080238Y-71687380D01*
X133985000Y-71687380D01*
X133842142Y-71735000D01*
X133794523Y-71782619D01*
X133365952Y-72687380D02*
X133365952Y-71687380D01*
X132794523Y-72687380D02*
X133223095Y-72115952D01*
X132794523Y-71687380D02*
X133365952Y-72258809D01*
X135151666Y-65492380D02*
X135151666Y-66206666D01*
X135199285Y-66349523D01*
X135294523Y-66444761D01*
X135437380Y-66492380D01*
X135532619Y-66492380D01*
X134818333Y-65492380D02*
X134246904Y-65492380D01*
X134532619Y-66492380D02*
X134532619Y-65492380D01*
X133961190Y-66206666D02*
X133485000Y-66206666D01*
X134056428Y-66492380D02*
X133723095Y-65492380D01*
X133389761Y-66492380D01*
X132532619Y-65540000D02*
X132627857Y-65492380D01*
X132770714Y-65492380D01*
X132913571Y-65540000D01*
X133008809Y-65635238D01*
X133056428Y-65730476D01*
X133104047Y-65920952D01*
X133104047Y-66063809D01*
X133056428Y-66254285D01*
X133008809Y-66349523D01*
X132913571Y-66444761D01*
X132770714Y-66492380D01*
X132675476Y-66492380D01*
X132532619Y-66444761D01*
X132485000Y-66397142D01*
X132485000Y-66063809D01*
X132675476Y-66063809D01*
X140422142Y-66444761D02*
X140279285Y-66492380D01*
X140041190Y-66492380D01*
X139945952Y-66444761D01*
X139898333Y-66397142D01*
X139850714Y-66301904D01*
X139850714Y-66206666D01*
X139898333Y-66111428D01*
X139945952Y-66063809D01*
X140041190Y-66016190D01*
X140231666Y-65968571D01*
X140326904Y-65920952D01*
X140374523Y-65873333D01*
X140422142Y-65778095D01*
X140422142Y-65682857D01*
X140374523Y-65587619D01*
X140326904Y-65540000D01*
X140231666Y-65492380D01*
X139993571Y-65492380D01*
X139850714Y-65540000D01*
X139517380Y-65492380D02*
X139279285Y-66492380D01*
X139088809Y-65778095D01*
X138898333Y-66492380D01*
X138660238Y-65492380D01*
X138279285Y-66492380D02*
X138279285Y-65492380D01*
X138041190Y-65492380D01*
X137898333Y-65540000D01*
X137803095Y-65635238D01*
X137755476Y-65730476D01*
X137707857Y-65920952D01*
X137707857Y-66063809D01*
X137755476Y-66254285D01*
X137803095Y-66349523D01*
X137898333Y-66444761D01*
X138041190Y-66492380D01*
X138279285Y-66492380D01*
X141319047Y-69139761D02*
X141176190Y-69187380D01*
X140938095Y-69187380D01*
X140842857Y-69139761D01*
X140795238Y-69092142D01*
X140747619Y-68996904D01*
X140747619Y-68901666D01*
X140795238Y-68806428D01*
X140842857Y-68758809D01*
X140938095Y-68711190D01*
X141128571Y-68663571D01*
X141223809Y-68615952D01*
X141271428Y-68568333D01*
X141319047Y-68473095D01*
X141319047Y-68377857D01*
X141271428Y-68282619D01*
X141223809Y-68235000D01*
X141128571Y-68187380D01*
X140890476Y-68187380D01*
X140747619Y-68235000D01*
X140414285Y-68187380D02*
X140176190Y-69187380D01*
X139985714Y-68473095D01*
X139795238Y-69187380D01*
X139557142Y-68187380D01*
X139176190Y-69187380D02*
X139176190Y-68187380D01*
X138509523Y-68187380D02*
X138319047Y-68187380D01*
X138223809Y-68235000D01*
X138128571Y-68330238D01*
X138080952Y-68520714D01*
X138080952Y-68854047D01*
X138128571Y-69044523D01*
X138223809Y-69139761D01*
X138319047Y-69187380D01*
X138509523Y-69187380D01*
X138604761Y-69139761D01*
X138700000Y-69044523D01*
X138747619Y-68854047D01*
X138747619Y-68520714D01*
X138700000Y-68330238D01*
X138604761Y-68235000D01*
X138509523Y-68187380D01*
X141080952Y-70889761D02*
X140938095Y-70937380D01*
X140700000Y-70937380D01*
X140604761Y-70889761D01*
X140557142Y-70842142D01*
X140509523Y-70746904D01*
X140509523Y-70651666D01*
X140557142Y-70556428D01*
X140604761Y-70508809D01*
X140700000Y-70461190D01*
X140890476Y-70413571D01*
X140985714Y-70365952D01*
X141033333Y-70318333D01*
X141080952Y-70223095D01*
X141080952Y-70127857D01*
X141033333Y-70032619D01*
X140985714Y-69985000D01*
X140890476Y-69937380D01*
X140652380Y-69937380D01*
X140509523Y-69985000D01*
X140176190Y-69937380D02*
X139938095Y-70937380D01*
X139747619Y-70223095D01*
X139557142Y-70937380D01*
X139319047Y-69937380D01*
X138747619Y-69937380D02*
X138557142Y-69937380D01*
X138461904Y-69985000D01*
X138366666Y-70080238D01*
X138319047Y-70270714D01*
X138319047Y-70604047D01*
X138366666Y-70794523D01*
X138461904Y-70889761D01*
X138557142Y-70937380D01*
X138747619Y-70937380D01*
X138842857Y-70889761D01*
X138938095Y-70794523D01*
X138985714Y-70604047D01*
X138985714Y-70270714D01*
X138938095Y-70080238D01*
X138842857Y-69985000D01*
X138747619Y-69937380D01*
X141961904Y-72639761D02*
X141819047Y-72687380D01*
X141580952Y-72687380D01*
X141485714Y-72639761D01*
X141438095Y-72592142D01*
X141390476Y-72496904D01*
X141390476Y-72401666D01*
X141438095Y-72306428D01*
X141485714Y-72258809D01*
X141580952Y-72211190D01*
X141771428Y-72163571D01*
X141866666Y-72115952D01*
X141914285Y-72068333D01*
X141961904Y-71973095D01*
X141961904Y-71877857D01*
X141914285Y-71782619D01*
X141866666Y-71735000D01*
X141771428Y-71687380D01*
X141533333Y-71687380D01*
X141390476Y-71735000D01*
X141057142Y-71687380D02*
X140819047Y-72687380D01*
X140628571Y-71973095D01*
X140438095Y-72687380D01*
X140200000Y-71687380D01*
X139247619Y-72592142D02*
X139295238Y-72639761D01*
X139438095Y-72687380D01*
X139533333Y-72687380D01*
X139676190Y-72639761D01*
X139771428Y-72544523D01*
X139819047Y-72449285D01*
X139866666Y-72258809D01*
X139866666Y-72115952D01*
X139819047Y-71925476D01*
X139771428Y-71830238D01*
X139676190Y-71735000D01*
X139533333Y-71687380D01*
X139438095Y-71687380D01*
X139295238Y-71735000D01*
X139247619Y-71782619D01*
X138342857Y-72687380D02*
X138819047Y-72687380D01*
X138819047Y-71687380D01*
X138009523Y-72687380D02*
X138009523Y-71687380D01*
X137438095Y-72687380D02*
X137866666Y-72115952D01*
X137438095Y-71687380D02*
X138009523Y-72258809D01*
X121846666Y-86852380D02*
X121846666Y-87328571D01*
X122132380Y-86757142D02*
X121132380Y-87090476D01*
X122132380Y-87423809D01*
X121132380Y-87614285D02*
X121132380Y-88185714D01*
X122132380Y-87900000D02*
X121132380Y-87900000D01*
X122132380Y-88519047D02*
X121132380Y-88519047D01*
X121846666Y-88852380D01*
X121132380Y-89185714D01*
X122132380Y-89185714D01*
X121608571Y-89661904D02*
X121608571Y-89995238D01*
X122132380Y-90138095D02*
X122132380Y-89661904D01*
X121132380Y-89661904D01*
X121132380Y-90138095D01*
X122132380Y-91042857D02*
X122132380Y-90566666D01*
X121132380Y-90566666D01*
X122882380Y-87733333D02*
X123596666Y-87733333D01*
X123739523Y-87685714D01*
X123834761Y-87590476D01*
X123882380Y-87447619D01*
X123882380Y-87352380D01*
X122882380Y-88066666D02*
X122882380Y-88638095D01*
X123882380Y-88352380D02*
X122882380Y-88352380D01*
X123596666Y-88923809D02*
X123596666Y-89400000D01*
X123882380Y-88828571D02*
X122882380Y-89161904D01*
X123882380Y-89495238D01*
X122930000Y-90352380D02*
X122882380Y-90257142D01*
X122882380Y-90114285D01*
X122930000Y-89971428D01*
X123025238Y-89876190D01*
X123120476Y-89828571D01*
X123310952Y-89780952D01*
X123453809Y-89780952D01*
X123644285Y-89828571D01*
X123739523Y-89876190D01*
X123834761Y-89971428D01*
X123882380Y-90114285D01*
X123882380Y-90209523D01*
X123834761Y-90352380D01*
X123787142Y-90400000D01*
X123453809Y-90400000D01*
X123453809Y-90209523D01*
X161988333Y-69302380D02*
X161655000Y-70302380D01*
X161321666Y-69302380D01*
X160416904Y-70207142D02*
X160464523Y-70254761D01*
X160607380Y-70302380D01*
X160702619Y-70302380D01*
X160845476Y-70254761D01*
X160940714Y-70159523D01*
X160988333Y-70064285D01*
X161035952Y-69873809D01*
X161035952Y-69730952D01*
X160988333Y-69540476D01*
X160940714Y-69445238D01*
X160845476Y-69350000D01*
X160702619Y-69302380D01*
X160607380Y-69302380D01*
X160464523Y-69350000D01*
X160416904Y-69397619D01*
X159416904Y-70207142D02*
X159464523Y-70254761D01*
X159607380Y-70302380D01*
X159702619Y-70302380D01*
X159845476Y-70254761D01*
X159940714Y-70159523D01*
X159988333Y-70064285D01*
X160035952Y-69873809D01*
X160035952Y-69730952D01*
X159988333Y-69540476D01*
X159940714Y-69445238D01*
X159845476Y-69350000D01*
X159702619Y-69302380D01*
X159607380Y-69302380D01*
X159464523Y-69350000D01*
X159416904Y-69397619D01*
X149986904Y-69350000D02*
X150082142Y-69302380D01*
X150225000Y-69302380D01*
X150367857Y-69350000D01*
X150463095Y-69445238D01*
X150510714Y-69540476D01*
X150558333Y-69730952D01*
X150558333Y-69873809D01*
X150510714Y-70064285D01*
X150463095Y-70159523D01*
X150367857Y-70254761D01*
X150225000Y-70302380D01*
X150129761Y-70302380D01*
X149986904Y-70254761D01*
X149939285Y-70207142D01*
X149939285Y-69873809D01*
X150129761Y-69873809D01*
X149510714Y-70302380D02*
X149510714Y-69302380D01*
X148939285Y-70302380D01*
X148939285Y-69302380D01*
X148463095Y-70302380D02*
X148463095Y-69302380D01*
X148225000Y-69302380D01*
X148082142Y-69350000D01*
X147986904Y-69445238D01*
X147939285Y-69540476D01*
X147891666Y-69730952D01*
X147891666Y-69873809D01*
X147939285Y-70064285D01*
X147986904Y-70159523D01*
X148082142Y-70254761D01*
X148225000Y-70302380D01*
X148463095Y-70302380D01*
D10*
X154940000Y-72390000D02*
X154940000Y-69850000D01*
X157480000Y-74295000D02*
X154940000Y-74295000D01*
X157480000Y-77470000D02*
X157480000Y-74295000D01*
D11*
X149772619Y-67762380D02*
X150105952Y-67286190D01*
X150344047Y-67762380D02*
X150344047Y-66762380D01*
X149963095Y-66762380D01*
X149867857Y-66810000D01*
X149820238Y-66857619D01*
X149772619Y-66952857D01*
X149772619Y-67095714D01*
X149820238Y-67190952D01*
X149867857Y-67238571D01*
X149963095Y-67286190D01*
X150344047Y-67286190D01*
X149391666Y-67714761D02*
X149248809Y-67762380D01*
X149010714Y-67762380D01*
X148915476Y-67714761D01*
X148867857Y-67667142D01*
X148820238Y-67571904D01*
X148820238Y-67476666D01*
X148867857Y-67381428D01*
X148915476Y-67333809D01*
X149010714Y-67286190D01*
X149201190Y-67238571D01*
X149296428Y-67190952D01*
X149344047Y-67143333D01*
X149391666Y-67048095D01*
X149391666Y-66952857D01*
X149344047Y-66857619D01*
X149296428Y-66810000D01*
X149201190Y-66762380D01*
X148963095Y-66762380D01*
X148820238Y-66810000D01*
X148534523Y-66762380D02*
X147963095Y-66762380D01*
X148248809Y-67762380D02*
X148248809Y-66762380D01*
X162226428Y-67762380D02*
X162226428Y-66762380D01*
X161893095Y-67476666D01*
X161559761Y-66762380D01*
X161559761Y-67762380D01*
X161083571Y-67762380D02*
X161083571Y-66762380D01*
X160655000Y-67714761D02*
X160512142Y-67762380D01*
X160274047Y-67762380D01*
X160178809Y-67714761D01*
X160131190Y-67667142D01*
X160083571Y-67571904D01*
X160083571Y-67476666D01*
X160131190Y-67381428D01*
X160178809Y-67333809D01*
X160274047Y-67286190D01*
X160464523Y-67238571D01*
X160559761Y-67190952D01*
X160607380Y-67143333D01*
X160655000Y-67048095D01*
X160655000Y-66952857D01*
X160607380Y-66857619D01*
X160559761Y-66810000D01*
X160464523Y-66762380D01*
X160226428Y-66762380D01*
X160083571Y-66810000D01*
X159464523Y-66762380D02*
X159274047Y-66762380D01*
X159178809Y-66810000D01*
X159083571Y-66905238D01*
X159035952Y-67095714D01*
X159035952Y-67429047D01*
X159083571Y-67619523D01*
X159178809Y-67714761D01*
X159274047Y-67762380D01*
X159464523Y-67762380D01*
X159559761Y-67714761D01*
X159655000Y-67619523D01*
X159702619Y-67429047D01*
X159702619Y-67095714D01*
X159655000Y-66905238D01*
X159559761Y-66810000D01*
X159464523Y-66762380D01*
X156225714Y-65809761D02*
X156082857Y-65857380D01*
X155844761Y-65857380D01*
X155749523Y-65809761D01*
X155701904Y-65762142D01*
X155654285Y-65666904D01*
X155654285Y-65571666D01*
X155701904Y-65476428D01*
X155749523Y-65428809D01*
X155844761Y-65381190D01*
X156035238Y-65333571D01*
X156130476Y-65285952D01*
X156178095Y-65238333D01*
X156225714Y-65143095D01*
X156225714Y-65047857D01*
X156178095Y-64952619D01*
X156130476Y-64905000D01*
X156035238Y-64857380D01*
X155797142Y-64857380D01*
X155654285Y-64905000D01*
X154654285Y-65762142D02*
X154701904Y-65809761D01*
X154844761Y-65857380D01*
X154940000Y-65857380D01*
X155082857Y-65809761D01*
X155178095Y-65714523D01*
X155225714Y-65619285D01*
X155273333Y-65428809D01*
X155273333Y-65285952D01*
X155225714Y-65095476D01*
X155178095Y-65000238D01*
X155082857Y-64905000D01*
X154940000Y-64857380D01*
X154844761Y-64857380D01*
X154701904Y-64905000D01*
X154654285Y-64952619D01*
X154225714Y-65857380D02*
X154225714Y-64857380D01*
X153654285Y-65857380D02*
X154082857Y-65285952D01*
X153654285Y-64857380D02*
X154225714Y-65428809D01*
X161416904Y-89670000D02*
X161512142Y-89622380D01*
X161655000Y-89622380D01*
X161797857Y-89670000D01*
X161893095Y-89765238D01*
X161940714Y-89860476D01*
X161988333Y-90050952D01*
X161988333Y-90193809D01*
X161940714Y-90384285D01*
X161893095Y-90479523D01*
X161797857Y-90574761D01*
X161655000Y-90622380D01*
X161559761Y-90622380D01*
X161416904Y-90574761D01*
X161369285Y-90527142D01*
X161369285Y-90193809D01*
X161559761Y-90193809D01*
X160940714Y-90622380D02*
X160940714Y-89622380D01*
X160369285Y-90622380D01*
X160369285Y-89622380D01*
X159893095Y-90622380D02*
X159893095Y-89622380D01*
X159655000Y-89622380D01*
X159512142Y-89670000D01*
X159416904Y-89765238D01*
X159369285Y-89860476D01*
X159321666Y-90050952D01*
X159321666Y-90193809D01*
X159369285Y-90384285D01*
X159416904Y-90479523D01*
X159512142Y-90574761D01*
X159655000Y-90622380D01*
X159893095Y-90622380D01*
X144906904Y-89670000D02*
X145002142Y-89622380D01*
X145145000Y-89622380D01*
X145287857Y-89670000D01*
X145383095Y-89765238D01*
X145430714Y-89860476D01*
X145478333Y-90050952D01*
X145478333Y-90193809D01*
X145430714Y-90384285D01*
X145383095Y-90479523D01*
X145287857Y-90574761D01*
X145145000Y-90622380D01*
X145049761Y-90622380D01*
X144906904Y-90574761D01*
X144859285Y-90527142D01*
X144859285Y-90193809D01*
X145049761Y-90193809D01*
X144430714Y-90622380D02*
X144430714Y-89622380D01*
X143859285Y-90622380D01*
X143859285Y-89622380D01*
X143383095Y-90622380D02*
X143383095Y-89622380D01*
X143145000Y-89622380D01*
X143002142Y-89670000D01*
X142906904Y-89765238D01*
X142859285Y-89860476D01*
X142811666Y-90050952D01*
X142811666Y-90193809D01*
X142859285Y-90384285D01*
X142906904Y-90479523D01*
X143002142Y-90574761D01*
X143145000Y-90622380D01*
X143383095Y-90622380D01*
D10*
X123825000Y-99060000D02*
X123190000Y-99060000D01*
X132080000Y-99060000D02*
X123825000Y-99060000D01*
X154940000Y-92075000D02*
X154305000Y-92710000D01*
X155575000Y-92710000D02*
X154940000Y-92075000D01*
X154940000Y-92075000D02*
X155575000Y-92710000D01*
X152400000Y-95250000D02*
X154940000Y-95250000D01*
X152400000Y-96520000D02*
X152400000Y-95250000D01*
X158750000Y-97790000D02*
X153670000Y-97790000D01*
X158750000Y-96520000D02*
X158750000Y-97790000D01*
X158750000Y-95250000D02*
X158750000Y-96520000D01*
X154940000Y-95250000D02*
X158750000Y-95250000D01*
X154940000Y-92075000D02*
X154940000Y-95250000D01*
X159385000Y-96520000D02*
X158750000Y-96520000D01*
X149860000Y-95885000D02*
X149860000Y-96520000D01*
X149860000Y-91440000D02*
X149860000Y-92075000D01*
D11*
X146772380Y-94226190D02*
X146772380Y-94797619D01*
X147772380Y-94511904D02*
X146772380Y-94511904D01*
X147772380Y-95130952D02*
X146772380Y-95130952D01*
X146772380Y-95369047D01*
X146820000Y-95511904D01*
X146915238Y-95607142D01*
X147010476Y-95654761D01*
X147200952Y-95702380D01*
X147343809Y-95702380D01*
X147534285Y-95654761D01*
X147629523Y-95607142D01*
X147724761Y-95511904D01*
X147772380Y-95369047D01*
X147772380Y-95130952D01*
X147772380Y-96130952D02*
X146772380Y-96130952D01*
X144232380Y-93916666D02*
X144232380Y-94488095D01*
X145232380Y-94202380D02*
X144232380Y-94202380D01*
X145232380Y-94821428D02*
X144232380Y-94821428D01*
X144946666Y-95154761D01*
X144232380Y-95488095D01*
X145232380Y-95488095D01*
X145184761Y-95916666D02*
X145232380Y-96059523D01*
X145232380Y-96297619D01*
X145184761Y-96392857D01*
X145137142Y-96440476D01*
X145041904Y-96488095D01*
X144946666Y-96488095D01*
X144851428Y-96440476D01*
X144803809Y-96392857D01*
X144756190Y-96297619D01*
X144708571Y-96107142D01*
X144660952Y-96011904D01*
X144613333Y-95964285D01*
X144518095Y-95916666D01*
X144422857Y-95916666D01*
X144327619Y-95964285D01*
X144280000Y-96011904D01*
X144232380Y-96107142D01*
X144232380Y-96345238D01*
X144280000Y-96488095D01*
X141692380Y-93964285D02*
X141692380Y-94535714D01*
X142692380Y-94250000D02*
X141692380Y-94250000D01*
X142597142Y-95440476D02*
X142644761Y-95392857D01*
X142692380Y-95250000D01*
X142692380Y-95154761D01*
X142644761Y-95011904D01*
X142549523Y-94916666D01*
X142454285Y-94869047D01*
X142263809Y-94821428D01*
X142120952Y-94821428D01*
X141930476Y-94869047D01*
X141835238Y-94916666D01*
X141740000Y-95011904D01*
X141692380Y-95154761D01*
X141692380Y-95250000D01*
X141740000Y-95392857D01*
X141787619Y-95440476D01*
X142692380Y-95869047D02*
X141692380Y-95869047D01*
X142692380Y-96440476D02*
X142120952Y-96011904D01*
X141692380Y-96440476D02*
X142263809Y-95869047D01*
X140152380Y-93543571D02*
X139676190Y-93210238D01*
X140152380Y-92972142D02*
X139152380Y-92972142D01*
X139152380Y-93353095D01*
X139200000Y-93448333D01*
X139247619Y-93495952D01*
X139342857Y-93543571D01*
X139485714Y-93543571D01*
X139580952Y-93495952D01*
X139628571Y-93448333D01*
X139676190Y-93353095D01*
X139676190Y-92972142D01*
X139152380Y-93829285D02*
X139152380Y-94400714D01*
X140152380Y-94115000D02*
X139152380Y-94115000D01*
X140057142Y-95305476D02*
X140104761Y-95257857D01*
X140152380Y-95115000D01*
X140152380Y-95019761D01*
X140104761Y-94876904D01*
X140009523Y-94781666D01*
X139914285Y-94734047D01*
X139723809Y-94686428D01*
X139580952Y-94686428D01*
X139390476Y-94734047D01*
X139295238Y-94781666D01*
X139200000Y-94876904D01*
X139152380Y-95019761D01*
X139152380Y-95115000D01*
X139200000Y-95257857D01*
X139247619Y-95305476D01*
X140152380Y-95734047D02*
X139152380Y-95734047D01*
X140152380Y-96305476D02*
X139580952Y-95876904D01*
X139152380Y-96305476D02*
X139723809Y-95734047D01*
X136612380Y-93940476D02*
X136612380Y-94511904D01*
X137612380Y-94226190D02*
X136612380Y-94226190D01*
X137612380Y-94845238D02*
X136612380Y-94845238D01*
X136612380Y-95083333D01*
X136660000Y-95226190D01*
X136755238Y-95321428D01*
X136850476Y-95369047D01*
X137040952Y-95416666D01*
X137183809Y-95416666D01*
X137374285Y-95369047D01*
X137469523Y-95321428D01*
X137564761Y-95226190D01*
X137612380Y-95083333D01*
X137612380Y-94845238D01*
X136612380Y-96035714D02*
X136612380Y-96226190D01*
X136660000Y-96321428D01*
X136755238Y-96416666D01*
X136945714Y-96464285D01*
X137279047Y-96464285D01*
X137469523Y-96416666D01*
X137564761Y-96321428D01*
X137612380Y-96226190D01*
X137612380Y-96035714D01*
X137564761Y-95940476D01*
X137469523Y-95845238D01*
X137279047Y-95797619D01*
X136945714Y-95797619D01*
X136755238Y-95845238D01*
X136660000Y-95940476D01*
X136612380Y-96035714D01*
X135024761Y-92972142D02*
X135072380Y-93115000D01*
X135072380Y-93353095D01*
X135024761Y-93448333D01*
X134977142Y-93495952D01*
X134881904Y-93543571D01*
X134786666Y-93543571D01*
X134691428Y-93495952D01*
X134643809Y-93448333D01*
X134596190Y-93353095D01*
X134548571Y-93162619D01*
X134500952Y-93067380D01*
X134453333Y-93019761D01*
X134358095Y-92972142D01*
X134262857Y-92972142D01*
X134167619Y-93019761D01*
X134120000Y-93067380D01*
X134072380Y-93162619D01*
X134072380Y-93400714D01*
X134120000Y-93543571D01*
X135072380Y-94543571D02*
X134596190Y-94210238D01*
X135072380Y-93972142D02*
X134072380Y-93972142D01*
X134072380Y-94353095D01*
X134120000Y-94448333D01*
X134167619Y-94495952D01*
X134262857Y-94543571D01*
X134405714Y-94543571D01*
X134500952Y-94495952D01*
X134548571Y-94448333D01*
X134596190Y-94353095D01*
X134596190Y-93972142D01*
X135024761Y-94924523D02*
X135072380Y-95067380D01*
X135072380Y-95305476D01*
X135024761Y-95400714D01*
X134977142Y-95448333D01*
X134881904Y-95495952D01*
X134786666Y-95495952D01*
X134691428Y-95448333D01*
X134643809Y-95400714D01*
X134596190Y-95305476D01*
X134548571Y-95115000D01*
X134500952Y-95019761D01*
X134453333Y-94972142D01*
X134358095Y-94924523D01*
X134262857Y-94924523D01*
X134167619Y-94972142D01*
X134120000Y-95019761D01*
X134072380Y-95115000D01*
X134072380Y-95353095D01*
X134120000Y-95495952D01*
X134072380Y-95781666D02*
X134072380Y-96353095D01*
X135072380Y-96067380D02*
X134072380Y-96067380D01*
X129706666Y-94011904D02*
X129706666Y-94488095D01*
X129992380Y-93916666D02*
X128992380Y-94250000D01*
X129992380Y-94583333D01*
X129897142Y-95488095D02*
X129944761Y-95440476D01*
X129992380Y-95297619D01*
X129992380Y-95202380D01*
X129944761Y-95059523D01*
X129849523Y-94964285D01*
X129754285Y-94916666D01*
X129563809Y-94869047D01*
X129420952Y-94869047D01*
X129230476Y-94916666D01*
X129135238Y-94964285D01*
X129040000Y-95059523D01*
X128992380Y-95202380D01*
X128992380Y-95297619D01*
X129040000Y-95440476D01*
X129087619Y-95488095D01*
X129992380Y-95916666D02*
X128992380Y-95916666D01*
X129992380Y-96488095D02*
X129420952Y-96059523D01*
X128992380Y-96488095D02*
X129563809Y-95916666D01*
X132532380Y-95035714D02*
X132056190Y-94702380D01*
X132532380Y-94464285D02*
X131532380Y-94464285D01*
X131532380Y-94845238D01*
X131580000Y-94940476D01*
X131627619Y-94988095D01*
X131722857Y-95035714D01*
X131865714Y-95035714D01*
X131960952Y-94988095D01*
X132008571Y-94940476D01*
X132056190Y-94845238D01*
X132056190Y-94464285D01*
X132627619Y-96130952D02*
X132580000Y-96035714D01*
X132484761Y-95940476D01*
X132341904Y-95797619D01*
X132294285Y-95702380D01*
X132294285Y-95607142D01*
X132532380Y-95654761D02*
X132484761Y-95559523D01*
X132389523Y-95464285D01*
X132199047Y-95416666D01*
X131865714Y-95416666D01*
X131675238Y-95464285D01*
X131580000Y-95559523D01*
X131532380Y-95654761D01*
X131532380Y-95845238D01*
X131580000Y-95940476D01*
X131675238Y-96035714D01*
X131865714Y-96083333D01*
X132199047Y-96083333D01*
X132389523Y-96035714D01*
X132484761Y-95940476D01*
X132532380Y-95845238D01*
X132532380Y-95654761D01*
X127706190Y-98242380D02*
X127706190Y-97242380D01*
X127468095Y-97242380D01*
X127325238Y-97290000D01*
X127230000Y-97385238D01*
X127182380Y-97480476D01*
X127134761Y-97670952D01*
X127134761Y-97813809D01*
X127182380Y-98004285D01*
X127230000Y-98099523D01*
X127325238Y-98194761D01*
X127468095Y-98242380D01*
X127706190Y-98242380D01*
X126372857Y-97718571D02*
X126230000Y-97766190D01*
X126182380Y-97813809D01*
X126134761Y-97909047D01*
X126134761Y-98051904D01*
X126182380Y-98147142D01*
X126230000Y-98194761D01*
X126325238Y-98242380D01*
X126706190Y-98242380D01*
X126706190Y-97242380D01*
X126372857Y-97242380D01*
X126277619Y-97290000D01*
X126230000Y-97337619D01*
X126182380Y-97432857D01*
X126182380Y-97528095D01*
X126230000Y-97623333D01*
X126277619Y-97670952D01*
X126372857Y-97718571D01*
X126706190Y-97718571D01*
X125801428Y-98242380D02*
X125277619Y-97575714D01*
X125801428Y-97575714D02*
X125277619Y-98242380D01*
X124991904Y-98242380D02*
X124468095Y-97575714D01*
X124991904Y-97575714D02*
X124468095Y-98242380D01*
X124182380Y-98242380D02*
X123658571Y-97575714D01*
X124182380Y-97575714D02*
X123658571Y-98242380D01*
X130310000Y-83693095D02*
X130262380Y-83597857D01*
X130262380Y-83455000D01*
X130310000Y-83312142D01*
X130405238Y-83216904D01*
X130500476Y-83169285D01*
X130690952Y-83121666D01*
X130833809Y-83121666D01*
X131024285Y-83169285D01*
X131119523Y-83216904D01*
X131214761Y-83312142D01*
X131262380Y-83455000D01*
X131262380Y-83550238D01*
X131214761Y-83693095D01*
X131167142Y-83740714D01*
X130833809Y-83740714D01*
X130833809Y-83550238D01*
X131262380Y-84169285D02*
X130262380Y-84169285D01*
X131262380Y-84740714D01*
X130262380Y-84740714D01*
X131262380Y-85216904D02*
X130262380Y-85216904D01*
X130262380Y-85455000D01*
X130310000Y-85597857D01*
X130405238Y-85693095D01*
X130500476Y-85740714D01*
X130690952Y-85788333D01*
X130833809Y-85788333D01*
X131024285Y-85740714D01*
X131119523Y-85693095D01*
X131214761Y-85597857D01*
X131262380Y-85455000D01*
X131262380Y-85216904D01*
X125230000Y-83693095D02*
X125182380Y-83597857D01*
X125182380Y-83455000D01*
X125230000Y-83312142D01*
X125325238Y-83216904D01*
X125420476Y-83169285D01*
X125610952Y-83121666D01*
X125753809Y-83121666D01*
X125944285Y-83169285D01*
X126039523Y-83216904D01*
X126134761Y-83312142D01*
X126182380Y-83455000D01*
X126182380Y-83550238D01*
X126134761Y-83693095D01*
X126087142Y-83740714D01*
X125753809Y-83740714D01*
X125753809Y-83550238D01*
X126182380Y-84169285D02*
X125182380Y-84169285D01*
X126182380Y-84740714D01*
X125182380Y-84740714D01*
X126182380Y-85216904D02*
X125182380Y-85216904D01*
X125182380Y-85455000D01*
X125230000Y-85597857D01*
X125325238Y-85693095D01*
X125420476Y-85740714D01*
X125610952Y-85788333D01*
X125753809Y-85788333D01*
X125944285Y-85740714D01*
X126039523Y-85693095D01*
X126134761Y-85597857D01*
X126182380Y-85455000D01*
X126182380Y-85216904D01*
X140398333Y-89622380D02*
X139826904Y-89622380D01*
X140112619Y-90622380D02*
X140112619Y-89622380D01*
X139493571Y-90622380D02*
X139493571Y-89622380D01*
X139160238Y-90336666D01*
X138826904Y-89622380D01*
X138826904Y-90622380D01*
X138398333Y-90574761D02*
X138255476Y-90622380D01*
X138017380Y-90622380D01*
X137922142Y-90574761D01*
X137874523Y-90527142D01*
X137826904Y-90431904D01*
X137826904Y-90336666D01*
X137874523Y-90241428D01*
X137922142Y-90193809D01*
X138017380Y-90146190D01*
X138207857Y-90098571D01*
X138303095Y-90050952D01*
X138350714Y-90003333D01*
X138398333Y-89908095D01*
X138398333Y-89812857D01*
X138350714Y-89717619D01*
X138303095Y-89670000D01*
X138207857Y-89622380D01*
X137969761Y-89622380D01*
X137826904Y-89670000D01*
X132802380Y-91424285D02*
X132802380Y-91995714D01*
X133802380Y-91710000D02*
X132802380Y-91710000D01*
X133707142Y-92900476D02*
X133754761Y-92852857D01*
X133802380Y-92710000D01*
X133802380Y-92614761D01*
X133754761Y-92471904D01*
X133659523Y-92376666D01*
X133564285Y-92329047D01*
X133373809Y-92281428D01*
X133230952Y-92281428D01*
X133040476Y-92329047D01*
X132945238Y-92376666D01*
X132850000Y-92471904D01*
X132802380Y-92614761D01*
X132802380Y-92710000D01*
X132850000Y-92852857D01*
X132897619Y-92900476D01*
X133802380Y-93329047D02*
X132802380Y-93329047D01*
X133802380Y-93900476D02*
X133230952Y-93471904D01*
X132802380Y-93900476D02*
X133373809Y-93329047D01*
X130262380Y-91400476D02*
X130262380Y-91971904D01*
X131262380Y-91686190D02*
X130262380Y-91686190D01*
X131262380Y-92305238D02*
X130262380Y-92305238D01*
X130262380Y-92543333D01*
X130310000Y-92686190D01*
X130405238Y-92781428D01*
X130500476Y-92829047D01*
X130690952Y-92876666D01*
X130833809Y-92876666D01*
X131024285Y-92829047D01*
X131119523Y-92781428D01*
X131214761Y-92686190D01*
X131262380Y-92543333D01*
X131262380Y-92305238D01*
X130262380Y-93495714D02*
X130262380Y-93686190D01*
X130310000Y-93781428D01*
X130405238Y-93876666D01*
X130595714Y-93924285D01*
X130929047Y-93924285D01*
X131119523Y-93876666D01*
X131214761Y-93781428D01*
X131262380Y-93686190D01*
X131262380Y-93495714D01*
X131214761Y-93400476D01*
X131119523Y-93305238D01*
X130929047Y-93257619D01*
X130595714Y-93257619D01*
X130405238Y-93305238D01*
X130310000Y-93400476D01*
X130262380Y-93495714D01*
X126134761Y-91702142D02*
X126182380Y-91845000D01*
X126182380Y-92083095D01*
X126134761Y-92178333D01*
X126087142Y-92225952D01*
X125991904Y-92273571D01*
X125896666Y-92273571D01*
X125801428Y-92225952D01*
X125753809Y-92178333D01*
X125706190Y-92083095D01*
X125658571Y-91892619D01*
X125610952Y-91797380D01*
X125563333Y-91749761D01*
X125468095Y-91702142D01*
X125372857Y-91702142D01*
X125277619Y-91749761D01*
X125230000Y-91797380D01*
X125182380Y-91892619D01*
X125182380Y-92130714D01*
X125230000Y-92273571D01*
X126182380Y-93273571D02*
X125706190Y-92940238D01*
X126182380Y-92702142D02*
X125182380Y-92702142D01*
X125182380Y-93083095D01*
X125230000Y-93178333D01*
X125277619Y-93225952D01*
X125372857Y-93273571D01*
X125515714Y-93273571D01*
X125610952Y-93225952D01*
X125658571Y-93178333D01*
X125706190Y-93083095D01*
X125706190Y-92702142D01*
X126134761Y-93654523D02*
X126182380Y-93797380D01*
X126182380Y-94035476D01*
X126134761Y-94130714D01*
X126087142Y-94178333D01*
X125991904Y-94225952D01*
X125896666Y-94225952D01*
X125801428Y-94178333D01*
X125753809Y-94130714D01*
X125706190Y-94035476D01*
X125658571Y-93845000D01*
X125610952Y-93749761D01*
X125563333Y-93702142D01*
X125468095Y-93654523D01*
X125372857Y-93654523D01*
X125277619Y-93702142D01*
X125230000Y-93749761D01*
X125182380Y-93845000D01*
X125182380Y-94083095D01*
X125230000Y-94225952D01*
X125182380Y-94511666D02*
X125182380Y-95083095D01*
X126182380Y-94797380D02*
X125182380Y-94797380D01*
X127722380Y-91686190D02*
X127722380Y-92257619D01*
X128722380Y-91971904D02*
X127722380Y-91971904D01*
X128722380Y-92590952D02*
X127722380Y-92590952D01*
X127722380Y-92829047D01*
X127770000Y-92971904D01*
X127865238Y-93067142D01*
X127960476Y-93114761D01*
X128150952Y-93162380D01*
X128293809Y-93162380D01*
X128484285Y-93114761D01*
X128579523Y-93067142D01*
X128674761Y-92971904D01*
X128722380Y-92829047D01*
X128722380Y-92590952D01*
X128722380Y-93590952D02*
X127722380Y-93590952D01*
X132850000Y-83693095D02*
X132802380Y-83597857D01*
X132802380Y-83455000D01*
X132850000Y-83312142D01*
X132945238Y-83216904D01*
X133040476Y-83169285D01*
X133230952Y-83121666D01*
X133373809Y-83121666D01*
X133564285Y-83169285D01*
X133659523Y-83216904D01*
X133754761Y-83312142D01*
X133802380Y-83455000D01*
X133802380Y-83550238D01*
X133754761Y-83693095D01*
X133707142Y-83740714D01*
X133373809Y-83740714D01*
X133373809Y-83550238D01*
X133802380Y-84169285D02*
X132802380Y-84169285D01*
X133802380Y-84740714D01*
X132802380Y-84740714D01*
X133802380Y-85216904D02*
X132802380Y-85216904D01*
X132802380Y-85455000D01*
X132850000Y-85597857D01*
X132945238Y-85693095D01*
X133040476Y-85740714D01*
X133230952Y-85788333D01*
X133373809Y-85788333D01*
X133564285Y-85740714D01*
X133659523Y-85693095D01*
X133754761Y-85597857D01*
X133802380Y-85455000D01*
X133802380Y-85216904D01*
X135342380Y-83121666D02*
X136342380Y-83455000D01*
X135342380Y-83788333D01*
X136247142Y-84693095D02*
X136294761Y-84645476D01*
X136342380Y-84502619D01*
X136342380Y-84407380D01*
X136294761Y-84264523D01*
X136199523Y-84169285D01*
X136104285Y-84121666D01*
X135913809Y-84074047D01*
X135770952Y-84074047D01*
X135580476Y-84121666D01*
X135485238Y-84169285D01*
X135390000Y-84264523D01*
X135342380Y-84407380D01*
X135342380Y-84502619D01*
X135390000Y-84645476D01*
X135437619Y-84693095D01*
X136247142Y-85693095D02*
X136294761Y-85645476D01*
X136342380Y-85502619D01*
X136342380Y-85407380D01*
X136294761Y-85264523D01*
X136199523Y-85169285D01*
X136104285Y-85121666D01*
X135913809Y-85074047D01*
X135770952Y-85074047D01*
X135580476Y-85121666D01*
X135485238Y-85169285D01*
X135390000Y-85264523D01*
X135342380Y-85407380D01*
X135342380Y-85502619D01*
X135390000Y-85645476D01*
X135437619Y-85693095D01*
D10*
X159385000Y-99060000D02*
X161290000Y-99060000D01*
X153670000Y-99060000D02*
X159385000Y-99060000D01*
X158115000Y-101600000D02*
X159385000Y-102870000D01*
X151765000Y-101600000D02*
X158115000Y-101600000D01*
D11*
X158305238Y-95972380D02*
X157971904Y-96972380D01*
X157638571Y-95972380D01*
X157448095Y-95972380D02*
X156876666Y-95972380D01*
X157162380Y-96972380D02*
X157162380Y-95972380D01*
X155971904Y-96972380D02*
X156305238Y-96496190D01*
X156543333Y-96972380D02*
X156543333Y-95972380D01*
X156162380Y-95972380D01*
X156067142Y-96020000D01*
X156019523Y-96067619D01*
X155971904Y-96162857D01*
X155971904Y-96305714D01*
X156019523Y-96400952D01*
X156067142Y-96448571D01*
X156162380Y-96496190D01*
X156543333Y-96496190D01*
X155543333Y-96448571D02*
X155210000Y-96448571D01*
X155067142Y-96972380D02*
X155543333Y-96972380D01*
X155543333Y-95972380D01*
X155067142Y-95972380D01*
X154305238Y-96448571D02*
X154638571Y-96448571D01*
X154638571Y-96972380D02*
X154638571Y-95972380D01*
X154162380Y-95972380D01*
X158178333Y-99782380D02*
X157845000Y-100782380D01*
X157511666Y-99782380D01*
X156606904Y-100687142D02*
X156654523Y-100734761D01*
X156797380Y-100782380D01*
X156892619Y-100782380D01*
X157035476Y-100734761D01*
X157130714Y-100639523D01*
X157178333Y-100544285D01*
X157225952Y-100353809D01*
X157225952Y-100210952D01*
X157178333Y-100020476D01*
X157130714Y-99925238D01*
X157035476Y-99830000D01*
X156892619Y-99782380D01*
X156797380Y-99782380D01*
X156654523Y-99830000D01*
X156606904Y-99877619D01*
X155606904Y-100687142D02*
X155654523Y-100734761D01*
X155797380Y-100782380D01*
X155892619Y-100782380D01*
X156035476Y-100734761D01*
X156130714Y-100639523D01*
X156178333Y-100544285D01*
X156225952Y-100353809D01*
X156225952Y-100210952D01*
X156178333Y-100020476D01*
X156130714Y-99925238D01*
X156035476Y-99830000D01*
X155892619Y-99782380D01*
X155797380Y-99782380D01*
X155654523Y-99830000D01*
X155606904Y-99877619D01*
D10*
X149860000Y-101600000D02*
X125095000Y-101600000D01*
D11*
X127126904Y-99830000D02*
X127222142Y-99782380D01*
X127365000Y-99782380D01*
X127507857Y-99830000D01*
X127603095Y-99925238D01*
X127650714Y-100020476D01*
X127698333Y-100210952D01*
X127698333Y-100353809D01*
X127650714Y-100544285D01*
X127603095Y-100639523D01*
X127507857Y-100734761D01*
X127365000Y-100782380D01*
X127269761Y-100782380D01*
X127126904Y-100734761D01*
X127079285Y-100687142D01*
X127079285Y-100353809D01*
X127269761Y-100353809D01*
X126650714Y-100782380D02*
X126650714Y-99782380D01*
X126079285Y-100782380D01*
X126079285Y-99782380D01*
X125603095Y-100782380D02*
X125603095Y-99782380D01*
X125365000Y-99782380D01*
X125222142Y-99830000D01*
X125126904Y-99925238D01*
X125079285Y-100020476D01*
X125031666Y-100210952D01*
X125031666Y-100353809D01*
X125079285Y-100544285D01*
X125126904Y-100639523D01*
X125222142Y-100734761D01*
X125365000Y-100782380D01*
X125603095Y-100782380D01*
X151852380Y-83756666D02*
X151852380Y-84328095D01*
X152852380Y-84042380D02*
X151852380Y-84042380D01*
X152852380Y-84661428D02*
X151852380Y-84661428D01*
X152566666Y-84994761D01*
X151852380Y-85328095D01*
X152852380Y-85328095D01*
X152804761Y-85756666D02*
X152852380Y-85899523D01*
X152852380Y-86137619D01*
X152804761Y-86232857D01*
X152757142Y-86280476D01*
X152661904Y-86328095D01*
X152566666Y-86328095D01*
X152471428Y-86280476D01*
X152423809Y-86232857D01*
X152376190Y-86137619D01*
X152328571Y-85947142D01*
X152280952Y-85851904D01*
X152233333Y-85804285D01*
X152138095Y-85756666D01*
X152042857Y-85756666D01*
X151947619Y-85804285D01*
X151900000Y-85851904D01*
X151852380Y-85947142D01*
X151852380Y-86185238D01*
X151900000Y-86328095D01*
X154392380Y-83780476D02*
X154392380Y-84351904D01*
X155392380Y-84066190D02*
X154392380Y-84066190D01*
X155392380Y-84685238D02*
X154392380Y-84685238D01*
X154392380Y-84923333D01*
X154440000Y-85066190D01*
X154535238Y-85161428D01*
X154630476Y-85209047D01*
X154820952Y-85256666D01*
X154963809Y-85256666D01*
X155154285Y-85209047D01*
X155249523Y-85161428D01*
X155344761Y-85066190D01*
X155392380Y-84923333D01*
X155392380Y-84685238D01*
X154392380Y-85875714D02*
X154392380Y-86066190D01*
X154440000Y-86161428D01*
X154535238Y-86256666D01*
X154725714Y-86304285D01*
X155059047Y-86304285D01*
X155249523Y-86256666D01*
X155344761Y-86161428D01*
X155392380Y-86066190D01*
X155392380Y-85875714D01*
X155344761Y-85780476D01*
X155249523Y-85685238D01*
X155059047Y-85637619D01*
X154725714Y-85637619D01*
X154535238Y-85685238D01*
X154440000Y-85780476D01*
X154392380Y-85875714D01*
X156932380Y-83804285D02*
X156932380Y-84375714D01*
X157932380Y-84090000D02*
X156932380Y-84090000D01*
X157837142Y-85280476D02*
X157884761Y-85232857D01*
X157932380Y-85090000D01*
X157932380Y-84994761D01*
X157884761Y-84851904D01*
X157789523Y-84756666D01*
X157694285Y-84709047D01*
X157503809Y-84661428D01*
X157360952Y-84661428D01*
X157170476Y-84709047D01*
X157075238Y-84756666D01*
X156980000Y-84851904D01*
X156932380Y-84994761D01*
X156932380Y-85090000D01*
X156980000Y-85232857D01*
X157027619Y-85280476D01*
X157932380Y-85709047D02*
X156932380Y-85709047D01*
X157932380Y-86280476D02*
X157360952Y-85851904D01*
X156932380Y-86280476D02*
X157503809Y-85709047D01*
X152804761Y-91702142D02*
X152852380Y-91845000D01*
X152852380Y-92083095D01*
X152804761Y-92178333D01*
X152757142Y-92225952D01*
X152661904Y-92273571D01*
X152566666Y-92273571D01*
X152471428Y-92225952D01*
X152423809Y-92178333D01*
X152376190Y-92083095D01*
X152328571Y-91892619D01*
X152280952Y-91797380D01*
X152233333Y-91749761D01*
X152138095Y-91702142D01*
X152042857Y-91702142D01*
X151947619Y-91749761D01*
X151900000Y-91797380D01*
X151852380Y-91892619D01*
X151852380Y-92130714D01*
X151900000Y-92273571D01*
X152852380Y-93273571D02*
X152376190Y-92940238D01*
X152852380Y-92702142D02*
X151852380Y-92702142D01*
X151852380Y-93083095D01*
X151900000Y-93178333D01*
X151947619Y-93225952D01*
X152042857Y-93273571D01*
X152185714Y-93273571D01*
X152280952Y-93225952D01*
X152328571Y-93178333D01*
X152376190Y-93083095D01*
X152376190Y-92702142D01*
X152804761Y-93654523D02*
X152852380Y-93797380D01*
X152852380Y-94035476D01*
X152804761Y-94130714D01*
X152757142Y-94178333D01*
X152661904Y-94225952D01*
X152566666Y-94225952D01*
X152471428Y-94178333D01*
X152423809Y-94130714D01*
X152376190Y-94035476D01*
X152328571Y-93845000D01*
X152280952Y-93749761D01*
X152233333Y-93702142D01*
X152138095Y-93654523D01*
X152042857Y-93654523D01*
X151947619Y-93702142D01*
X151900000Y-93749761D01*
X151852380Y-93845000D01*
X151852380Y-94083095D01*
X151900000Y-94225952D01*
X151852380Y-94511666D02*
X151852380Y-95083095D01*
X152852380Y-94797380D02*
X151852380Y-94797380D01*
X149312380Y-92337142D02*
X149312380Y-92908571D01*
X150312380Y-92622857D02*
X149312380Y-92622857D01*
X150312380Y-93813333D02*
X149836190Y-93480000D01*
X150312380Y-93241904D02*
X149312380Y-93241904D01*
X149312380Y-93622857D01*
X149360000Y-93718095D01*
X149407619Y-93765714D01*
X149502857Y-93813333D01*
X149645714Y-93813333D01*
X149740952Y-93765714D01*
X149788571Y-93718095D01*
X149836190Y-93622857D01*
X149836190Y-93241904D01*
X150264761Y-94194285D02*
X150312380Y-94337142D01*
X150312380Y-94575238D01*
X150264761Y-94670476D01*
X150217142Y-94718095D01*
X150121904Y-94765714D01*
X150026666Y-94765714D01*
X149931428Y-94718095D01*
X149883809Y-94670476D01*
X149836190Y-94575238D01*
X149788571Y-94384761D01*
X149740952Y-94289523D01*
X149693333Y-94241904D01*
X149598095Y-94194285D01*
X149502857Y-94194285D01*
X149407619Y-94241904D01*
X149360000Y-94289523D01*
X149312380Y-94384761D01*
X149312380Y-94622857D01*
X149360000Y-94765714D01*
X149312380Y-95051428D02*
X149312380Y-95622857D01*
X150312380Y-95337142D02*
X149312380Y-95337142D01*
X146772380Y-84066190D02*
X146772380Y-84637619D01*
X147772380Y-84351904D02*
X146772380Y-84351904D01*
X147772380Y-84970952D02*
X146772380Y-84970952D01*
X146772380Y-85209047D01*
X146820000Y-85351904D01*
X146915238Y-85447142D01*
X147010476Y-85494761D01*
X147200952Y-85542380D01*
X147343809Y-85542380D01*
X147534285Y-85494761D01*
X147629523Y-85447142D01*
X147724761Y-85351904D01*
X147772380Y-85209047D01*
X147772380Y-84970952D01*
X147772380Y-85970952D02*
X146772380Y-85970952D01*
X149312380Y-83756666D02*
X150312380Y-84090000D01*
X149312380Y-84423333D01*
X150217142Y-85328095D02*
X150264761Y-85280476D01*
X150312380Y-85137619D01*
X150312380Y-85042380D01*
X150264761Y-84899523D01*
X150169523Y-84804285D01*
X150074285Y-84756666D01*
X149883809Y-84709047D01*
X149740952Y-84709047D01*
X149550476Y-84756666D01*
X149455238Y-84804285D01*
X149360000Y-84899523D01*
X149312380Y-85042380D01*
X149312380Y-85137619D01*
X149360000Y-85280476D01*
X149407619Y-85328095D01*
X150217142Y-86328095D02*
X150264761Y-86280476D01*
X150312380Y-86137619D01*
X150312380Y-86042380D01*
X150264761Y-85899523D01*
X150169523Y-85804285D01*
X150074285Y-85756666D01*
X149883809Y-85709047D01*
X149740952Y-85709047D01*
X149550476Y-85756666D01*
X149455238Y-85804285D01*
X149360000Y-85899523D01*
X149312380Y-86042380D01*
X149312380Y-86137619D01*
X149360000Y-86280476D01*
X149407619Y-86328095D01*
X161988333Y-79462380D02*
X161655000Y-80462380D01*
X161321666Y-79462380D01*
X160416904Y-80367142D02*
X160464523Y-80414761D01*
X160607380Y-80462380D01*
X160702619Y-80462380D01*
X160845476Y-80414761D01*
X160940714Y-80319523D01*
X160988333Y-80224285D01*
X161035952Y-80033809D01*
X161035952Y-79890952D01*
X160988333Y-79700476D01*
X160940714Y-79605238D01*
X160845476Y-79510000D01*
X160702619Y-79462380D01*
X160607380Y-79462380D01*
X160464523Y-79510000D01*
X160416904Y-79557619D01*
X159416904Y-80367142D02*
X159464523Y-80414761D01*
X159607380Y-80462380D01*
X159702619Y-80462380D01*
X159845476Y-80414761D01*
X159940714Y-80319523D01*
X159988333Y-80224285D01*
X160035952Y-80033809D01*
X160035952Y-79890952D01*
X159988333Y-79700476D01*
X159940714Y-79605238D01*
X159845476Y-79510000D01*
X159702619Y-79462380D01*
X159607380Y-79462380D01*
X159464523Y-79510000D01*
X159416904Y-79557619D01*
D10*
X154940000Y-81280000D02*
X142875000Y-81280000D01*
D11*
X144906904Y-79510000D02*
X145002142Y-79462380D01*
X145145000Y-79462380D01*
X145287857Y-79510000D01*
X145383095Y-79605238D01*
X145430714Y-79700476D01*
X145478333Y-79890952D01*
X145478333Y-80033809D01*
X145430714Y-80224285D01*
X145383095Y-80319523D01*
X145287857Y-80414761D01*
X145145000Y-80462380D01*
X145049761Y-80462380D01*
X144906904Y-80414761D01*
X144859285Y-80367142D01*
X144859285Y-80033809D01*
X145049761Y-80033809D01*
X144430714Y-80462380D02*
X144430714Y-79462380D01*
X143859285Y-80462380D01*
X143859285Y-79462380D01*
X143383095Y-80462380D02*
X143383095Y-79462380D01*
X143145000Y-79462380D01*
X143002142Y-79510000D01*
X142906904Y-79605238D01*
X142859285Y-79700476D01*
X142811666Y-79890952D01*
X142811666Y-80033809D01*
X142859285Y-80224285D01*
X142906904Y-80319523D01*
X143002142Y-80414761D01*
X143145000Y-80462380D01*
X143383095Y-80462380D01*
X147772380Y-72088571D02*
X146772380Y-72088571D01*
X147486666Y-72421904D01*
X146772380Y-72755238D01*
X147772380Y-72755238D01*
X147772380Y-73231428D02*
X146772380Y-73231428D01*
X147724761Y-73660000D02*
X147772380Y-73802857D01*
X147772380Y-74040952D01*
X147724761Y-74136190D01*
X147677142Y-74183809D01*
X147581904Y-74231428D01*
X147486666Y-74231428D01*
X147391428Y-74183809D01*
X147343809Y-74136190D01*
X147296190Y-74040952D01*
X147248571Y-73850476D01*
X147200952Y-73755238D01*
X147153333Y-73707619D01*
X147058095Y-73660000D01*
X146962857Y-73660000D01*
X146867619Y-73707619D01*
X146820000Y-73755238D01*
X146772380Y-73850476D01*
X146772380Y-74088571D01*
X146820000Y-74231428D01*
X146772380Y-74850476D02*
X146772380Y-75040952D01*
X146820000Y-75136190D01*
X146915238Y-75231428D01*
X147105714Y-75279047D01*
X147439047Y-75279047D01*
X147629523Y-75231428D01*
X147724761Y-75136190D01*
X147772380Y-75040952D01*
X147772380Y-74850476D01*
X147724761Y-74755238D01*
X147629523Y-74660000D01*
X147439047Y-74612380D01*
X147105714Y-74612380D01*
X146915238Y-74660000D01*
X146820000Y-74755238D01*
X146772380Y-74850476D01*
X150264761Y-73009285D02*
X150312380Y-73152142D01*
X150312380Y-73390238D01*
X150264761Y-73485476D01*
X150217142Y-73533095D01*
X150121904Y-73580714D01*
X150026666Y-73580714D01*
X149931428Y-73533095D01*
X149883809Y-73485476D01*
X149836190Y-73390238D01*
X149788571Y-73199761D01*
X149740952Y-73104523D01*
X149693333Y-73056904D01*
X149598095Y-73009285D01*
X149502857Y-73009285D01*
X149407619Y-73056904D01*
X149360000Y-73104523D01*
X149312380Y-73199761D01*
X149312380Y-73437857D01*
X149360000Y-73580714D01*
X150217142Y-74580714D02*
X150264761Y-74533095D01*
X150312380Y-74390238D01*
X150312380Y-74295000D01*
X150264761Y-74152142D01*
X150169523Y-74056904D01*
X150074285Y-74009285D01*
X149883809Y-73961666D01*
X149740952Y-73961666D01*
X149550476Y-74009285D01*
X149455238Y-74056904D01*
X149360000Y-74152142D01*
X149312380Y-74295000D01*
X149312380Y-74390238D01*
X149360000Y-74533095D01*
X149407619Y-74580714D01*
X150312380Y-75009285D02*
X149312380Y-75009285D01*
X150312380Y-75580714D02*
X149740952Y-75152142D01*
X149312380Y-75580714D02*
X149883809Y-75009285D01*
X152852380Y-73747380D02*
X152376190Y-73414047D01*
X152852380Y-73175952D02*
X151852380Y-73175952D01*
X151852380Y-73556904D01*
X151900000Y-73652142D01*
X151947619Y-73699761D01*
X152042857Y-73747380D01*
X152185714Y-73747380D01*
X152280952Y-73699761D01*
X152328571Y-73652142D01*
X152376190Y-73556904D01*
X152376190Y-73175952D01*
X152804761Y-74128333D02*
X152852380Y-74271190D01*
X152852380Y-74509285D01*
X152804761Y-74604523D01*
X152757142Y-74652142D01*
X152661904Y-74699761D01*
X152566666Y-74699761D01*
X152471428Y-74652142D01*
X152423809Y-74604523D01*
X152376190Y-74509285D01*
X152328571Y-74318809D01*
X152280952Y-74223571D01*
X152233333Y-74175952D01*
X152138095Y-74128333D01*
X152042857Y-74128333D01*
X151947619Y-74175952D01*
X151900000Y-74223571D01*
X151852380Y-74318809D01*
X151852380Y-74556904D01*
X151900000Y-74699761D01*
X151852380Y-74985476D02*
X151852380Y-75556904D01*
X152852380Y-75271190D02*
X151852380Y-75271190D01*
X157781428Y-73872380D02*
X157781428Y-72872380D01*
X157448095Y-73586666D01*
X157114761Y-72872380D01*
X157114761Y-73872380D01*
X156448095Y-72872380D02*
X156257619Y-72872380D01*
X156162380Y-72920000D01*
X156067142Y-73015238D01*
X156019523Y-73205714D01*
X156019523Y-73539047D01*
X156067142Y-73729523D01*
X156162380Y-73824761D01*
X156257619Y-73872380D01*
X156448095Y-73872380D01*
X156543333Y-73824761D01*
X156638571Y-73729523D01*
X156686190Y-73539047D01*
X156686190Y-73205714D01*
X156638571Y-73015238D01*
X156543333Y-72920000D01*
X156448095Y-72872380D01*
X155638571Y-73824761D02*
X155495714Y-73872380D01*
X155257619Y-73872380D01*
X155162380Y-73824761D01*
X155114761Y-73777142D01*
X155067142Y-73681904D01*
X155067142Y-73586666D01*
X155114761Y-73491428D01*
X155162380Y-73443809D01*
X155257619Y-73396190D01*
X155448095Y-73348571D01*
X155543333Y-73300952D01*
X155590952Y-73253333D01*
X155638571Y-73158095D01*
X155638571Y-73062857D01*
X155590952Y-72967619D01*
X155543333Y-72920000D01*
X155448095Y-72872380D01*
X155210000Y-72872380D01*
X155067142Y-72920000D01*
X154638571Y-73872380D02*
X154638571Y-72872380D01*
D12*
G04 #@! TO.C,REF\002A\002A*
G36*
X132448043Y-75131571D02*
X132351768Y-75155809D01*
X132265184Y-75198641D01*
X132190373Y-75258419D01*
X132129418Y-75333494D01*
X132084399Y-75422220D01*
X132058136Y-75518530D01*
X132052286Y-75615795D01*
X132067140Y-75709654D01*
X132100840Y-75797511D01*
X132151528Y-75876770D01*
X132217345Y-75944836D01*
X132296434Y-75999112D01*
X132386934Y-76037002D01*
X132438200Y-76049426D01*
X132482698Y-76056947D01*
X132516999Y-76059919D01*
X132549960Y-76058094D01*
X132590434Y-76051225D01*
X132623531Y-76044250D01*
X132716947Y-76012741D01*
X132800619Y-75961617D01*
X132872665Y-75892429D01*
X132931200Y-75806728D01*
X132945148Y-75779489D01*
X132961586Y-75743122D01*
X132971894Y-75712582D01*
X132977460Y-75680450D01*
X132979669Y-75639307D01*
X132979948Y-75593222D01*
X132975861Y-75508865D01*
X132962446Y-75439586D01*
X132937256Y-75378961D01*
X132897846Y-75320567D01*
X132859298Y-75276302D01*
X132787406Y-75210484D01*
X132712313Y-75165053D01*
X132629562Y-75137850D01*
X132551928Y-75127576D01*
X132448043Y-75131571D01*
X132448043Y-75131571D01*
G37*
X132448043Y-75131571D02*
X132351768Y-75155809D01*
X132265184Y-75198641D01*
X132190373Y-75258419D01*
X132129418Y-75333494D01*
X132084399Y-75422220D01*
X132058136Y-75518530D01*
X132052286Y-75615795D01*
X132067140Y-75709654D01*
X132100840Y-75797511D01*
X132151528Y-75876770D01*
X132217345Y-75944836D01*
X132296434Y-75999112D01*
X132386934Y-76037002D01*
X132438200Y-76049426D01*
X132482698Y-76056947D01*
X132516999Y-76059919D01*
X132549960Y-76058094D01*
X132590434Y-76051225D01*
X132623531Y-76044250D01*
X132716947Y-76012741D01*
X132800619Y-75961617D01*
X132872665Y-75892429D01*
X132931200Y-75806728D01*
X132945148Y-75779489D01*
X132961586Y-75743122D01*
X132971894Y-75712582D01*
X132977460Y-75680450D01*
X132979669Y-75639307D01*
X132979948Y-75593222D01*
X132975861Y-75508865D01*
X132962446Y-75439586D01*
X132937256Y-75378961D01*
X132897846Y-75320567D01*
X132859298Y-75276302D01*
X132787406Y-75210484D01*
X132712313Y-75165053D01*
X132629562Y-75137850D01*
X132551928Y-75127576D01*
X132448043Y-75131571D01*
G36*
X123988493Y-77577245D02*
X123988474Y-77811662D01*
X123988448Y-78024603D01*
X123988375Y-78217168D01*
X123988218Y-78390459D01*
X123987936Y-78545576D01*
X123987491Y-78683620D01*
X123986844Y-78805692D01*
X123985955Y-78912894D01*
X123984787Y-79006326D01*
X123983299Y-79087090D01*
X123981454Y-79156286D01*
X123979211Y-79215015D01*
X123976531Y-79264379D01*
X123973377Y-79305478D01*
X123969708Y-79339413D01*
X123965487Y-79367286D01*
X123960673Y-79390198D01*
X123955227Y-79409249D01*
X123949112Y-79425540D01*
X123942288Y-79440173D01*
X123934715Y-79454249D01*
X123926355Y-79468868D01*
X123921161Y-79477974D01*
X123886896Y-79538689D01*
X124745045Y-79538689D01*
X124745045Y-79442733D01*
X124745776Y-79399370D01*
X124747728Y-79366205D01*
X124750537Y-79348424D01*
X124751779Y-79346778D01*
X124763201Y-79353662D01*
X124785916Y-79371505D01*
X124808615Y-79390879D01*
X124863200Y-79431614D01*
X124932679Y-79472617D01*
X125009730Y-79510123D01*
X125087035Y-79540364D01*
X125117887Y-79550012D01*
X125186384Y-79564578D01*
X125269236Y-79574539D01*
X125358629Y-79579583D01*
X125446752Y-79579396D01*
X125525793Y-79573666D01*
X125563489Y-79567858D01*
X125701586Y-79529797D01*
X125828887Y-79472073D01*
X125944708Y-79395211D01*
X126048363Y-79299739D01*
X126139167Y-79186179D01*
X126205969Y-79075381D01*
X126260836Y-78958625D01*
X126302837Y-78839276D01*
X126332833Y-78713283D01*
X126351689Y-78576594D01*
X126360268Y-78425158D01*
X126360994Y-78347711D01*
X126358900Y-78290934D01*
X125529783Y-78290934D01*
X125529576Y-78384002D01*
X125526663Y-78471692D01*
X125521000Y-78548772D01*
X125512545Y-78610009D01*
X125509962Y-78622350D01*
X125478160Y-78729633D01*
X125436502Y-78816658D01*
X125384637Y-78883642D01*
X125322219Y-78930805D01*
X125248900Y-78958365D01*
X125164331Y-78966541D01*
X125068165Y-78955551D01*
X125004689Y-78939829D01*
X124955546Y-78921639D01*
X124901417Y-78895791D01*
X124860756Y-78872089D01*
X124790200Y-78825721D01*
X124790200Y-77675530D01*
X124857608Y-77631962D01*
X124936133Y-77591040D01*
X125020319Y-77564389D01*
X125105443Y-77552465D01*
X125186784Y-77555722D01*
X125259620Y-77574615D01*
X125291574Y-77590184D01*
X125349499Y-77633181D01*
X125398456Y-77689953D01*
X125439610Y-77762575D01*
X125474126Y-77853121D01*
X125503167Y-77963666D01*
X125504448Y-77969533D01*
X125514619Y-78031788D01*
X125522261Y-78109594D01*
X125527330Y-78197720D01*
X125529783Y-78290934D01*
X126358900Y-78290934D01*
X126353143Y-78134895D01*
X126331198Y-77939059D01*
X126295214Y-77760332D01*
X126245241Y-77598845D01*
X126181332Y-77454726D01*
X126103538Y-77328106D01*
X126011911Y-77219115D01*
X125906503Y-77127883D01*
X125861338Y-77096932D01*
X125760389Y-77040785D01*
X125657099Y-77001174D01*
X125547011Y-76977014D01*
X125425670Y-76967219D01*
X125333164Y-76968265D01*
X125203510Y-76979231D01*
X125090916Y-77001046D01*
X124992125Y-77034714D01*
X124903879Y-77081236D01*
X124855014Y-77115448D01*
X124825647Y-77137362D01*
X124803957Y-77152333D01*
X124795747Y-77156733D01*
X124794132Y-77145904D01*
X124792841Y-77115251D01*
X124791862Y-77067526D01*
X124791183Y-77005479D01*
X124790790Y-76931862D01*
X124790670Y-76849427D01*
X124790812Y-76760925D01*
X124791203Y-76669107D01*
X124791829Y-76576724D01*
X124792680Y-76486528D01*
X124793740Y-76401271D01*
X124794999Y-76323703D01*
X124796444Y-76256576D01*
X124798062Y-76202641D01*
X124799839Y-76164650D01*
X124800331Y-76157667D01*
X124807908Y-76087251D01*
X124819469Y-76032102D01*
X124837208Y-75984981D01*
X124863318Y-75938647D01*
X124869585Y-75929067D01*
X124894017Y-75892378D01*
X123988689Y-75892378D01*
X123988493Y-77577245D01*
X123988493Y-77577245D01*
G37*
X123988493Y-77577245D02*
X123988474Y-77811662D01*
X123988448Y-78024603D01*
X123988375Y-78217168D01*
X123988218Y-78390459D01*
X123987936Y-78545576D01*
X123987491Y-78683620D01*
X123986844Y-78805692D01*
X123985955Y-78912894D01*
X123984787Y-79006326D01*
X123983299Y-79087090D01*
X123981454Y-79156286D01*
X123979211Y-79215015D01*
X123976531Y-79264379D01*
X123973377Y-79305478D01*
X123969708Y-79339413D01*
X123965487Y-79367286D01*
X123960673Y-79390198D01*
X123955227Y-79409249D01*
X123949112Y-79425540D01*
X123942288Y-79440173D01*
X123934715Y-79454249D01*
X123926355Y-79468868D01*
X123921161Y-79477974D01*
X123886896Y-79538689D01*
X124745045Y-79538689D01*
X124745045Y-79442733D01*
X124745776Y-79399370D01*
X124747728Y-79366205D01*
X124750537Y-79348424D01*
X124751779Y-79346778D01*
X124763201Y-79353662D01*
X124785916Y-79371505D01*
X124808615Y-79390879D01*
X124863200Y-79431614D01*
X124932679Y-79472617D01*
X125009730Y-79510123D01*
X125087035Y-79540364D01*
X125117887Y-79550012D01*
X125186384Y-79564578D01*
X125269236Y-79574539D01*
X125358629Y-79579583D01*
X125446752Y-79579396D01*
X125525793Y-79573666D01*
X125563489Y-79567858D01*
X125701586Y-79529797D01*
X125828887Y-79472073D01*
X125944708Y-79395211D01*
X126048363Y-79299739D01*
X126139167Y-79186179D01*
X126205969Y-79075381D01*
X126260836Y-78958625D01*
X126302837Y-78839276D01*
X126332833Y-78713283D01*
X126351689Y-78576594D01*
X126360268Y-78425158D01*
X126360994Y-78347711D01*
X126358900Y-78290934D01*
X125529783Y-78290934D01*
X125529576Y-78384002D01*
X125526663Y-78471692D01*
X125521000Y-78548772D01*
X125512545Y-78610009D01*
X125509962Y-78622350D01*
X125478160Y-78729633D01*
X125436502Y-78816658D01*
X125384637Y-78883642D01*
X125322219Y-78930805D01*
X125248900Y-78958365D01*
X125164331Y-78966541D01*
X125068165Y-78955551D01*
X125004689Y-78939829D01*
X124955546Y-78921639D01*
X124901417Y-78895791D01*
X124860756Y-78872089D01*
X124790200Y-78825721D01*
X124790200Y-77675530D01*
X124857608Y-77631962D01*
X124936133Y-77591040D01*
X125020319Y-77564389D01*
X125105443Y-77552465D01*
X125186784Y-77555722D01*
X125259620Y-77574615D01*
X125291574Y-77590184D01*
X125349499Y-77633181D01*
X125398456Y-77689953D01*
X125439610Y-77762575D01*
X125474126Y-77853121D01*
X125503167Y-77963666D01*
X125504448Y-77969533D01*
X125514619Y-78031788D01*
X125522261Y-78109594D01*
X125527330Y-78197720D01*
X125529783Y-78290934D01*
X126358900Y-78290934D01*
X126353143Y-78134895D01*
X126331198Y-77939059D01*
X126295214Y-77760332D01*
X126245241Y-77598845D01*
X126181332Y-77454726D01*
X126103538Y-77328106D01*
X126011911Y-77219115D01*
X125906503Y-77127883D01*
X125861338Y-77096932D01*
X125760389Y-77040785D01*
X125657099Y-77001174D01*
X125547011Y-76977014D01*
X125425670Y-76967219D01*
X125333164Y-76968265D01*
X125203510Y-76979231D01*
X125090916Y-77001046D01*
X124992125Y-77034714D01*
X124903879Y-77081236D01*
X124855014Y-77115448D01*
X124825647Y-77137362D01*
X124803957Y-77152333D01*
X124795747Y-77156733D01*
X124794132Y-77145904D01*
X124792841Y-77115251D01*
X124791862Y-77067526D01*
X124791183Y-77005479D01*
X124790790Y-76931862D01*
X124790670Y-76849427D01*
X124790812Y-76760925D01*
X124791203Y-76669107D01*
X124791829Y-76576724D01*
X124792680Y-76486528D01*
X124793740Y-76401271D01*
X124794999Y-76323703D01*
X124796444Y-76256576D01*
X124798062Y-76202641D01*
X124799839Y-76164650D01*
X124800331Y-76157667D01*
X124807908Y-76087251D01*
X124819469Y-76032102D01*
X124837208Y-75984981D01*
X124863318Y-75938647D01*
X124869585Y-75929067D01*
X124894017Y-75892378D01*
X123988689Y-75892378D01*
X123988493Y-77577245D01*
G36*
X127501426Y-76971552D02*
X127349508Y-76991567D01*
X127214244Y-77025202D01*
X127094761Y-77072725D01*
X126990185Y-77134405D01*
X126912576Y-77197965D01*
X126843735Y-77272099D01*
X126789994Y-77351871D01*
X126747090Y-77444091D01*
X126731616Y-77487161D01*
X126718756Y-77526142D01*
X126707554Y-77562289D01*
X126697880Y-77597434D01*
X126689604Y-77633410D01*
X126682597Y-77672050D01*
X126676728Y-77715185D01*
X126671869Y-77764649D01*
X126667890Y-77822273D01*
X126664660Y-77889891D01*
X126662051Y-77969334D01*
X126659933Y-78062436D01*
X126658176Y-78171027D01*
X126656651Y-78296942D01*
X126655228Y-78442012D01*
X126653975Y-78584778D01*
X126652649Y-78740968D01*
X126651444Y-78876239D01*
X126650234Y-78992246D01*
X126648894Y-79090645D01*
X126647300Y-79173093D01*
X126645325Y-79241246D01*
X126642844Y-79296760D01*
X126639731Y-79341292D01*
X126635862Y-79376498D01*
X126631111Y-79404034D01*
X126625352Y-79425556D01*
X126618461Y-79442722D01*
X126610311Y-79457186D01*
X126600777Y-79470606D01*
X126589734Y-79484638D01*
X126585434Y-79490071D01*
X126569614Y-79512910D01*
X126562578Y-79528463D01*
X126562556Y-79528922D01*
X126573433Y-79531121D01*
X126604418Y-79533147D01*
X126653043Y-79534942D01*
X126716837Y-79536451D01*
X126793331Y-79537616D01*
X126880056Y-79538380D01*
X126974543Y-79538686D01*
X126985450Y-79538689D01*
X127408343Y-79538689D01*
X127411605Y-79442622D01*
X127414867Y-79346556D01*
X127476956Y-79397543D01*
X127574286Y-79465057D01*
X127684187Y-79519749D01*
X127770651Y-79549978D01*
X127839722Y-79564666D01*
X127923075Y-79574659D01*
X128012841Y-79579646D01*
X128101155Y-79579313D01*
X128180149Y-79573351D01*
X128216378Y-79567638D01*
X128356397Y-79529776D01*
X128482822Y-79474932D01*
X128594740Y-79403924D01*
X128691238Y-79317568D01*
X128771400Y-79216679D01*
X128834313Y-79102076D01*
X128878688Y-78975984D01*
X128891022Y-78919401D01*
X128898632Y-78857202D01*
X128902261Y-78782363D01*
X128902755Y-78748467D01*
X128902690Y-78745282D01*
X128142752Y-78745282D01*
X128133459Y-78820333D01*
X128105272Y-78884160D01*
X128056803Y-78939798D01*
X128051746Y-78944211D01*
X128003452Y-78979037D01*
X127951743Y-79001620D01*
X127891011Y-79013540D01*
X127815648Y-79016383D01*
X127797541Y-79015978D01*
X127743722Y-79013325D01*
X127703692Y-79007909D01*
X127668676Y-78997745D01*
X127629897Y-78980850D01*
X127619255Y-78975672D01*
X127558604Y-78939844D01*
X127511785Y-78897212D01*
X127499048Y-78881973D01*
X127454378Y-78825462D01*
X127454378Y-78629586D01*
X127454914Y-78550939D01*
X127456604Y-78492988D01*
X127459572Y-78453875D01*
X127463943Y-78431741D01*
X127468028Y-78425274D01*
X127483953Y-78422111D01*
X127517736Y-78419488D01*
X127564660Y-78417655D01*
X127620007Y-78416857D01*
X127628894Y-78416842D01*
X127749670Y-78422096D01*
X127852340Y-78438263D01*
X127938894Y-78465961D01*
X128011319Y-78505808D01*
X128066249Y-78552758D01*
X128110796Y-78610645D01*
X128135520Y-78673693D01*
X128142752Y-78745282D01*
X128902690Y-78745282D01*
X128900822Y-78654712D01*
X128892478Y-78575812D01*
X128876232Y-78504590D01*
X128850595Y-78433864D01*
X128826599Y-78381493D01*
X128767980Y-78286196D01*
X128689883Y-78198170D01*
X128594685Y-78119017D01*
X128484762Y-78050340D01*
X128362490Y-77993741D01*
X128230245Y-77950821D01*
X128165578Y-77935882D01*
X128029396Y-77913777D01*
X127880951Y-77899194D01*
X127729495Y-77892813D01*
X127602936Y-77894445D01*
X127441050Y-77901224D01*
X127448470Y-77842245D01*
X127467762Y-77743092D01*
X127498896Y-77662372D01*
X127542731Y-77599466D01*
X127600129Y-77553756D01*
X127671952Y-77524622D01*
X127759059Y-77511447D01*
X127862314Y-77513611D01*
X127900289Y-77517612D01*
X128041480Y-77542780D01*
X128178293Y-77583814D01*
X128272822Y-77621815D01*
X128317982Y-77641190D01*
X128356415Y-77656760D01*
X128382766Y-77666405D01*
X128390454Y-77668452D01*
X128400198Y-77659374D01*
X128416917Y-77630405D01*
X128440768Y-77581217D01*
X128471907Y-77511484D01*
X128510493Y-77420879D01*
X128517090Y-77405089D01*
X128547147Y-77332772D01*
X128574126Y-77267425D01*
X128596864Y-77211906D01*
X128614194Y-77169072D01*
X128624952Y-77141781D01*
X128628059Y-77132942D01*
X128618060Y-77128187D01*
X128591783Y-77122910D01*
X128563511Y-77119231D01*
X128533354Y-77114474D01*
X128485567Y-77105028D01*
X128424388Y-77091820D01*
X128354054Y-77075776D01*
X128278806Y-77057820D01*
X128250245Y-77050797D01*
X128145184Y-77025209D01*
X128057520Y-77005147D01*
X127982932Y-76989969D01*
X127917097Y-76979035D01*
X127855693Y-76971704D01*
X127794398Y-76967335D01*
X127728890Y-76965287D01*
X127670872Y-76964889D01*
X127501426Y-76971552D01*
X127501426Y-76971552D01*
G37*
X127501426Y-76971552D02*
X127349508Y-76991567D01*
X127214244Y-77025202D01*
X127094761Y-77072725D01*
X126990185Y-77134405D01*
X126912576Y-77197965D01*
X126843735Y-77272099D01*
X126789994Y-77351871D01*
X126747090Y-77444091D01*
X126731616Y-77487161D01*
X126718756Y-77526142D01*
X126707554Y-77562289D01*
X126697880Y-77597434D01*
X126689604Y-77633410D01*
X126682597Y-77672050D01*
X126676728Y-77715185D01*
X126671869Y-77764649D01*
X126667890Y-77822273D01*
X126664660Y-77889891D01*
X126662051Y-77969334D01*
X126659933Y-78062436D01*
X126658176Y-78171027D01*
X126656651Y-78296942D01*
X126655228Y-78442012D01*
X126653975Y-78584778D01*
X126652649Y-78740968D01*
X126651444Y-78876239D01*
X126650234Y-78992246D01*
X126648894Y-79090645D01*
X126647300Y-79173093D01*
X126645325Y-79241246D01*
X126642844Y-79296760D01*
X126639731Y-79341292D01*
X126635862Y-79376498D01*
X126631111Y-79404034D01*
X126625352Y-79425556D01*
X126618461Y-79442722D01*
X126610311Y-79457186D01*
X126600777Y-79470606D01*
X126589734Y-79484638D01*
X126585434Y-79490071D01*
X126569614Y-79512910D01*
X126562578Y-79528463D01*
X126562556Y-79528922D01*
X126573433Y-79531121D01*
X126604418Y-79533147D01*
X126653043Y-79534942D01*
X126716837Y-79536451D01*
X126793331Y-79537616D01*
X126880056Y-79538380D01*
X126974543Y-79538686D01*
X126985450Y-79538689D01*
X127408343Y-79538689D01*
X127411605Y-79442622D01*
X127414867Y-79346556D01*
X127476956Y-79397543D01*
X127574286Y-79465057D01*
X127684187Y-79519749D01*
X127770651Y-79549978D01*
X127839722Y-79564666D01*
X127923075Y-79574659D01*
X128012841Y-79579646D01*
X128101155Y-79579313D01*
X128180149Y-79573351D01*
X128216378Y-79567638D01*
X128356397Y-79529776D01*
X128482822Y-79474932D01*
X128594740Y-79403924D01*
X128691238Y-79317568D01*
X128771400Y-79216679D01*
X128834313Y-79102076D01*
X128878688Y-78975984D01*
X128891022Y-78919401D01*
X128898632Y-78857202D01*
X128902261Y-78782363D01*
X128902755Y-78748467D01*
X128902690Y-78745282D01*
X128142752Y-78745282D01*
X128133459Y-78820333D01*
X128105272Y-78884160D01*
X128056803Y-78939798D01*
X128051746Y-78944211D01*
X128003452Y-78979037D01*
X127951743Y-79001620D01*
X127891011Y-79013540D01*
X127815648Y-79016383D01*
X127797541Y-79015978D01*
X127743722Y-79013325D01*
X127703692Y-79007909D01*
X127668676Y-78997745D01*
X127629897Y-78980850D01*
X127619255Y-78975672D01*
X127558604Y-78939844D01*
X127511785Y-78897212D01*
X127499048Y-78881973D01*
X127454378Y-78825462D01*
X127454378Y-78629586D01*
X127454914Y-78550939D01*
X127456604Y-78492988D01*
X127459572Y-78453875D01*
X127463943Y-78431741D01*
X127468028Y-78425274D01*
X127483953Y-78422111D01*
X127517736Y-78419488D01*
X127564660Y-78417655D01*
X127620007Y-78416857D01*
X127628894Y-78416842D01*
X127749670Y-78422096D01*
X127852340Y-78438263D01*
X127938894Y-78465961D01*
X128011319Y-78505808D01*
X128066249Y-78552758D01*
X128110796Y-78610645D01*
X128135520Y-78673693D01*
X128142752Y-78745282D01*
X128902690Y-78745282D01*
X128900822Y-78654712D01*
X128892478Y-78575812D01*
X128876232Y-78504590D01*
X128850595Y-78433864D01*
X128826599Y-78381493D01*
X128767980Y-78286196D01*
X128689883Y-78198170D01*
X128594685Y-78119017D01*
X128484762Y-78050340D01*
X128362490Y-77993741D01*
X128230245Y-77950821D01*
X128165578Y-77935882D01*
X128029396Y-77913777D01*
X127880951Y-77899194D01*
X127729495Y-77892813D01*
X127602936Y-77894445D01*
X127441050Y-77901224D01*
X127448470Y-77842245D01*
X127467762Y-77743092D01*
X127498896Y-77662372D01*
X127542731Y-77599466D01*
X127600129Y-77553756D01*
X127671952Y-77524622D01*
X127759059Y-77511447D01*
X127862314Y-77513611D01*
X127900289Y-77517612D01*
X128041480Y-77542780D01*
X128178293Y-77583814D01*
X128272822Y-77621815D01*
X128317982Y-77641190D01*
X128356415Y-77656760D01*
X128382766Y-77666405D01*
X128390454Y-77668452D01*
X128400198Y-77659374D01*
X128416917Y-77630405D01*
X128440768Y-77581217D01*
X128471907Y-77511484D01*
X128510493Y-77420879D01*
X128517090Y-77405089D01*
X128547147Y-77332772D01*
X128574126Y-77267425D01*
X128596864Y-77211906D01*
X128614194Y-77169072D01*
X128624952Y-77141781D01*
X128628059Y-77132942D01*
X128618060Y-77128187D01*
X128591783Y-77122910D01*
X128563511Y-77119231D01*
X128533354Y-77114474D01*
X128485567Y-77105028D01*
X128424388Y-77091820D01*
X128354054Y-77075776D01*
X128278806Y-77057820D01*
X128250245Y-77050797D01*
X128145184Y-77025209D01*
X128057520Y-77005147D01*
X127982932Y-76989969D01*
X127917097Y-76979035D01*
X127855693Y-76971704D01*
X127794398Y-76967335D01*
X127728890Y-76965287D01*
X127670872Y-76964889D01*
X127501426Y-76971552D01*
G36*
X129846571Y-76054071D02*
X129686430Y-76075245D01*
X129522490Y-76115385D01*
X129352687Y-76174889D01*
X129174957Y-76254154D01*
X129163690Y-76259699D01*
X129105995Y-76287725D01*
X129054448Y-76311802D01*
X129012809Y-76330249D01*
X128984838Y-76341386D01*
X128975267Y-76343933D01*
X128956050Y-76348941D01*
X128951439Y-76353147D01*
X128956542Y-76363580D01*
X128972582Y-76389868D01*
X128997712Y-76429257D01*
X129030086Y-76478991D01*
X129067857Y-76536315D01*
X129109178Y-76598476D01*
X129152202Y-76662718D01*
X129195083Y-76726285D01*
X129235974Y-76786425D01*
X129273029Y-76840380D01*
X129304400Y-76885397D01*
X129328241Y-76918721D01*
X129342706Y-76937597D01*
X129344691Y-76939787D01*
X129354809Y-76935138D01*
X129377150Y-76917962D01*
X129407720Y-76891440D01*
X129423464Y-76876964D01*
X129519953Y-76801682D01*
X129626664Y-76746241D01*
X129742168Y-76711141D01*
X129865038Y-76696880D01*
X129934439Y-76698051D01*
X130055577Y-76715212D01*
X130164795Y-76751094D01*
X130262418Y-76805959D01*
X130348772Y-76880070D01*
X130424185Y-76973688D01*
X130488982Y-77087076D01*
X130526399Y-77173667D01*
X130570252Y-77309366D01*
X130602572Y-77456850D01*
X130623443Y-77612314D01*
X130632949Y-77771956D01*
X130631173Y-77931973D01*
X130618197Y-78088561D01*
X130594106Y-78237918D01*
X130558982Y-78376240D01*
X130512908Y-78499724D01*
X130496627Y-78533978D01*
X130428380Y-78648064D01*
X130347921Y-78744557D01*
X130256430Y-78822670D01*
X130155089Y-78881617D01*
X130045080Y-78920612D01*
X129927585Y-78938868D01*
X129886117Y-78940211D01*
X129764559Y-78929290D01*
X129644122Y-78896474D01*
X129526334Y-78842439D01*
X129412723Y-78767865D01*
X129321315Y-78689539D01*
X129274785Y-78645008D01*
X129093517Y-78942271D01*
X129048420Y-79016433D01*
X129007181Y-79084646D01*
X128971265Y-79144459D01*
X128942134Y-79193420D01*
X128921250Y-79229079D01*
X128910076Y-79248984D01*
X128908625Y-79252079D01*
X128916854Y-79261718D01*
X128942433Y-79278999D01*
X128982127Y-79302283D01*
X129032703Y-79329934D01*
X129090926Y-79360315D01*
X129153563Y-79391790D01*
X129217379Y-79422722D01*
X129279140Y-79451473D01*
X129335612Y-79476408D01*
X129383562Y-79495889D01*
X129407014Y-79504318D01*
X129540779Y-79542133D01*
X129678673Y-79567136D01*
X129826378Y-79580140D01*
X129953167Y-79582468D01*
X130021122Y-79581373D01*
X130086723Y-79579275D01*
X130144153Y-79576434D01*
X130187597Y-79573106D01*
X130201702Y-79571422D01*
X130340716Y-79542587D01*
X130482243Y-79497468D01*
X130619725Y-79438750D01*
X130746606Y-79369120D01*
X130824111Y-79316441D01*
X130951519Y-79208239D01*
X131069822Y-79081671D01*
X131176828Y-78939866D01*
X131270348Y-78785951D01*
X131348190Y-78623053D01*
X131392044Y-78505756D01*
X131442292Y-78322128D01*
X131475791Y-78127581D01*
X131492551Y-77926325D01*
X131492584Y-77722568D01*
X131475899Y-77520521D01*
X131442507Y-77324392D01*
X131392420Y-77138391D01*
X131388603Y-77126803D01*
X131325719Y-76964750D01*
X131248972Y-76816832D01*
X131155758Y-76678865D01*
X131043473Y-76546661D01*
X130999608Y-76501399D01*
X130863466Y-76377457D01*
X130723509Y-76274915D01*
X130577589Y-76192656D01*
X130423558Y-76129564D01*
X130259268Y-76084523D01*
X130163711Y-76067033D01*
X130004977Y-76051466D01*
X129846571Y-76054071D01*
X129846571Y-76054071D01*
G37*
X129846571Y-76054071D02*
X129686430Y-76075245D01*
X129522490Y-76115385D01*
X129352687Y-76174889D01*
X129174957Y-76254154D01*
X129163690Y-76259699D01*
X129105995Y-76287725D01*
X129054448Y-76311802D01*
X129012809Y-76330249D01*
X128984838Y-76341386D01*
X128975267Y-76343933D01*
X128956050Y-76348941D01*
X128951439Y-76353147D01*
X128956542Y-76363580D01*
X128972582Y-76389868D01*
X128997712Y-76429257D01*
X129030086Y-76478991D01*
X129067857Y-76536315D01*
X129109178Y-76598476D01*
X129152202Y-76662718D01*
X129195083Y-76726285D01*
X129235974Y-76786425D01*
X129273029Y-76840380D01*
X129304400Y-76885397D01*
X129328241Y-76918721D01*
X129342706Y-76937597D01*
X129344691Y-76939787D01*
X129354809Y-76935138D01*
X129377150Y-76917962D01*
X129407720Y-76891440D01*
X129423464Y-76876964D01*
X129519953Y-76801682D01*
X129626664Y-76746241D01*
X129742168Y-76711141D01*
X129865038Y-76696880D01*
X129934439Y-76698051D01*
X130055577Y-76715212D01*
X130164795Y-76751094D01*
X130262418Y-76805959D01*
X130348772Y-76880070D01*
X130424185Y-76973688D01*
X130488982Y-77087076D01*
X130526399Y-77173667D01*
X130570252Y-77309366D01*
X130602572Y-77456850D01*
X130623443Y-77612314D01*
X130632949Y-77771956D01*
X130631173Y-77931973D01*
X130618197Y-78088561D01*
X130594106Y-78237918D01*
X130558982Y-78376240D01*
X130512908Y-78499724D01*
X130496627Y-78533978D01*
X130428380Y-78648064D01*
X130347921Y-78744557D01*
X130256430Y-78822670D01*
X130155089Y-78881617D01*
X130045080Y-78920612D01*
X129927585Y-78938868D01*
X129886117Y-78940211D01*
X129764559Y-78929290D01*
X129644122Y-78896474D01*
X129526334Y-78842439D01*
X129412723Y-78767865D01*
X129321315Y-78689539D01*
X129274785Y-78645008D01*
X129093517Y-78942271D01*
X129048420Y-79016433D01*
X129007181Y-79084646D01*
X128971265Y-79144459D01*
X128942134Y-79193420D01*
X128921250Y-79229079D01*
X128910076Y-79248984D01*
X128908625Y-79252079D01*
X128916854Y-79261718D01*
X128942433Y-79278999D01*
X128982127Y-79302283D01*
X129032703Y-79329934D01*
X129090926Y-79360315D01*
X129153563Y-79391790D01*
X129217379Y-79422722D01*
X129279140Y-79451473D01*
X129335612Y-79476408D01*
X129383562Y-79495889D01*
X129407014Y-79504318D01*
X129540779Y-79542133D01*
X129678673Y-79567136D01*
X129826378Y-79580140D01*
X129953167Y-79582468D01*
X130021122Y-79581373D01*
X130086723Y-79579275D01*
X130144153Y-79576434D01*
X130187597Y-79573106D01*
X130201702Y-79571422D01*
X130340716Y-79542587D01*
X130482243Y-79497468D01*
X130619725Y-79438750D01*
X130746606Y-79369120D01*
X130824111Y-79316441D01*
X130951519Y-79208239D01*
X131069822Y-79081671D01*
X131176828Y-78939866D01*
X131270348Y-78785951D01*
X131348190Y-78623053D01*
X131392044Y-78505756D01*
X131442292Y-78322128D01*
X131475791Y-78127581D01*
X131492551Y-77926325D01*
X131492584Y-77722568D01*
X131475899Y-77520521D01*
X131442507Y-77324392D01*
X131392420Y-77138391D01*
X131388603Y-77126803D01*
X131325719Y-76964750D01*
X131248972Y-76816832D01*
X131155758Y-76678865D01*
X131043473Y-76546661D01*
X130999608Y-76501399D01*
X130863466Y-76377457D01*
X130723509Y-76274915D01*
X130577589Y-76192656D01*
X130423558Y-76129564D01*
X130259268Y-76084523D01*
X130163711Y-76067033D01*
X130004977Y-76051466D01*
X129846571Y-76054071D01*
G36*
X133121400Y-75594054D02*
X133110535Y-75707993D01*
X133078918Y-75815616D01*
X133028015Y-75914615D01*
X132959293Y-76002684D01*
X132874219Y-76077516D01*
X132777232Y-76135384D01*
X132670964Y-76175005D01*
X132563950Y-76193573D01*
X132458300Y-76192434D01*
X132356125Y-76172930D01*
X132259534Y-76136406D01*
X132170638Y-76084205D01*
X132091546Y-76017673D01*
X132024369Y-75938152D01*
X131971217Y-75846987D01*
X131934199Y-75745523D01*
X131915427Y-75635102D01*
X131913489Y-75585206D01*
X131913489Y-75497267D01*
X131861560Y-75497267D01*
X131825253Y-75500111D01*
X131798355Y-75511911D01*
X131771249Y-75535649D01*
X131732867Y-75574031D01*
X131732867Y-77765602D01*
X131732876Y-78027739D01*
X131732908Y-78268241D01*
X131732972Y-78488048D01*
X131733076Y-78688101D01*
X131733227Y-78869344D01*
X131733434Y-79032716D01*
X131733706Y-79179160D01*
X131734050Y-79309617D01*
X131734474Y-79425029D01*
X131734987Y-79526338D01*
X131735597Y-79614484D01*
X131736312Y-79690410D01*
X131737140Y-79755057D01*
X131738089Y-79809367D01*
X131739167Y-79854280D01*
X131740383Y-79890740D01*
X131741745Y-79919687D01*
X131743261Y-79942063D01*
X131744938Y-79958809D01*
X131746786Y-79970868D01*
X131748813Y-79979180D01*
X131751025Y-79984687D01*
X131752108Y-79986537D01*
X131756271Y-79993549D01*
X131759805Y-79999996D01*
X131763635Y-80005900D01*
X131768682Y-80011286D01*
X131775871Y-80016178D01*
X131786123Y-80020598D01*
X131800364Y-80024572D01*
X131819514Y-80028121D01*
X131844499Y-80031270D01*
X131876240Y-80034042D01*
X131915662Y-80036461D01*
X131963686Y-80038551D01*
X132021237Y-80040335D01*
X132089237Y-80041837D01*
X132168610Y-80043080D01*
X132260279Y-80044089D01*
X132365166Y-80044885D01*
X132484196Y-80045494D01*
X132618290Y-80045939D01*
X132768373Y-80046243D01*
X132935367Y-80046430D01*
X133120196Y-80046524D01*
X133323783Y-80046548D01*
X133547050Y-80046525D01*
X133790922Y-80046480D01*
X134056321Y-80046437D01*
X134094704Y-80046432D01*
X134361682Y-80046389D01*
X134607002Y-80046318D01*
X134831583Y-80046213D01*
X135036345Y-80046066D01*
X135222206Y-80045869D01*
X135390088Y-80045616D01*
X135540908Y-80045300D01*
X135675587Y-80044913D01*
X135795044Y-80044447D01*
X135900199Y-80043897D01*
X135991971Y-80043253D01*
X136071279Y-80042511D01*
X136139043Y-80041661D01*
X136196182Y-80040697D01*
X136243617Y-80039611D01*
X136282266Y-80038397D01*
X136313049Y-80037047D01*
X136336885Y-80035555D01*
X136354694Y-80033911D01*
X136367395Y-80032111D01*
X136375908Y-80030145D01*
X136380266Y-80028477D01*
X136388728Y-80024906D01*
X136396497Y-80022270D01*
X136403602Y-80019634D01*
X136410073Y-80016062D01*
X136415939Y-80010621D01*
X136421229Y-80002375D01*
X136425974Y-79990390D01*
X136430202Y-79973731D01*
X136433943Y-79951463D01*
X136437227Y-79922652D01*
X136440083Y-79886363D01*
X136442540Y-79841661D01*
X136444629Y-79787611D01*
X136446378Y-79723279D01*
X136447817Y-79647730D01*
X136448976Y-79560030D01*
X136449883Y-79459243D01*
X136450569Y-79344434D01*
X136451063Y-79214670D01*
X136451395Y-79069015D01*
X136451593Y-78906535D01*
X136451687Y-78726295D01*
X136451708Y-78527360D01*
X136451685Y-78308796D01*
X136451646Y-78069668D01*
X136451622Y-77809040D01*
X136451622Y-77766889D01*
X136451636Y-77503992D01*
X136451661Y-77262732D01*
X136451671Y-77042165D01*
X136451642Y-76841352D01*
X136451548Y-76659349D01*
X136451362Y-76495216D01*
X136451059Y-76348011D01*
X136450614Y-76216792D01*
X136450034Y-76106867D01*
X136147197Y-76106867D01*
X136107407Y-76164711D01*
X136096236Y-76180479D01*
X136086166Y-76194441D01*
X136077138Y-76207784D01*
X136069097Y-76221693D01*
X136061986Y-76237356D01*
X136055747Y-76255958D01*
X136050325Y-76278686D01*
X136045662Y-76306727D01*
X136041701Y-76341267D01*
X136038385Y-76383492D01*
X136035659Y-76434589D01*
X136033464Y-76495744D01*
X136031745Y-76568144D01*
X136030444Y-76652975D01*
X136029505Y-76751422D01*
X136028870Y-76864674D01*
X136028484Y-76993916D01*
X136028288Y-77140334D01*
X136028227Y-77305116D01*
X136028243Y-77489447D01*
X136028280Y-77694513D01*
X136028289Y-77817133D01*
X136028265Y-78034082D01*
X136028231Y-78229642D01*
X136028243Y-78404999D01*
X136028358Y-78561341D01*
X136028630Y-78699857D01*
X136029118Y-78821734D01*
X136029876Y-78928160D01*
X136030962Y-79020322D01*
X136032431Y-79099409D01*
X136034340Y-79166608D01*
X136036744Y-79223107D01*
X136039701Y-79270093D01*
X136043266Y-79308755D01*
X136047495Y-79340280D01*
X136052446Y-79365855D01*
X136058173Y-79386670D01*
X136064733Y-79403911D01*
X136072183Y-79418765D01*
X136080579Y-79432422D01*
X136089976Y-79446069D01*
X136100432Y-79460893D01*
X136106523Y-79469783D01*
X136145296Y-79527400D01*
X135613732Y-79527400D01*
X135490483Y-79527365D01*
X135387987Y-79527215D01*
X135304420Y-79526878D01*
X135237956Y-79526286D01*
X135186771Y-79525367D01*
X135149041Y-79524051D01*
X135122940Y-79522269D01*
X135106644Y-79519951D01*
X135098328Y-79517026D01*
X135096168Y-79513424D01*
X135098339Y-79509075D01*
X135099535Y-79507645D01*
X135124685Y-79470573D01*
X135150583Y-79417772D01*
X135174192Y-79355770D01*
X135182461Y-79329357D01*
X135187078Y-79311416D01*
X135190979Y-79290355D01*
X135194248Y-79264089D01*
X135196966Y-79230532D01*
X135199215Y-79187599D01*
X135201077Y-79133204D01*
X135202636Y-79065262D01*
X135203972Y-78981688D01*
X135205169Y-78880395D01*
X135206308Y-78759300D01*
X135206685Y-78714600D01*
X135207702Y-78589449D01*
X135208460Y-78485082D01*
X135208903Y-78399707D01*
X135208970Y-78331533D01*
X135208605Y-78278765D01*
X135207748Y-78239614D01*
X135206341Y-78212285D01*
X135204325Y-78194986D01*
X135201643Y-78185926D01*
X135198236Y-78183312D01*
X135194044Y-78185351D01*
X135189571Y-78189667D01*
X135179216Y-78202602D01*
X135157158Y-78231676D01*
X135124957Y-78274759D01*
X135084174Y-78329718D01*
X135036370Y-78394423D01*
X134983105Y-78466742D01*
X134925940Y-78544544D01*
X134866437Y-78625698D01*
X134806155Y-78708072D01*
X134746655Y-78789536D01*
X134689498Y-78867957D01*
X134636245Y-78941204D01*
X134588457Y-79007147D01*
X134547693Y-79063654D01*
X134515516Y-79108593D01*
X134493485Y-79139834D01*
X134488917Y-79146466D01*
X134465996Y-79183369D01*
X134439188Y-79231359D01*
X134413789Y-79280897D01*
X134410568Y-79287577D01*
X134388890Y-79335772D01*
X134376304Y-79373334D01*
X134370574Y-79409160D01*
X134369456Y-79451200D01*
X134370090Y-79527400D01*
X133215651Y-79527400D01*
X133306815Y-79433669D01*
X133353612Y-79383775D01*
X133403899Y-79327295D01*
X133449944Y-79273026D01*
X133470369Y-79247673D01*
X133500807Y-79208128D01*
X133540862Y-79154916D01*
X133589361Y-79089667D01*
X133645135Y-79014011D01*
X133707011Y-78929577D01*
X133773819Y-78837994D01*
X133844387Y-78740892D01*
X133917545Y-78639901D01*
X133992121Y-78536650D01*
X134066944Y-78432768D01*
X134140843Y-78329885D01*
X134212646Y-78229631D01*
X134281184Y-78133636D01*
X134345284Y-78043527D01*
X134403775Y-77960936D01*
X134455486Y-77887492D01*
X134499247Y-77824824D01*
X134533885Y-77774561D01*
X134558230Y-77738334D01*
X134571111Y-77717771D01*
X134572869Y-77713668D01*
X134564910Y-77702342D01*
X134544115Y-77675162D01*
X134511847Y-77633829D01*
X134469470Y-77580044D01*
X134418347Y-77515506D01*
X134359841Y-77441918D01*
X134295314Y-77360978D01*
X134226131Y-77274388D01*
X134153653Y-77183848D01*
X134079246Y-77091060D01*
X134019517Y-77016702D01*
X133008511Y-77016702D01*
X133002602Y-77029659D01*
X132988272Y-77051908D01*
X132987225Y-77053391D01*
X132968438Y-77083544D01*
X132948791Y-77120375D01*
X132944892Y-77128511D01*
X132941356Y-77136940D01*
X132938230Y-77147059D01*
X132935486Y-77160260D01*
X132933092Y-77177938D01*
X132931019Y-77201484D01*
X132929235Y-77232293D01*
X132927712Y-77271757D01*
X132926419Y-77321269D01*
X132925326Y-77382223D01*
X132924403Y-77456011D01*
X132923619Y-77544028D01*
X132922945Y-77647665D01*
X132922350Y-77768316D01*
X132921805Y-77907374D01*
X132921279Y-78066232D01*
X132920745Y-78245089D01*
X132920206Y-78430207D01*
X132919772Y-78594145D01*
X132919509Y-78738303D01*
X132919484Y-78864079D01*
X132919765Y-78972871D01*
X132920419Y-79066077D01*
X132921514Y-79145097D01*
X132923118Y-79211328D01*
X132925297Y-79266170D01*
X132928119Y-79311021D01*
X132931651Y-79347278D01*
X132935961Y-79376341D01*
X132941117Y-79399609D01*
X132947185Y-79418479D01*
X132954233Y-79434351D01*
X132962329Y-79448622D01*
X132971540Y-79462691D01*
X132980040Y-79475158D01*
X132997176Y-79501452D01*
X133007322Y-79519037D01*
X133008511Y-79522257D01*
X132997604Y-79523334D01*
X132966411Y-79524335D01*
X132917223Y-79525235D01*
X132852333Y-79526010D01*
X132774030Y-79526637D01*
X132684607Y-79527091D01*
X132586356Y-79527349D01*
X132517445Y-79527400D01*
X132412452Y-79527180D01*
X132315610Y-79526548D01*
X132229107Y-79525549D01*
X132155132Y-79524227D01*
X132095874Y-79522626D01*
X132053520Y-79520791D01*
X132030260Y-79518765D01*
X132026378Y-79517493D01*
X132034076Y-79502591D01*
X132042074Y-79494560D01*
X132055246Y-79477434D01*
X132072485Y-79447183D01*
X132084407Y-79422622D01*
X132111045Y-79363711D01*
X132114120Y-78186845D01*
X132117195Y-77009978D01*
X132562853Y-77009978D01*
X132660670Y-77010142D01*
X132751064Y-77010611D01*
X132831630Y-77011347D01*
X132899962Y-77012316D01*
X132953656Y-77013480D01*
X132990305Y-77014803D01*
X133007504Y-77016249D01*
X133008511Y-77016702D01*
X134019517Y-77016702D01*
X134004270Y-76997722D01*
X133930090Y-76905537D01*
X133858069Y-76816204D01*
X133789569Y-76731424D01*
X133725955Y-76652898D01*
X133668588Y-76582326D01*
X133618833Y-76521409D01*
X133578052Y-76471847D01*
X133560888Y-76451178D01*
X133474596Y-76350516D01*
X133397997Y-76267259D01*
X133329183Y-76199438D01*
X133266248Y-76145089D01*
X133256867Y-76137722D01*
X133217356Y-76107117D01*
X134349116Y-76106867D01*
X134343827Y-76154844D01*
X134347130Y-76212188D01*
X134368661Y-76280463D01*
X134408635Y-76360212D01*
X134453943Y-76432495D01*
X134470161Y-76455140D01*
X134498214Y-76492696D01*
X134536430Y-76543021D01*
X134583137Y-76603973D01*
X134636661Y-76673411D01*
X134695331Y-76749194D01*
X134757475Y-76829180D01*
X134821421Y-76911228D01*
X134885495Y-76993196D01*
X134948027Y-77072943D01*
X135007343Y-77148327D01*
X135061771Y-77217207D01*
X135109639Y-77277442D01*
X135149275Y-77326889D01*
X135179006Y-77363408D01*
X135197161Y-77384858D01*
X135200220Y-77388156D01*
X135203079Y-77380149D01*
X135205293Y-77349855D01*
X135206857Y-77297556D01*
X135207767Y-77223531D01*
X135208020Y-77128063D01*
X135207613Y-77011434D01*
X135206704Y-76891445D01*
X135205382Y-76759333D01*
X135203857Y-76647594D01*
X135201881Y-76554025D01*
X135199206Y-76476419D01*
X135195582Y-76412574D01*
X135190761Y-76360283D01*
X135184494Y-76317344D01*
X135176532Y-76281551D01*
X135166627Y-76250700D01*
X135154531Y-76222586D01*
X135139993Y-76195005D01*
X135125311Y-76169966D01*
X135087314Y-76106867D01*
X136147197Y-76106867D01*
X136450034Y-76106867D01*
X136450001Y-76100617D01*
X136449195Y-75998544D01*
X136448170Y-75909633D01*
X136446900Y-75832941D01*
X136445360Y-75767527D01*
X136443524Y-75712449D01*
X136441367Y-75666765D01*
X136438863Y-75629534D01*
X136435987Y-75599813D01*
X136432713Y-75576662D01*
X136429015Y-75559139D01*
X136424869Y-75546301D01*
X136420247Y-75537208D01*
X136415126Y-75530918D01*
X136409478Y-75526488D01*
X136403279Y-75522978D01*
X136396504Y-75519445D01*
X136390508Y-75515876D01*
X136385275Y-75513300D01*
X136377099Y-75510972D01*
X136364886Y-75508878D01*
X136347541Y-75507007D01*
X136323969Y-75505347D01*
X136293077Y-75503884D01*
X136253768Y-75502608D01*
X136204950Y-75501504D01*
X136145527Y-75500561D01*
X136074404Y-75499767D01*
X135990488Y-75499109D01*
X135892683Y-75498575D01*
X135779894Y-75498153D01*
X135651029Y-75497829D01*
X135504991Y-75497592D01*
X135340686Y-75497430D01*
X135157020Y-75497330D01*
X134952897Y-75497280D01*
X134741753Y-75497267D01*
X133121400Y-75497267D01*
X133121400Y-75594054D01*
X133121400Y-75594054D01*
G37*
X133121400Y-75594054D02*
X133110535Y-75707993D01*
X133078918Y-75815616D01*
X133028015Y-75914615D01*
X132959293Y-76002684D01*
X132874219Y-76077516D01*
X132777232Y-76135384D01*
X132670964Y-76175005D01*
X132563950Y-76193573D01*
X132458300Y-76192434D01*
X132356125Y-76172930D01*
X132259534Y-76136406D01*
X132170638Y-76084205D01*
X132091546Y-76017673D01*
X132024369Y-75938152D01*
X131971217Y-75846987D01*
X131934199Y-75745523D01*
X131915427Y-75635102D01*
X131913489Y-75585206D01*
X131913489Y-75497267D01*
X131861560Y-75497267D01*
X131825253Y-75500111D01*
X131798355Y-75511911D01*
X131771249Y-75535649D01*
X131732867Y-75574031D01*
X131732867Y-77765602D01*
X131732876Y-78027739D01*
X131732908Y-78268241D01*
X131732972Y-78488048D01*
X131733076Y-78688101D01*
X131733227Y-78869344D01*
X131733434Y-79032716D01*
X131733706Y-79179160D01*
X131734050Y-79309617D01*
X131734474Y-79425029D01*
X131734987Y-79526338D01*
X131735597Y-79614484D01*
X131736312Y-79690410D01*
X131737140Y-79755057D01*
X131738089Y-79809367D01*
X131739167Y-79854280D01*
X131740383Y-79890740D01*
X131741745Y-79919687D01*
X131743261Y-79942063D01*
X131744938Y-79958809D01*
X131746786Y-79970868D01*
X131748813Y-79979180D01*
X131751025Y-79984687D01*
X131752108Y-79986537D01*
X131756271Y-79993549D01*
X131759805Y-79999996D01*
X131763635Y-80005900D01*
X131768682Y-80011286D01*
X131775871Y-80016178D01*
X131786123Y-80020598D01*
X131800364Y-80024572D01*
X131819514Y-80028121D01*
X131844499Y-80031270D01*
X131876240Y-80034042D01*
X131915662Y-80036461D01*
X131963686Y-80038551D01*
X132021237Y-80040335D01*
X132089237Y-80041837D01*
X132168610Y-80043080D01*
X132260279Y-80044089D01*
X132365166Y-80044885D01*
X132484196Y-80045494D01*
X132618290Y-80045939D01*
X132768373Y-80046243D01*
X132935367Y-80046430D01*
X133120196Y-80046524D01*
X133323783Y-80046548D01*
X133547050Y-80046525D01*
X133790922Y-80046480D01*
X134056321Y-80046437D01*
X134094704Y-80046432D01*
X134361682Y-80046389D01*
X134607002Y-80046318D01*
X134831583Y-80046213D01*
X135036345Y-80046066D01*
X135222206Y-80045869D01*
X135390088Y-80045616D01*
X135540908Y-80045300D01*
X135675587Y-80044913D01*
X135795044Y-80044447D01*
X135900199Y-80043897D01*
X135991971Y-80043253D01*
X136071279Y-80042511D01*
X136139043Y-80041661D01*
X136196182Y-80040697D01*
X136243617Y-80039611D01*
X136282266Y-80038397D01*
X136313049Y-80037047D01*
X136336885Y-80035555D01*
X136354694Y-80033911D01*
X136367395Y-80032111D01*
X136375908Y-80030145D01*
X136380266Y-80028477D01*
X136388728Y-80024906D01*
X136396497Y-80022270D01*
X136403602Y-80019634D01*
X136410073Y-80016062D01*
X136415939Y-80010621D01*
X136421229Y-80002375D01*
X136425974Y-79990390D01*
X136430202Y-79973731D01*
X136433943Y-79951463D01*
X136437227Y-79922652D01*
X136440083Y-79886363D01*
X136442540Y-79841661D01*
X136444629Y-79787611D01*
X136446378Y-79723279D01*
X136447817Y-79647730D01*
X136448976Y-79560030D01*
X136449883Y-79459243D01*
X136450569Y-79344434D01*
X136451063Y-79214670D01*
X136451395Y-79069015D01*
X136451593Y-78906535D01*
X136451687Y-78726295D01*
X136451708Y-78527360D01*
X136451685Y-78308796D01*
X136451646Y-78069668D01*
X136451622Y-77809040D01*
X136451622Y-77766889D01*
X136451636Y-77503992D01*
X136451661Y-77262732D01*
X136451671Y-77042165D01*
X136451642Y-76841352D01*
X136451548Y-76659349D01*
X136451362Y-76495216D01*
X136451059Y-76348011D01*
X136450614Y-76216792D01*
X136450034Y-76106867D01*
X136147197Y-76106867D01*
X136107407Y-76164711D01*
X136096236Y-76180479D01*
X136086166Y-76194441D01*
X136077138Y-76207784D01*
X136069097Y-76221693D01*
X136061986Y-76237356D01*
X136055747Y-76255958D01*
X136050325Y-76278686D01*
X136045662Y-76306727D01*
X136041701Y-76341267D01*
X136038385Y-76383492D01*
X136035659Y-76434589D01*
X136033464Y-76495744D01*
X136031745Y-76568144D01*
X136030444Y-76652975D01*
X136029505Y-76751422D01*
X136028870Y-76864674D01*
X136028484Y-76993916D01*
X136028288Y-77140334D01*
X136028227Y-77305116D01*
X136028243Y-77489447D01*
X136028280Y-77694513D01*
X136028289Y-77817133D01*
X136028265Y-78034082D01*
X136028231Y-78229642D01*
X136028243Y-78404999D01*
X136028358Y-78561341D01*
X136028630Y-78699857D01*
X136029118Y-78821734D01*
X136029876Y-78928160D01*
X136030962Y-79020322D01*
X136032431Y-79099409D01*
X136034340Y-79166608D01*
X136036744Y-79223107D01*
X136039701Y-79270093D01*
X136043266Y-79308755D01*
X136047495Y-79340280D01*
X136052446Y-79365855D01*
X136058173Y-79386670D01*
X136064733Y-79403911D01*
X136072183Y-79418765D01*
X136080579Y-79432422D01*
X136089976Y-79446069D01*
X136100432Y-79460893D01*
X136106523Y-79469783D01*
X136145296Y-79527400D01*
X135613732Y-79527400D01*
X135490483Y-79527365D01*
X135387987Y-79527215D01*
X135304420Y-79526878D01*
X135237956Y-79526286D01*
X135186771Y-79525367D01*
X135149041Y-79524051D01*
X135122940Y-79522269D01*
X135106644Y-79519951D01*
X135098328Y-79517026D01*
X135096168Y-79513424D01*
X135098339Y-79509075D01*
X135099535Y-79507645D01*
X135124685Y-79470573D01*
X135150583Y-79417772D01*
X135174192Y-79355770D01*
X135182461Y-79329357D01*
X135187078Y-79311416D01*
X135190979Y-79290355D01*
X135194248Y-79264089D01*
X135196966Y-79230532D01*
X135199215Y-79187599D01*
X135201077Y-79133204D01*
X135202636Y-79065262D01*
X135203972Y-78981688D01*
X135205169Y-78880395D01*
X135206308Y-78759300D01*
X135206685Y-78714600D01*
X135207702Y-78589449D01*
X135208460Y-78485082D01*
X135208903Y-78399707D01*
X135208970Y-78331533D01*
X135208605Y-78278765D01*
X135207748Y-78239614D01*
X135206341Y-78212285D01*
X135204325Y-78194986D01*
X135201643Y-78185926D01*
X135198236Y-78183312D01*
X135194044Y-78185351D01*
X135189571Y-78189667D01*
X135179216Y-78202602D01*
X135157158Y-78231676D01*
X135124957Y-78274759D01*
X135084174Y-78329718D01*
X135036370Y-78394423D01*
X134983105Y-78466742D01*
X134925940Y-78544544D01*
X134866437Y-78625698D01*
X134806155Y-78708072D01*
X134746655Y-78789536D01*
X134689498Y-78867957D01*
X134636245Y-78941204D01*
X134588457Y-79007147D01*
X134547693Y-79063654D01*
X134515516Y-79108593D01*
X134493485Y-79139834D01*
X134488917Y-79146466D01*
X134465996Y-79183369D01*
X134439188Y-79231359D01*
X134413789Y-79280897D01*
X134410568Y-79287577D01*
X134388890Y-79335772D01*
X134376304Y-79373334D01*
X134370574Y-79409160D01*
X134369456Y-79451200D01*
X134370090Y-79527400D01*
X133215651Y-79527400D01*
X133306815Y-79433669D01*
X133353612Y-79383775D01*
X133403899Y-79327295D01*
X133449944Y-79273026D01*
X133470369Y-79247673D01*
X133500807Y-79208128D01*
X133540862Y-79154916D01*
X133589361Y-79089667D01*
X133645135Y-79014011D01*
X133707011Y-78929577D01*
X133773819Y-78837994D01*
X133844387Y-78740892D01*
X133917545Y-78639901D01*
X133992121Y-78536650D01*
X134066944Y-78432768D01*
X134140843Y-78329885D01*
X134212646Y-78229631D01*
X134281184Y-78133636D01*
X134345284Y-78043527D01*
X134403775Y-77960936D01*
X134455486Y-77887492D01*
X134499247Y-77824824D01*
X134533885Y-77774561D01*
X134558230Y-77738334D01*
X134571111Y-77717771D01*
X134572869Y-77713668D01*
X134564910Y-77702342D01*
X134544115Y-77675162D01*
X134511847Y-77633829D01*
X134469470Y-77580044D01*
X134418347Y-77515506D01*
X134359841Y-77441918D01*
X134295314Y-77360978D01*
X134226131Y-77274388D01*
X134153653Y-77183848D01*
X134079246Y-77091060D01*
X134019517Y-77016702D01*
X133008511Y-77016702D01*
X133002602Y-77029659D01*
X132988272Y-77051908D01*
X132987225Y-77053391D01*
X132968438Y-77083544D01*
X132948791Y-77120375D01*
X132944892Y-77128511D01*
X132941356Y-77136940D01*
X132938230Y-77147059D01*
X132935486Y-77160260D01*
X132933092Y-77177938D01*
X132931019Y-77201484D01*
X132929235Y-77232293D01*
X132927712Y-77271757D01*
X132926419Y-77321269D01*
X132925326Y-77382223D01*
X132924403Y-77456011D01*
X132923619Y-77544028D01*
X132922945Y-77647665D01*
X132922350Y-77768316D01*
X132921805Y-77907374D01*
X132921279Y-78066232D01*
X132920745Y-78245089D01*
X132920206Y-78430207D01*
X132919772Y-78594145D01*
X132919509Y-78738303D01*
X132919484Y-78864079D01*
X132919765Y-78972871D01*
X132920419Y-79066077D01*
X132921514Y-79145097D01*
X132923118Y-79211328D01*
X132925297Y-79266170D01*
X132928119Y-79311021D01*
X132931651Y-79347278D01*
X132935961Y-79376341D01*
X132941117Y-79399609D01*
X132947185Y-79418479D01*
X132954233Y-79434351D01*
X132962329Y-79448622D01*
X132971540Y-79462691D01*
X132980040Y-79475158D01*
X132997176Y-79501452D01*
X133007322Y-79519037D01*
X133008511Y-79522257D01*
X132997604Y-79523334D01*
X132966411Y-79524335D01*
X132917223Y-79525235D01*
X132852333Y-79526010D01*
X132774030Y-79526637D01*
X132684607Y-79527091D01*
X132586356Y-79527349D01*
X132517445Y-79527400D01*
X132412452Y-79527180D01*
X132315610Y-79526548D01*
X132229107Y-79525549D01*
X132155132Y-79524227D01*
X132095874Y-79522626D01*
X132053520Y-79520791D01*
X132030260Y-79518765D01*
X132026378Y-79517493D01*
X132034076Y-79502591D01*
X132042074Y-79494560D01*
X132055246Y-79477434D01*
X132072485Y-79447183D01*
X132084407Y-79422622D01*
X132111045Y-79363711D01*
X132114120Y-78186845D01*
X132117195Y-77009978D01*
X132562853Y-77009978D01*
X132660670Y-77010142D01*
X132751064Y-77010611D01*
X132831630Y-77011347D01*
X132899962Y-77012316D01*
X132953656Y-77013480D01*
X132990305Y-77014803D01*
X133007504Y-77016249D01*
X133008511Y-77016702D01*
X134019517Y-77016702D01*
X134004270Y-76997722D01*
X133930090Y-76905537D01*
X133858069Y-76816204D01*
X133789569Y-76731424D01*
X133725955Y-76652898D01*
X133668588Y-76582326D01*
X133618833Y-76521409D01*
X133578052Y-76471847D01*
X133560888Y-76451178D01*
X133474596Y-76350516D01*
X133397997Y-76267259D01*
X133329183Y-76199438D01*
X133266248Y-76145089D01*
X133256867Y-76137722D01*
X133217356Y-76107117D01*
X134349116Y-76106867D01*
X134343827Y-76154844D01*
X134347130Y-76212188D01*
X134368661Y-76280463D01*
X134408635Y-76360212D01*
X134453943Y-76432495D01*
X134470161Y-76455140D01*
X134498214Y-76492696D01*
X134536430Y-76543021D01*
X134583137Y-76603973D01*
X134636661Y-76673411D01*
X134695331Y-76749194D01*
X134757475Y-76829180D01*
X134821421Y-76911228D01*
X134885495Y-76993196D01*
X134948027Y-77072943D01*
X135007343Y-77148327D01*
X135061771Y-77217207D01*
X135109639Y-77277442D01*
X135149275Y-77326889D01*
X135179006Y-77363408D01*
X135197161Y-77384858D01*
X135200220Y-77388156D01*
X135203079Y-77380149D01*
X135205293Y-77349855D01*
X135206857Y-77297556D01*
X135207767Y-77223531D01*
X135208020Y-77128063D01*
X135207613Y-77011434D01*
X135206704Y-76891445D01*
X135205382Y-76759333D01*
X135203857Y-76647594D01*
X135201881Y-76554025D01*
X135199206Y-76476419D01*
X135195582Y-76412574D01*
X135190761Y-76360283D01*
X135184494Y-76317344D01*
X135176532Y-76281551D01*
X135166627Y-76250700D01*
X135154531Y-76222586D01*
X135139993Y-76195005D01*
X135125311Y-76169966D01*
X135087314Y-76106867D01*
X136147197Y-76106867D01*
X136450034Y-76106867D01*
X136450001Y-76100617D01*
X136449195Y-75998544D01*
X136448170Y-75909633D01*
X136446900Y-75832941D01*
X136445360Y-75767527D01*
X136443524Y-75712449D01*
X136441367Y-75666765D01*
X136438863Y-75629534D01*
X136435987Y-75599813D01*
X136432713Y-75576662D01*
X136429015Y-75559139D01*
X136424869Y-75546301D01*
X136420247Y-75537208D01*
X136415126Y-75530918D01*
X136409478Y-75526488D01*
X136403279Y-75522978D01*
X136396504Y-75519445D01*
X136390508Y-75515876D01*
X136385275Y-75513300D01*
X136377099Y-75510972D01*
X136364886Y-75508878D01*
X136347541Y-75507007D01*
X136323969Y-75505347D01*
X136293077Y-75503884D01*
X136253768Y-75502608D01*
X136204950Y-75501504D01*
X136145527Y-75500561D01*
X136074404Y-75499767D01*
X135990488Y-75499109D01*
X135892683Y-75498575D01*
X135779894Y-75498153D01*
X135651029Y-75497829D01*
X135504991Y-75497592D01*
X135340686Y-75497430D01*
X135157020Y-75497330D01*
X134952897Y-75497280D01*
X134741753Y-75497267D01*
X133121400Y-75497267D01*
X133121400Y-75594054D01*
G36*
X123946177Y-80379533D02*
X123914798Y-80401776D01*
X123887089Y-80429485D01*
X123887089Y-80738920D01*
X123887162Y-80830799D01*
X123887505Y-80902840D01*
X123888308Y-80957780D01*
X123889759Y-80998360D01*
X123892048Y-81027317D01*
X123895364Y-81047391D01*
X123899895Y-81061321D01*
X123905831Y-81071845D01*
X123910486Y-81078100D01*
X123941217Y-81102673D01*
X123976504Y-81105341D01*
X124008755Y-81090271D01*
X124019412Y-81081374D01*
X124026536Y-81069557D01*
X124030833Y-81050526D01*
X124033009Y-81019992D01*
X124033772Y-80973662D01*
X124033845Y-80937871D01*
X124033845Y-80803045D01*
X124530556Y-80803045D01*
X124530556Y-80925700D01*
X124531069Y-80981787D01*
X124533124Y-81020333D01*
X124537492Y-81046361D01*
X124544944Y-81064897D01*
X124553953Y-81078100D01*
X124584856Y-81102604D01*
X124619804Y-81105506D01*
X124653262Y-81088089D01*
X124662396Y-81078959D01*
X124668848Y-81066855D01*
X124673103Y-81048001D01*
X124675648Y-81018620D01*
X124676971Y-80974937D01*
X124677557Y-80913175D01*
X124677625Y-80899000D01*
X124678109Y-80782631D01*
X124678359Y-80686727D01*
X124678277Y-80609177D01*
X124677769Y-80547869D01*
X124676738Y-80500690D01*
X124675087Y-80465530D01*
X124672721Y-80440276D01*
X124669543Y-80422817D01*
X124665456Y-80411041D01*
X124660366Y-80402835D01*
X124654734Y-80396645D01*
X124622872Y-80376844D01*
X124589643Y-80379533D01*
X124558265Y-80401776D01*
X124545567Y-80416126D01*
X124537474Y-80431978D01*
X124532958Y-80454554D01*
X124530994Y-80489078D01*
X124530556Y-80540776D01*
X124530556Y-80656289D01*
X124033845Y-80656289D01*
X124033845Y-80537756D01*
X124033338Y-80483148D01*
X124031302Y-80446275D01*
X124026965Y-80422307D01*
X124019553Y-80406415D01*
X124011267Y-80396645D01*
X123979406Y-80376844D01*
X123946177Y-80379533D01*
X123946177Y-80379533D01*
G37*
X123946177Y-80379533D02*
X123914798Y-80401776D01*
X123887089Y-80429485D01*
X123887089Y-80738920D01*
X123887162Y-80830799D01*
X123887505Y-80902840D01*
X123888308Y-80957780D01*
X123889759Y-80998360D01*
X123892048Y-81027317D01*
X123895364Y-81047391D01*
X123899895Y-81061321D01*
X123905831Y-81071845D01*
X123910486Y-81078100D01*
X123941217Y-81102673D01*
X123976504Y-81105341D01*
X124008755Y-81090271D01*
X124019412Y-81081374D01*
X124026536Y-81069557D01*
X124030833Y-81050526D01*
X124033009Y-81019992D01*
X124033772Y-80973662D01*
X124033845Y-80937871D01*
X124033845Y-80803045D01*
X124530556Y-80803045D01*
X124530556Y-80925700D01*
X124531069Y-80981787D01*
X124533124Y-81020333D01*
X124537492Y-81046361D01*
X124544944Y-81064897D01*
X124553953Y-81078100D01*
X124584856Y-81102604D01*
X124619804Y-81105506D01*
X124653262Y-81088089D01*
X124662396Y-81078959D01*
X124668848Y-81066855D01*
X124673103Y-81048001D01*
X124675648Y-81018620D01*
X124676971Y-80974937D01*
X124677557Y-80913175D01*
X124677625Y-80899000D01*
X124678109Y-80782631D01*
X124678359Y-80686727D01*
X124678277Y-80609177D01*
X124677769Y-80547869D01*
X124676738Y-80500690D01*
X124675087Y-80465530D01*
X124672721Y-80440276D01*
X124669543Y-80422817D01*
X124665456Y-80411041D01*
X124660366Y-80402835D01*
X124654734Y-80396645D01*
X124622872Y-80376844D01*
X124589643Y-80379533D01*
X124558265Y-80401776D01*
X124545567Y-80416126D01*
X124537474Y-80431978D01*
X124532958Y-80454554D01*
X124530994Y-80489078D01*
X124530556Y-80540776D01*
X124530556Y-80656289D01*
X124033845Y-80656289D01*
X124033845Y-80537756D01*
X124033338Y-80483148D01*
X124031302Y-80446275D01*
X124026965Y-80422307D01*
X124019553Y-80406415D01*
X124011267Y-80396645D01*
X123979406Y-80376844D01*
X123946177Y-80379533D01*
G36*
X125211935Y-80374163D02*
X125133228Y-80374542D01*
X125072137Y-80375333D01*
X125026183Y-80376670D01*
X124992886Y-80378683D01*
X124969764Y-80381506D01*
X124954338Y-80385269D01*
X124944129Y-80390105D01*
X124939187Y-80393822D01*
X124913543Y-80426358D01*
X124910441Y-80460138D01*
X124926289Y-80490826D01*
X124936652Y-80503089D01*
X124947804Y-80511450D01*
X124963965Y-80516657D01*
X124989358Y-80519457D01*
X125028202Y-80520596D01*
X125084720Y-80520821D01*
X125095820Y-80520822D01*
X125241756Y-80520822D01*
X125241756Y-80791756D01*
X125241852Y-80877154D01*
X125242289Y-80942864D01*
X125243288Y-80991774D01*
X125245072Y-81026773D01*
X125247863Y-81050749D01*
X125251883Y-81066593D01*
X125257355Y-81077191D01*
X125264334Y-81085267D01*
X125297266Y-81105112D01*
X125331646Y-81103548D01*
X125362824Y-81080906D01*
X125365114Y-81078100D01*
X125372571Y-81067492D01*
X125378253Y-81055081D01*
X125382399Y-81037850D01*
X125385250Y-81012784D01*
X125387046Y-80976867D01*
X125388028Y-80927083D01*
X125388436Y-80860417D01*
X125388511Y-80784589D01*
X125388511Y-80520822D01*
X125527873Y-80520822D01*
X125587678Y-80520418D01*
X125629082Y-80518840D01*
X125656252Y-80515547D01*
X125673354Y-80509992D01*
X125684557Y-80501631D01*
X125685917Y-80500178D01*
X125702275Y-80466939D01*
X125700828Y-80429362D01*
X125682022Y-80396645D01*
X125674750Y-80390298D01*
X125665373Y-80385266D01*
X125651391Y-80381396D01*
X125630304Y-80378537D01*
X125599611Y-80376535D01*
X125556811Y-80375239D01*
X125499405Y-80374498D01*
X125424890Y-80374158D01*
X125330767Y-80374068D01*
X125310740Y-80374067D01*
X125211935Y-80374163D01*
X125211935Y-80374163D01*
G37*
X125211935Y-80374163D02*
X125133228Y-80374542D01*
X125072137Y-80375333D01*
X125026183Y-80376670D01*
X124992886Y-80378683D01*
X124969764Y-80381506D01*
X124954338Y-80385269D01*
X124944129Y-80390105D01*
X124939187Y-80393822D01*
X124913543Y-80426358D01*
X124910441Y-80460138D01*
X124926289Y-80490826D01*
X124936652Y-80503089D01*
X124947804Y-80511450D01*
X124963965Y-80516657D01*
X124989358Y-80519457D01*
X125028202Y-80520596D01*
X125084720Y-80520821D01*
X125095820Y-80520822D01*
X125241756Y-80520822D01*
X125241756Y-80791756D01*
X125241852Y-80877154D01*
X125242289Y-80942864D01*
X125243288Y-80991774D01*
X125245072Y-81026773D01*
X125247863Y-81050749D01*
X125251883Y-81066593D01*
X125257355Y-81077191D01*
X125264334Y-81085267D01*
X125297266Y-81105112D01*
X125331646Y-81103548D01*
X125362824Y-81080906D01*
X125365114Y-81078100D01*
X125372571Y-81067492D01*
X125378253Y-81055081D01*
X125382399Y-81037850D01*
X125385250Y-81012784D01*
X125387046Y-80976867D01*
X125388028Y-80927083D01*
X125388436Y-80860417D01*
X125388511Y-80784589D01*
X125388511Y-80520822D01*
X125527873Y-80520822D01*
X125587678Y-80520418D01*
X125629082Y-80518840D01*
X125656252Y-80515547D01*
X125673354Y-80509992D01*
X125684557Y-80501631D01*
X125685917Y-80500178D01*
X125702275Y-80466939D01*
X125700828Y-80429362D01*
X125682022Y-80396645D01*
X125674750Y-80390298D01*
X125665373Y-80385266D01*
X125651391Y-80381396D01*
X125630304Y-80378537D01*
X125599611Y-80376535D01*
X125556811Y-80375239D01*
X125499405Y-80374498D01*
X125424890Y-80374158D01*
X125330767Y-80374068D01*
X125310740Y-80374067D01*
X125211935Y-80374163D01*
G36*
X125986386Y-80380877D02*
X125962673Y-80395647D01*
X125936022Y-80417227D01*
X125936022Y-80738773D01*
X125936107Y-80832830D01*
X125936471Y-80906932D01*
X125937276Y-80963704D01*
X125938687Y-81005768D01*
X125940867Y-81035748D01*
X125943979Y-81056267D01*
X125948186Y-81069949D01*
X125953652Y-81079416D01*
X125957528Y-81084082D01*
X125988966Y-81104575D01*
X126024767Y-81103739D01*
X126056127Y-81086264D01*
X126082778Y-81064684D01*
X126082778Y-80417227D01*
X126056127Y-80395647D01*
X126030406Y-80379949D01*
X126009400Y-80374067D01*
X125986386Y-80380877D01*
X125986386Y-80380877D01*
G37*
X125986386Y-80380877D02*
X125962673Y-80395647D01*
X125936022Y-80417227D01*
X125936022Y-80738773D01*
X125936107Y-80832830D01*
X125936471Y-80906932D01*
X125937276Y-80963704D01*
X125938687Y-81005768D01*
X125940867Y-81035748D01*
X125943979Y-81056267D01*
X125948186Y-81069949D01*
X125953652Y-81079416D01*
X125957528Y-81084082D01*
X125988966Y-81104575D01*
X126024767Y-81103739D01*
X126056127Y-81086264D01*
X126082778Y-81064684D01*
X126082778Y-80417227D01*
X126056127Y-80395647D01*
X126030406Y-80379949D01*
X126009400Y-80374067D01*
X125986386Y-80380877D01*
G36*
X126430335Y-80376034D02*
X126410745Y-80383035D01*
X126409990Y-80383377D01*
X126383387Y-80403678D01*
X126368730Y-80424561D01*
X126365862Y-80434352D01*
X126366004Y-80447361D01*
X126370039Y-80465895D01*
X126378854Y-80492257D01*
X126393331Y-80528752D01*
X126414355Y-80577687D01*
X126442812Y-80641365D01*
X126479585Y-80722093D01*
X126499825Y-80766216D01*
X126536375Y-80844985D01*
X126570685Y-80917423D01*
X126601448Y-80980880D01*
X126627352Y-81032708D01*
X126647090Y-81070259D01*
X126659350Y-81090884D01*
X126661776Y-81093733D01*
X126692817Y-81106302D01*
X126727879Y-81104619D01*
X126756000Y-81089332D01*
X126757146Y-81088089D01*
X126768332Y-81071154D01*
X126787096Y-81038170D01*
X126811125Y-80993380D01*
X126838103Y-80941032D01*
X126847799Y-80921742D01*
X126920986Y-80775150D01*
X127000760Y-80934393D01*
X127029233Y-80989415D01*
X127055650Y-81037132D01*
X127077852Y-81073893D01*
X127093681Y-81096044D01*
X127099046Y-81100741D01*
X127140743Y-81107102D01*
X127175151Y-81093733D01*
X127185272Y-81079446D01*
X127202786Y-81047692D01*
X127226265Y-81001597D01*
X127254280Y-80944285D01*
X127285401Y-80878880D01*
X127318201Y-80808507D01*
X127351250Y-80736291D01*
X127383119Y-80665355D01*
X127412381Y-80598825D01*
X127437605Y-80539826D01*
X127457364Y-80491481D01*
X127470228Y-80456915D01*
X127474769Y-80439253D01*
X127474723Y-80438613D01*
X127463674Y-80416388D01*
X127441590Y-80393753D01*
X127440290Y-80392768D01*
X127413147Y-80377425D01*
X127388042Y-80377574D01*
X127378632Y-80380466D01*
X127367166Y-80386718D01*
X127354990Y-80399014D01*
X127340643Y-80419908D01*
X127322664Y-80451949D01*
X127299593Y-80497688D01*
X127269970Y-80559677D01*
X127243255Y-80616898D01*
X127212520Y-80683226D01*
X127184979Y-80742874D01*
X127162062Y-80792725D01*
X127145202Y-80829664D01*
X127135827Y-80850573D01*
X127134460Y-80853845D01*
X127128311Y-80848497D01*
X127114178Y-80826109D01*
X127093943Y-80789946D01*
X127069485Y-80743277D01*
X127059752Y-80724022D01*
X127026783Y-80659004D01*
X127001357Y-80611654D01*
X126981388Y-80579219D01*
X126964790Y-80558946D01*
X126949476Y-80548082D01*
X126933360Y-80543875D01*
X126922857Y-80543400D01*
X126904330Y-80545042D01*
X126888096Y-80551831D01*
X126871965Y-80566566D01*
X126853749Y-80592044D01*
X126831261Y-80631061D01*
X126802311Y-80686414D01*
X126786338Y-80717903D01*
X126760430Y-80768087D01*
X126737833Y-80809704D01*
X126720542Y-80839242D01*
X126710550Y-80853189D01*
X126709191Y-80853770D01*
X126702739Y-80842793D01*
X126688292Y-80814290D01*
X126667297Y-80771244D01*
X126641203Y-80716638D01*
X126611454Y-80653454D01*
X126596820Y-80622071D01*
X126558750Y-80541078D01*
X126528095Y-80478756D01*
X126503263Y-80433071D01*
X126482663Y-80401989D01*
X126464702Y-80383478D01*
X126447790Y-80375504D01*
X126430335Y-80376034D01*
X126430335Y-80376034D01*
G37*
X126430335Y-80376034D02*
X126410745Y-80383035D01*
X126409990Y-80383377D01*
X126383387Y-80403678D01*
X126368730Y-80424561D01*
X126365862Y-80434352D01*
X126366004Y-80447361D01*
X126370039Y-80465895D01*
X126378854Y-80492257D01*
X126393331Y-80528752D01*
X126414355Y-80577687D01*
X126442812Y-80641365D01*
X126479585Y-80722093D01*
X126499825Y-80766216D01*
X126536375Y-80844985D01*
X126570685Y-80917423D01*
X126601448Y-80980880D01*
X126627352Y-81032708D01*
X126647090Y-81070259D01*
X126659350Y-81090884D01*
X126661776Y-81093733D01*
X126692817Y-81106302D01*
X126727879Y-81104619D01*
X126756000Y-81089332D01*
X126757146Y-81088089D01*
X126768332Y-81071154D01*
X126787096Y-81038170D01*
X126811125Y-80993380D01*
X126838103Y-80941032D01*
X126847799Y-80921742D01*
X126920986Y-80775150D01*
X127000760Y-80934393D01*
X127029233Y-80989415D01*
X127055650Y-81037132D01*
X127077852Y-81073893D01*
X127093681Y-81096044D01*
X127099046Y-81100741D01*
X127140743Y-81107102D01*
X127175151Y-81093733D01*
X127185272Y-81079446D01*
X127202786Y-81047692D01*
X127226265Y-81001597D01*
X127254280Y-80944285D01*
X127285401Y-80878880D01*
X127318201Y-80808507D01*
X127351250Y-80736291D01*
X127383119Y-80665355D01*
X127412381Y-80598825D01*
X127437605Y-80539826D01*
X127457364Y-80491481D01*
X127470228Y-80456915D01*
X127474769Y-80439253D01*
X127474723Y-80438613D01*
X127463674Y-80416388D01*
X127441590Y-80393753D01*
X127440290Y-80392768D01*
X127413147Y-80377425D01*
X127388042Y-80377574D01*
X127378632Y-80380466D01*
X127367166Y-80386718D01*
X127354990Y-80399014D01*
X127340643Y-80419908D01*
X127322664Y-80451949D01*
X127299593Y-80497688D01*
X127269970Y-80559677D01*
X127243255Y-80616898D01*
X127212520Y-80683226D01*
X127184979Y-80742874D01*
X127162062Y-80792725D01*
X127145202Y-80829664D01*
X127135827Y-80850573D01*
X127134460Y-80853845D01*
X127128311Y-80848497D01*
X127114178Y-80826109D01*
X127093943Y-80789946D01*
X127069485Y-80743277D01*
X127059752Y-80724022D01*
X127026783Y-80659004D01*
X127001357Y-80611654D01*
X126981388Y-80579219D01*
X126964790Y-80558946D01*
X126949476Y-80548082D01*
X126933360Y-80543875D01*
X126922857Y-80543400D01*
X126904330Y-80545042D01*
X126888096Y-80551831D01*
X126871965Y-80566566D01*
X126853749Y-80592044D01*
X126831261Y-80631061D01*
X126802311Y-80686414D01*
X126786338Y-80717903D01*
X126760430Y-80768087D01*
X126737833Y-80809704D01*
X126720542Y-80839242D01*
X126710550Y-80853189D01*
X126709191Y-80853770D01*
X126702739Y-80842793D01*
X126688292Y-80814290D01*
X126667297Y-80771244D01*
X126641203Y-80716638D01*
X126611454Y-80653454D01*
X126596820Y-80622071D01*
X126558750Y-80541078D01*
X126528095Y-80478756D01*
X126503263Y-80433071D01*
X126482663Y-80401989D01*
X126464702Y-80383478D01*
X126447790Y-80375504D01*
X126430335Y-80376034D01*
G36*
X129156691Y-80374275D02*
X129027712Y-80378636D01*
X128918009Y-80391861D01*
X128825774Y-80414741D01*
X128749198Y-80448070D01*
X128686473Y-80492638D01*
X128635788Y-80549236D01*
X128595337Y-80618658D01*
X128594541Y-80620351D01*
X128570399Y-80682483D01*
X128561797Y-80737509D01*
X128568769Y-80792887D01*
X128591346Y-80856073D01*
X128595628Y-80865689D01*
X128624828Y-80921966D01*
X128657644Y-80965451D01*
X128699998Y-81002417D01*
X128757810Y-81039135D01*
X128761169Y-81041052D01*
X128811496Y-81065227D01*
X128868379Y-81083282D01*
X128935473Y-81095839D01*
X129016435Y-81103522D01*
X129114918Y-81106953D01*
X129149714Y-81107251D01*
X129315406Y-81107845D01*
X129338803Y-81078100D01*
X129345743Y-81068319D01*
X129351158Y-81056897D01*
X129355235Y-81041095D01*
X129358163Y-81018175D01*
X129360133Y-80985396D01*
X129360775Y-80961089D01*
X129204156Y-80961089D01*
X129110274Y-80961089D01*
X129055336Y-80959483D01*
X128998940Y-80955255D01*
X128952655Y-80949292D01*
X128949861Y-80948790D01*
X128867652Y-80926736D01*
X128803886Y-80893600D01*
X128756548Y-80847847D01*
X128723618Y-80787939D01*
X128717892Y-80772061D01*
X128712279Y-80747333D01*
X128714709Y-80722902D01*
X128726533Y-80690400D01*
X128733660Y-80674434D01*
X128757000Y-80632006D01*
X128785120Y-80602240D01*
X128816060Y-80581511D01*
X128878034Y-80554537D01*
X128957349Y-80534998D01*
X129049747Y-80523746D01*
X129116667Y-80521270D01*
X129204156Y-80520822D01*
X129204156Y-80961089D01*
X129360775Y-80961089D01*
X129361332Y-80940021D01*
X129361950Y-80879311D01*
X129362175Y-80800526D01*
X129362200Y-80738920D01*
X129362200Y-80429485D01*
X129334491Y-80401776D01*
X129322194Y-80390544D01*
X129308897Y-80382853D01*
X129290328Y-80378040D01*
X129262214Y-80375446D01*
X129220283Y-80374410D01*
X129160263Y-80374270D01*
X129156691Y-80374275D01*
X129156691Y-80374275D01*
G37*
X129156691Y-80374275D02*
X129027712Y-80378636D01*
X128918009Y-80391861D01*
X128825774Y-80414741D01*
X128749198Y-80448070D01*
X128686473Y-80492638D01*
X128635788Y-80549236D01*
X128595337Y-80618658D01*
X128594541Y-80620351D01*
X128570399Y-80682483D01*
X128561797Y-80737509D01*
X128568769Y-80792887D01*
X128591346Y-80856073D01*
X128595628Y-80865689D01*
X128624828Y-80921966D01*
X128657644Y-80965451D01*
X128699998Y-81002417D01*
X128757810Y-81039135D01*
X128761169Y-81041052D01*
X128811496Y-81065227D01*
X128868379Y-81083282D01*
X128935473Y-81095839D01*
X129016435Y-81103522D01*
X129114918Y-81106953D01*
X129149714Y-81107251D01*
X129315406Y-81107845D01*
X129338803Y-81078100D01*
X129345743Y-81068319D01*
X129351158Y-81056897D01*
X129355235Y-81041095D01*
X129358163Y-81018175D01*
X129360133Y-80985396D01*
X129360775Y-80961089D01*
X129204156Y-80961089D01*
X129110274Y-80961089D01*
X129055336Y-80959483D01*
X128998940Y-80955255D01*
X128952655Y-80949292D01*
X128949861Y-80948790D01*
X128867652Y-80926736D01*
X128803886Y-80893600D01*
X128756548Y-80847847D01*
X128723618Y-80787939D01*
X128717892Y-80772061D01*
X128712279Y-80747333D01*
X128714709Y-80722902D01*
X128726533Y-80690400D01*
X128733660Y-80674434D01*
X128757000Y-80632006D01*
X128785120Y-80602240D01*
X128816060Y-80581511D01*
X128878034Y-80554537D01*
X128957349Y-80534998D01*
X129049747Y-80523746D01*
X129116667Y-80521270D01*
X129204156Y-80520822D01*
X129204156Y-80961089D01*
X129360775Y-80961089D01*
X129361332Y-80940021D01*
X129361950Y-80879311D01*
X129362175Y-80800526D01*
X129362200Y-80738920D01*
X129362200Y-80429485D01*
X129334491Y-80401776D01*
X129322194Y-80390544D01*
X129308897Y-80382853D01*
X129290328Y-80378040D01*
X129262214Y-80375446D01*
X129220283Y-80374410D01*
X129160263Y-80374270D01*
X129156691Y-80374275D01*
G36*
X129944657Y-80374260D02*
X129868299Y-80375174D01*
X129809783Y-80377311D01*
X129766745Y-80381175D01*
X129736817Y-80387267D01*
X129717632Y-80396090D01*
X129706824Y-80408146D01*
X129702027Y-80423939D01*
X129700873Y-80443970D01*
X129700867Y-80446335D01*
X129701869Y-80468992D01*
X129706604Y-80486503D01*
X129717667Y-80499574D01*
X129737652Y-80508913D01*
X129769154Y-80515227D01*
X129814768Y-80519222D01*
X129877087Y-80521606D01*
X129958707Y-80523086D01*
X129983723Y-80523414D01*
X130225800Y-80526467D01*
X130229186Y-80591378D01*
X130232571Y-80656289D01*
X130064424Y-80656289D01*
X129998734Y-80656531D01*
X129951828Y-80657556D01*
X129919917Y-80659811D01*
X129899209Y-80663742D01*
X129885916Y-80669798D01*
X129876245Y-80678424D01*
X129876183Y-80678493D01*
X129858644Y-80712112D01*
X129859278Y-80748448D01*
X129877686Y-80779423D01*
X129881329Y-80782607D01*
X129894259Y-80790812D01*
X129911976Y-80796521D01*
X129938430Y-80800162D01*
X129977568Y-80802167D01*
X130033338Y-80802964D01*
X130069006Y-80803045D01*
X130231445Y-80803045D01*
X130231445Y-80961089D01*
X129984839Y-80961089D01*
X129903420Y-80961231D01*
X129841590Y-80961814D01*
X129796363Y-80963068D01*
X129764752Y-80965227D01*
X129743769Y-80968523D01*
X129730427Y-80973189D01*
X129721739Y-80979457D01*
X129719550Y-80981733D01*
X129703386Y-81013280D01*
X129702203Y-81049168D01*
X129715464Y-81080285D01*
X129725957Y-81090271D01*
X129736871Y-81095769D01*
X129753783Y-81100022D01*
X129779367Y-81103180D01*
X129816299Y-81105392D01*
X129867254Y-81106806D01*
X129934906Y-81107572D01*
X130021931Y-81107838D01*
X130041606Y-81107845D01*
X130130089Y-81107787D01*
X130198773Y-81107467D01*
X130250436Y-81106667D01*
X130287855Y-81105167D01*
X130313810Y-81102749D01*
X130331078Y-81099194D01*
X130342438Y-81094282D01*
X130350668Y-81087795D01*
X130355183Y-81083138D01*
X130361979Y-81074889D01*
X130367288Y-81064669D01*
X130371294Y-81049800D01*
X130374179Y-81027602D01*
X130376126Y-80995393D01*
X130377319Y-80950496D01*
X130377939Y-80890228D01*
X130378171Y-80811911D01*
X130378200Y-80745994D01*
X130378129Y-80653628D01*
X130377792Y-80581117D01*
X130377002Y-80525737D01*
X130375574Y-80484765D01*
X130373321Y-80455478D01*
X130370057Y-80435153D01*
X130365596Y-80421066D01*
X130359752Y-80410495D01*
X130354803Y-80403811D01*
X130331406Y-80374067D01*
X130041226Y-80374067D01*
X129944657Y-80374260D01*
X129944657Y-80374260D01*
G37*
X129944657Y-80374260D02*
X129868299Y-80375174D01*
X129809783Y-80377311D01*
X129766745Y-80381175D01*
X129736817Y-80387267D01*
X129717632Y-80396090D01*
X129706824Y-80408146D01*
X129702027Y-80423939D01*
X129700873Y-80443970D01*
X129700867Y-80446335D01*
X129701869Y-80468992D01*
X129706604Y-80486503D01*
X129717667Y-80499574D01*
X129737652Y-80508913D01*
X129769154Y-80515227D01*
X129814768Y-80519222D01*
X129877087Y-80521606D01*
X129958707Y-80523086D01*
X129983723Y-80523414D01*
X130225800Y-80526467D01*
X130229186Y-80591378D01*
X130232571Y-80656289D01*
X130064424Y-80656289D01*
X129998734Y-80656531D01*
X129951828Y-80657556D01*
X129919917Y-80659811D01*
X129899209Y-80663742D01*
X129885916Y-80669798D01*
X129876245Y-80678424D01*
X129876183Y-80678493D01*
X129858644Y-80712112D01*
X129859278Y-80748448D01*
X129877686Y-80779423D01*
X129881329Y-80782607D01*
X129894259Y-80790812D01*
X129911976Y-80796521D01*
X129938430Y-80800162D01*
X129977568Y-80802167D01*
X130033338Y-80802964D01*
X130069006Y-80803045D01*
X130231445Y-80803045D01*
X130231445Y-80961089D01*
X129984839Y-80961089D01*
X129903420Y-80961231D01*
X129841590Y-80961814D01*
X129796363Y-80963068D01*
X129764752Y-80965227D01*
X129743769Y-80968523D01*
X129730427Y-80973189D01*
X129721739Y-80979457D01*
X129719550Y-80981733D01*
X129703386Y-81013280D01*
X129702203Y-81049168D01*
X129715464Y-81080285D01*
X129725957Y-81090271D01*
X129736871Y-81095769D01*
X129753783Y-81100022D01*
X129779367Y-81103180D01*
X129816299Y-81105392D01*
X129867254Y-81106806D01*
X129934906Y-81107572D01*
X130021931Y-81107838D01*
X130041606Y-81107845D01*
X130130089Y-81107787D01*
X130198773Y-81107467D01*
X130250436Y-81106667D01*
X130287855Y-81105167D01*
X130313810Y-81102749D01*
X130331078Y-81099194D01*
X130342438Y-81094282D01*
X130350668Y-81087795D01*
X130355183Y-81083138D01*
X130361979Y-81074889D01*
X130367288Y-81064669D01*
X130371294Y-81049800D01*
X130374179Y-81027602D01*
X130376126Y-80995393D01*
X130377319Y-80950496D01*
X130377939Y-80890228D01*
X130378171Y-80811911D01*
X130378200Y-80745994D01*
X130378129Y-80653628D01*
X130377792Y-80581117D01*
X130377002Y-80525737D01*
X130375574Y-80484765D01*
X130373321Y-80455478D01*
X130370057Y-80435153D01*
X130365596Y-80421066D01*
X130359752Y-80410495D01*
X130354803Y-80403811D01*
X130331406Y-80374067D01*
X130041226Y-80374067D01*
X129944657Y-80374260D01*
G36*
X131475114Y-80378448D02*
X131451548Y-80392273D01*
X131420735Y-80414881D01*
X131381078Y-80447338D01*
X131330980Y-80490708D01*
X131268843Y-80546058D01*
X131193072Y-80614451D01*
X131106334Y-80693084D01*
X130925711Y-80856878D01*
X130920067Y-80637029D01*
X130918029Y-80561351D01*
X130916063Y-80504994D01*
X130913734Y-80464706D01*
X130910606Y-80437235D01*
X130906245Y-80419329D01*
X130900216Y-80407737D01*
X130892084Y-80399208D01*
X130887772Y-80395623D01*
X130853241Y-80376670D01*
X130820383Y-80379441D01*
X130794318Y-80395633D01*
X130767667Y-80417199D01*
X130764352Y-80732151D01*
X130763435Y-80824779D01*
X130762968Y-80897544D01*
X130763113Y-80953161D01*
X130764032Y-80994342D01*
X130765887Y-81023803D01*
X130768839Y-81044255D01*
X130773050Y-81058413D01*
X130778682Y-81068991D01*
X130784927Y-81077474D01*
X130798439Y-81093207D01*
X130811883Y-81103636D01*
X130827124Y-81107639D01*
X130846026Y-81104094D01*
X130870455Y-81091879D01*
X130902273Y-81069871D01*
X130943348Y-81036949D01*
X130995542Y-80991991D01*
X131060722Y-80933875D01*
X131134556Y-80867099D01*
X131399845Y-80626458D01*
X131405489Y-80845589D01*
X131407531Y-80921128D01*
X131409502Y-80977354D01*
X131411839Y-81017524D01*
X131414981Y-81044896D01*
X131419364Y-81062728D01*
X131425424Y-81074279D01*
X131433600Y-81082807D01*
X131437784Y-81086282D01*
X131474765Y-81105372D01*
X131509708Y-81102493D01*
X131540136Y-81078100D01*
X131547097Y-81068286D01*
X131552523Y-81056826D01*
X131556603Y-81040968D01*
X131559529Y-81017963D01*
X131561492Y-80985062D01*
X131562683Y-80939516D01*
X131563292Y-80878573D01*
X131563511Y-80799486D01*
X131563534Y-80740956D01*
X131563460Y-80649407D01*
X131563113Y-80577687D01*
X131562301Y-80523045D01*
X131560833Y-80482732D01*
X131558519Y-80453998D01*
X131555167Y-80434093D01*
X131550588Y-80420268D01*
X131544589Y-80409772D01*
X131540136Y-80403811D01*
X131528850Y-80389691D01*
X131518301Y-80379029D01*
X131506893Y-80372892D01*
X131493030Y-80372343D01*
X131475114Y-80378448D01*
X131475114Y-80378448D01*
G37*
X131475114Y-80378448D02*
X131451548Y-80392273D01*
X131420735Y-80414881D01*
X131381078Y-80447338D01*
X131330980Y-80490708D01*
X131268843Y-80546058D01*
X131193072Y-80614451D01*
X131106334Y-80693084D01*
X130925711Y-80856878D01*
X130920067Y-80637029D01*
X130918029Y-80561351D01*
X130916063Y-80504994D01*
X130913734Y-80464706D01*
X130910606Y-80437235D01*
X130906245Y-80419329D01*
X130900216Y-80407737D01*
X130892084Y-80399208D01*
X130887772Y-80395623D01*
X130853241Y-80376670D01*
X130820383Y-80379441D01*
X130794318Y-80395633D01*
X130767667Y-80417199D01*
X130764352Y-80732151D01*
X130763435Y-80824779D01*
X130762968Y-80897544D01*
X130763113Y-80953161D01*
X130764032Y-80994342D01*
X130765887Y-81023803D01*
X130768839Y-81044255D01*
X130773050Y-81058413D01*
X130778682Y-81068991D01*
X130784927Y-81077474D01*
X130798439Y-81093207D01*
X130811883Y-81103636D01*
X130827124Y-81107639D01*
X130846026Y-81104094D01*
X130870455Y-81091879D01*
X130902273Y-81069871D01*
X130943348Y-81036949D01*
X130995542Y-80991991D01*
X131060722Y-80933875D01*
X131134556Y-80867099D01*
X131399845Y-80626458D01*
X131405489Y-80845589D01*
X131407531Y-80921128D01*
X131409502Y-80977354D01*
X131411839Y-81017524D01*
X131414981Y-81044896D01*
X131419364Y-81062728D01*
X131425424Y-81074279D01*
X131433600Y-81082807D01*
X131437784Y-81086282D01*
X131474765Y-81105372D01*
X131509708Y-81102493D01*
X131540136Y-81078100D01*
X131547097Y-81068286D01*
X131552523Y-81056826D01*
X131556603Y-81040968D01*
X131559529Y-81017963D01*
X131561492Y-80985062D01*
X131562683Y-80939516D01*
X131563292Y-80878573D01*
X131563511Y-80799486D01*
X131563534Y-80740956D01*
X131563460Y-80649407D01*
X131563113Y-80577687D01*
X131562301Y-80523045D01*
X131560833Y-80482732D01*
X131558519Y-80453998D01*
X131555167Y-80434093D01*
X131550588Y-80420268D01*
X131544589Y-80409772D01*
X131540136Y-80403811D01*
X131528850Y-80389691D01*
X131518301Y-80379029D01*
X131506893Y-80372892D01*
X131493030Y-80372343D01*
X131475114Y-80378448D01*
G36*
X132125081Y-80379599D02*
X132056565Y-80391095D01*
X132003943Y-80408967D01*
X131969708Y-80432499D01*
X131960379Y-80445924D01*
X131950893Y-80477148D01*
X131957277Y-80505395D01*
X131977430Y-80532182D01*
X132008745Y-80544713D01*
X132054183Y-80543696D01*
X132089326Y-80536906D01*
X132167419Y-80523971D01*
X132247226Y-80522742D01*
X132336555Y-80533241D01*
X132361229Y-80537690D01*
X132444291Y-80561108D01*
X132509273Y-80595945D01*
X132555461Y-80641604D01*
X132582145Y-80697494D01*
X132587663Y-80726388D01*
X132584051Y-80785012D01*
X132560729Y-80836879D01*
X132519824Y-80880978D01*
X132463459Y-80916299D01*
X132393760Y-80941829D01*
X132312852Y-80956559D01*
X132222860Y-80959478D01*
X132125910Y-80949575D01*
X132120436Y-80948641D01*
X132081875Y-80941459D01*
X132060494Y-80934521D01*
X132051227Y-80924227D01*
X132049006Y-80906976D01*
X132048956Y-80897841D01*
X132048956Y-80859489D01*
X132117431Y-80859489D01*
X132177900Y-80855347D01*
X132219165Y-80842147D01*
X132243175Y-80818730D01*
X132251877Y-80783936D01*
X132251983Y-80779394D01*
X132246892Y-80749654D01*
X132229433Y-80728419D01*
X132196939Y-80714366D01*
X132146743Y-80706173D01*
X132098123Y-80703161D01*
X132027456Y-80701433D01*
X131976198Y-80704070D01*
X131941239Y-80713800D01*
X131919470Y-80733353D01*
X131907780Y-80765456D01*
X131903060Y-80812838D01*
X131902200Y-80875071D01*
X131903609Y-80944535D01*
X131907848Y-80991786D01*
X131914936Y-81017012D01*
X131916311Y-81018988D01*
X131955228Y-81050508D01*
X132012286Y-81075470D01*
X132083869Y-81093340D01*
X132166358Y-81103586D01*
X132256139Y-81105673D01*
X132349592Y-81099068D01*
X132404556Y-81090956D01*
X132490766Y-81066554D01*
X132570892Y-81026662D01*
X132637977Y-80974887D01*
X132648173Y-80964539D01*
X132681302Y-80921035D01*
X132711194Y-80867118D01*
X132734357Y-80810592D01*
X132747298Y-80759259D01*
X132748858Y-80739544D01*
X132742218Y-80698419D01*
X132724568Y-80647252D01*
X132699297Y-80593394D01*
X132669789Y-80544195D01*
X132643719Y-80511334D01*
X132582765Y-80462452D01*
X132503969Y-80423545D01*
X132410157Y-80395494D01*
X132304150Y-80379179D01*
X132207000Y-80375192D01*
X132125081Y-80379599D01*
X132125081Y-80379599D01*
G37*
X132125081Y-80379599D02*
X132056565Y-80391095D01*
X132003943Y-80408967D01*
X131969708Y-80432499D01*
X131960379Y-80445924D01*
X131950893Y-80477148D01*
X131957277Y-80505395D01*
X131977430Y-80532182D01*
X132008745Y-80544713D01*
X132054183Y-80543696D01*
X132089326Y-80536906D01*
X132167419Y-80523971D01*
X132247226Y-80522742D01*
X132336555Y-80533241D01*
X132361229Y-80537690D01*
X132444291Y-80561108D01*
X132509273Y-80595945D01*
X132555461Y-80641604D01*
X132582145Y-80697494D01*
X132587663Y-80726388D01*
X132584051Y-80785012D01*
X132560729Y-80836879D01*
X132519824Y-80880978D01*
X132463459Y-80916299D01*
X132393760Y-80941829D01*
X132312852Y-80956559D01*
X132222860Y-80959478D01*
X132125910Y-80949575D01*
X132120436Y-80948641D01*
X132081875Y-80941459D01*
X132060494Y-80934521D01*
X132051227Y-80924227D01*
X132049006Y-80906976D01*
X132048956Y-80897841D01*
X132048956Y-80859489D01*
X132117431Y-80859489D01*
X132177900Y-80855347D01*
X132219165Y-80842147D01*
X132243175Y-80818730D01*
X132251877Y-80783936D01*
X132251983Y-80779394D01*
X132246892Y-80749654D01*
X132229433Y-80728419D01*
X132196939Y-80714366D01*
X132146743Y-80706173D01*
X132098123Y-80703161D01*
X132027456Y-80701433D01*
X131976198Y-80704070D01*
X131941239Y-80713800D01*
X131919470Y-80733353D01*
X131907780Y-80765456D01*
X131903060Y-80812838D01*
X131902200Y-80875071D01*
X131903609Y-80944535D01*
X131907848Y-80991786D01*
X131914936Y-81017012D01*
X131916311Y-81018988D01*
X131955228Y-81050508D01*
X132012286Y-81075470D01*
X132083869Y-81093340D01*
X132166358Y-81103586D01*
X132256139Y-81105673D01*
X132349592Y-81099068D01*
X132404556Y-81090956D01*
X132490766Y-81066554D01*
X132570892Y-81026662D01*
X132637977Y-80974887D01*
X132648173Y-80964539D01*
X132681302Y-80921035D01*
X132711194Y-80867118D01*
X132734357Y-80810592D01*
X132747298Y-80759259D01*
X132748858Y-80739544D01*
X132742218Y-80698419D01*
X132724568Y-80647252D01*
X132699297Y-80593394D01*
X132669789Y-80544195D01*
X132643719Y-80511334D01*
X132582765Y-80462452D01*
X132503969Y-80423545D01*
X132410157Y-80395494D01*
X132304150Y-80379179D01*
X132207000Y-80375192D01*
X132125081Y-80379599D01*
G36*
X133098822Y-80396645D02*
X133092242Y-80404218D01*
X133087079Y-80413987D01*
X133083164Y-80428571D01*
X133080324Y-80450585D01*
X133078387Y-80482648D01*
X133077183Y-80527375D01*
X133076539Y-80587385D01*
X133076284Y-80665294D01*
X133076245Y-80740956D01*
X133076314Y-80834802D01*
X133076638Y-80908689D01*
X133077386Y-80965232D01*
X133078732Y-81007049D01*
X133080846Y-81036757D01*
X133083900Y-81056973D01*
X133088066Y-81070314D01*
X133093516Y-81079398D01*
X133098822Y-81085267D01*
X133131826Y-81104947D01*
X133166991Y-81103181D01*
X133198455Y-81081717D01*
X133205684Y-81073337D01*
X133211334Y-81063614D01*
X133215599Y-81049861D01*
X133218673Y-81029389D01*
X133220752Y-80999512D01*
X133222030Y-80957541D01*
X133222701Y-80900789D01*
X133222959Y-80826567D01*
X133223000Y-80742537D01*
X133223000Y-80429485D01*
X133195291Y-80401776D01*
X133161137Y-80378463D01*
X133128006Y-80377623D01*
X133098822Y-80396645D01*
X133098822Y-80396645D01*
G37*
X133098822Y-80396645D02*
X133092242Y-80404218D01*
X133087079Y-80413987D01*
X133083164Y-80428571D01*
X133080324Y-80450585D01*
X133078387Y-80482648D01*
X133077183Y-80527375D01*
X133076539Y-80587385D01*
X133076284Y-80665294D01*
X133076245Y-80740956D01*
X133076314Y-80834802D01*
X133076638Y-80908689D01*
X133077386Y-80965232D01*
X133078732Y-81007049D01*
X133080846Y-81036757D01*
X133083900Y-81056973D01*
X133088066Y-81070314D01*
X133093516Y-81079398D01*
X133098822Y-81085267D01*
X133131826Y-81104947D01*
X133166991Y-81103181D01*
X133198455Y-81081717D01*
X133205684Y-81073337D01*
X133211334Y-81063614D01*
X133215599Y-81049861D01*
X133218673Y-81029389D01*
X133220752Y-80999512D01*
X133222030Y-80957541D01*
X133222701Y-80900789D01*
X133222959Y-80826567D01*
X133223000Y-80742537D01*
X133223000Y-80429485D01*
X133195291Y-80401776D01*
X133161137Y-80378463D01*
X133128006Y-80377623D01*
X133098822Y-80396645D01*
G36*
X133866703Y-80375351D02*
X133791888Y-80380581D01*
X133722306Y-80388750D01*
X133662002Y-80399550D01*
X133615020Y-80412673D01*
X133585406Y-80427813D01*
X133580860Y-80432269D01*
X133565054Y-80466850D01*
X133569847Y-80502351D01*
X133594364Y-80532725D01*
X133595534Y-80533596D01*
X133609954Y-80542954D01*
X133625008Y-80547876D01*
X133646005Y-80548473D01*
X133678257Y-80544861D01*
X133727073Y-80537154D01*
X133731000Y-80536505D01*
X133803739Y-80527569D01*
X133882217Y-80523161D01*
X133960927Y-80523119D01*
X134034361Y-80527279D01*
X134097011Y-80535479D01*
X134143370Y-80547557D01*
X134146416Y-80548771D01*
X134180048Y-80567615D01*
X134191864Y-80586685D01*
X134182614Y-80605439D01*
X134153047Y-80623337D01*
X134103911Y-80639837D01*
X134035957Y-80654396D01*
X133990645Y-80661406D01*
X133896456Y-80674889D01*
X133821544Y-80687214D01*
X133762717Y-80699449D01*
X133716785Y-80712661D01*
X133680555Y-80727917D01*
X133650838Y-80746285D01*
X133624442Y-80768831D01*
X133603230Y-80790971D01*
X133578065Y-80821819D01*
X133565681Y-80848345D01*
X133561808Y-80881026D01*
X133561667Y-80892995D01*
X133564576Y-80932712D01*
X133576202Y-80962259D01*
X133596323Y-80988486D01*
X133637216Y-81028576D01*
X133682817Y-81059149D01*
X133736513Y-81081203D01*
X133801692Y-81095735D01*
X133881744Y-81103741D01*
X133980057Y-81106218D01*
X133996289Y-81106177D01*
X134061849Y-81104818D01*
X134126866Y-81101730D01*
X134184252Y-81097356D01*
X134226922Y-81092140D01*
X134230372Y-81091541D01*
X134272796Y-81081491D01*
X134308780Y-81068796D01*
X134329150Y-81057190D01*
X134348107Y-81026572D01*
X134349427Y-80990918D01*
X134333085Y-80959144D01*
X134329429Y-80955551D01*
X134314315Y-80944876D01*
X134295415Y-80940276D01*
X134266162Y-80941059D01*
X134230651Y-80945127D01*
X134190970Y-80948762D01*
X134135345Y-80951828D01*
X134070406Y-80954053D01*
X134002785Y-80955164D01*
X133985000Y-80955237D01*
X133917128Y-80954964D01*
X133867454Y-80953646D01*
X133831610Y-80950827D01*
X133805224Y-80946050D01*
X133783926Y-80938857D01*
X133771126Y-80932867D01*
X133743000Y-80916233D01*
X133725068Y-80901168D01*
X133722447Y-80896897D01*
X133727976Y-80879263D01*
X133754260Y-80862192D01*
X133799478Y-80846458D01*
X133861808Y-80832838D01*
X133880171Y-80829804D01*
X133976090Y-80814738D01*
X134052641Y-80802146D01*
X134112780Y-80791111D01*
X134159460Y-80780720D01*
X134195637Y-80770056D01*
X134224265Y-80758205D01*
X134248298Y-80744251D01*
X134270692Y-80727281D01*
X134294402Y-80706378D01*
X134302380Y-80699049D01*
X134330353Y-80671699D01*
X134345160Y-80650029D01*
X134350952Y-80625232D01*
X134351889Y-80593983D01*
X134341575Y-80532705D01*
X134310752Y-80480640D01*
X134259595Y-80437958D01*
X134188283Y-80404825D01*
X134137400Y-80389964D01*
X134082100Y-80380366D01*
X134015853Y-80374936D01*
X133942706Y-80373367D01*
X133866703Y-80375351D01*
X133866703Y-80375351D01*
G37*
X133866703Y-80375351D02*
X133791888Y-80380581D01*
X133722306Y-80388750D01*
X133662002Y-80399550D01*
X133615020Y-80412673D01*
X133585406Y-80427813D01*
X133580860Y-80432269D01*
X133565054Y-80466850D01*
X133569847Y-80502351D01*
X133594364Y-80532725D01*
X133595534Y-80533596D01*
X133609954Y-80542954D01*
X133625008Y-80547876D01*
X133646005Y-80548473D01*
X133678257Y-80544861D01*
X133727073Y-80537154D01*
X133731000Y-80536505D01*
X133803739Y-80527569D01*
X133882217Y-80523161D01*
X133960927Y-80523119D01*
X134034361Y-80527279D01*
X134097011Y-80535479D01*
X134143370Y-80547557D01*
X134146416Y-80548771D01*
X134180048Y-80567615D01*
X134191864Y-80586685D01*
X134182614Y-80605439D01*
X134153047Y-80623337D01*
X134103911Y-80639837D01*
X134035957Y-80654396D01*
X133990645Y-80661406D01*
X133896456Y-80674889D01*
X133821544Y-80687214D01*
X133762717Y-80699449D01*
X133716785Y-80712661D01*
X133680555Y-80727917D01*
X133650838Y-80746285D01*
X133624442Y-80768831D01*
X133603230Y-80790971D01*
X133578065Y-80821819D01*
X133565681Y-80848345D01*
X133561808Y-80881026D01*
X133561667Y-80892995D01*
X133564576Y-80932712D01*
X133576202Y-80962259D01*
X133596323Y-80988486D01*
X133637216Y-81028576D01*
X133682817Y-81059149D01*
X133736513Y-81081203D01*
X133801692Y-81095735D01*
X133881744Y-81103741D01*
X133980057Y-81106218D01*
X133996289Y-81106177D01*
X134061849Y-81104818D01*
X134126866Y-81101730D01*
X134184252Y-81097356D01*
X134226922Y-81092140D01*
X134230372Y-81091541D01*
X134272796Y-81081491D01*
X134308780Y-81068796D01*
X134329150Y-81057190D01*
X134348107Y-81026572D01*
X134349427Y-80990918D01*
X134333085Y-80959144D01*
X134329429Y-80955551D01*
X134314315Y-80944876D01*
X134295415Y-80940276D01*
X134266162Y-80941059D01*
X134230651Y-80945127D01*
X134190970Y-80948762D01*
X134135345Y-80951828D01*
X134070406Y-80954053D01*
X134002785Y-80955164D01*
X133985000Y-80955237D01*
X133917128Y-80954964D01*
X133867454Y-80953646D01*
X133831610Y-80950827D01*
X133805224Y-80946050D01*
X133783926Y-80938857D01*
X133771126Y-80932867D01*
X133743000Y-80916233D01*
X133725068Y-80901168D01*
X133722447Y-80896897D01*
X133727976Y-80879263D01*
X133754260Y-80862192D01*
X133799478Y-80846458D01*
X133861808Y-80832838D01*
X133880171Y-80829804D01*
X133976090Y-80814738D01*
X134052641Y-80802146D01*
X134112780Y-80791111D01*
X134159460Y-80780720D01*
X134195637Y-80770056D01*
X134224265Y-80758205D01*
X134248298Y-80744251D01*
X134270692Y-80727281D01*
X134294402Y-80706378D01*
X134302380Y-80699049D01*
X134330353Y-80671699D01*
X134345160Y-80650029D01*
X134350952Y-80625232D01*
X134351889Y-80593983D01*
X134341575Y-80532705D01*
X134310752Y-80480640D01*
X134259595Y-80437958D01*
X134188283Y-80404825D01*
X134137400Y-80389964D01*
X134082100Y-80380366D01*
X134015853Y-80374936D01*
X133942706Y-80373367D01*
X133866703Y-80375351D01*
G36*
X134887794Y-80374146D02*
X134818386Y-80374518D01*
X134765997Y-80375385D01*
X134727847Y-80376946D01*
X134701159Y-80379403D01*
X134683153Y-80382957D01*
X134671049Y-80387810D01*
X134662069Y-80394161D01*
X134658818Y-80397084D01*
X134639043Y-80428142D01*
X134635482Y-80463828D01*
X134648491Y-80495510D01*
X134654506Y-80501913D01*
X134664235Y-80508121D01*
X134679901Y-80512910D01*
X134704408Y-80516514D01*
X134740661Y-80519164D01*
X134791565Y-80521095D01*
X134860026Y-80522539D01*
X134922617Y-80523418D01*
X135170334Y-80526467D01*
X135173719Y-80591378D01*
X135177105Y-80656289D01*
X135008958Y-80656289D01*
X134935959Y-80656919D01*
X134882517Y-80659553D01*
X134845628Y-80665309D01*
X134822288Y-80675304D01*
X134809494Y-80690656D01*
X134804242Y-80712482D01*
X134803445Y-80732738D01*
X134805923Y-80757592D01*
X134815277Y-80775906D01*
X134834383Y-80788637D01*
X134866118Y-80796741D01*
X134913359Y-80801176D01*
X134978983Y-80802899D01*
X135014801Y-80803045D01*
X135175978Y-80803045D01*
X135175978Y-80961089D01*
X134927622Y-80961089D01*
X134846213Y-80961202D01*
X134784342Y-80961712D01*
X134738968Y-80962870D01*
X134707054Y-80964930D01*
X134685559Y-80968146D01*
X134671443Y-80972772D01*
X134661668Y-80979059D01*
X134656689Y-80983667D01*
X134639610Y-81010560D01*
X134634111Y-81034467D01*
X134641963Y-81063667D01*
X134656689Y-81085267D01*
X134664546Y-81092066D01*
X134674688Y-81097346D01*
X134689844Y-81101298D01*
X134712741Y-81104113D01*
X134746109Y-81105982D01*
X134792675Y-81107098D01*
X134855167Y-81107651D01*
X134936314Y-81107833D01*
X134978422Y-81107845D01*
X135068598Y-81107765D01*
X135138924Y-81107398D01*
X135192129Y-81106552D01*
X135230940Y-81105036D01*
X135258087Y-81102659D01*
X135276298Y-81099229D01*
X135288300Y-81094554D01*
X135296822Y-81088444D01*
X135300156Y-81085267D01*
X135306755Y-81077670D01*
X135311927Y-81067870D01*
X135315846Y-81053239D01*
X135318684Y-81031152D01*
X135320615Y-80998982D01*
X135321812Y-80954103D01*
X135322448Y-80893889D01*
X135322697Y-80815713D01*
X135322734Y-80742923D01*
X135322700Y-80649707D01*
X135322465Y-80576431D01*
X135321830Y-80520458D01*
X135320594Y-80479151D01*
X135318556Y-80449872D01*
X135315517Y-80429984D01*
X135311277Y-80416850D01*
X135305635Y-80407832D01*
X135298391Y-80400293D01*
X135296606Y-80398612D01*
X135287945Y-80391172D01*
X135277882Y-80385409D01*
X135263625Y-80381112D01*
X135242383Y-80378064D01*
X135211364Y-80376051D01*
X135167777Y-80374860D01*
X135108831Y-80374275D01*
X135031734Y-80374083D01*
X134977001Y-80374067D01*
X134887794Y-80374146D01*
X134887794Y-80374146D01*
G37*
X134887794Y-80374146D02*
X134818386Y-80374518D01*
X134765997Y-80375385D01*
X134727847Y-80376946D01*
X134701159Y-80379403D01*
X134683153Y-80382957D01*
X134671049Y-80387810D01*
X134662069Y-80394161D01*
X134658818Y-80397084D01*
X134639043Y-80428142D01*
X134635482Y-80463828D01*
X134648491Y-80495510D01*
X134654506Y-80501913D01*
X134664235Y-80508121D01*
X134679901Y-80512910D01*
X134704408Y-80516514D01*
X134740661Y-80519164D01*
X134791565Y-80521095D01*
X134860026Y-80522539D01*
X134922617Y-80523418D01*
X135170334Y-80526467D01*
X135173719Y-80591378D01*
X135177105Y-80656289D01*
X135008958Y-80656289D01*
X134935959Y-80656919D01*
X134882517Y-80659553D01*
X134845628Y-80665309D01*
X134822288Y-80675304D01*
X134809494Y-80690656D01*
X134804242Y-80712482D01*
X134803445Y-80732738D01*
X134805923Y-80757592D01*
X134815277Y-80775906D01*
X134834383Y-80788637D01*
X134866118Y-80796741D01*
X134913359Y-80801176D01*
X134978983Y-80802899D01*
X135014801Y-80803045D01*
X135175978Y-80803045D01*
X135175978Y-80961089D01*
X134927622Y-80961089D01*
X134846213Y-80961202D01*
X134784342Y-80961712D01*
X134738968Y-80962870D01*
X134707054Y-80964930D01*
X134685559Y-80968146D01*
X134671443Y-80972772D01*
X134661668Y-80979059D01*
X134656689Y-80983667D01*
X134639610Y-81010560D01*
X134634111Y-81034467D01*
X134641963Y-81063667D01*
X134656689Y-81085267D01*
X134664546Y-81092066D01*
X134674688Y-81097346D01*
X134689844Y-81101298D01*
X134712741Y-81104113D01*
X134746109Y-81105982D01*
X134792675Y-81107098D01*
X134855167Y-81107651D01*
X134936314Y-81107833D01*
X134978422Y-81107845D01*
X135068598Y-81107765D01*
X135138924Y-81107398D01*
X135192129Y-81106552D01*
X135230940Y-81105036D01*
X135258087Y-81102659D01*
X135276298Y-81099229D01*
X135288300Y-81094554D01*
X135296822Y-81088444D01*
X135300156Y-81085267D01*
X135306755Y-81077670D01*
X135311927Y-81067870D01*
X135315846Y-81053239D01*
X135318684Y-81031152D01*
X135320615Y-80998982D01*
X135321812Y-80954103D01*
X135322448Y-80893889D01*
X135322697Y-80815713D01*
X135322734Y-80742923D01*
X135322700Y-80649707D01*
X135322465Y-80576431D01*
X135321830Y-80520458D01*
X135320594Y-80479151D01*
X135318556Y-80449872D01*
X135315517Y-80429984D01*
X135311277Y-80416850D01*
X135305635Y-80407832D01*
X135298391Y-80400293D01*
X135296606Y-80398612D01*
X135287945Y-80391172D01*
X135277882Y-80385409D01*
X135263625Y-80381112D01*
X135242383Y-80378064D01*
X135211364Y-80376051D01*
X135167777Y-80374860D01*
X135108831Y-80374275D01*
X135031734Y-80374083D01*
X134977001Y-80374067D01*
X134887794Y-80374146D01*
G36*
X136296371Y-80374066D02*
X136256889Y-80374467D01*
X136141200Y-80377259D01*
X136044311Y-80385550D01*
X135962919Y-80400232D01*
X135893723Y-80422193D01*
X135833420Y-80452322D01*
X135778708Y-80491510D01*
X135759167Y-80508532D01*
X135726750Y-80548363D01*
X135697520Y-80602413D01*
X135674991Y-80662323D01*
X135662679Y-80719739D01*
X135661400Y-80740956D01*
X135669417Y-80799769D01*
X135690899Y-80864013D01*
X135721999Y-80924821D01*
X135758866Y-80973330D01*
X135764854Y-80979182D01*
X135815579Y-81020321D01*
X135871125Y-81052435D01*
X135934696Y-81076365D01*
X136009494Y-81092953D01*
X136098722Y-81103041D01*
X136205582Y-81107469D01*
X136254528Y-81107845D01*
X136316762Y-81107545D01*
X136360528Y-81106292D01*
X136389931Y-81103554D01*
X136409079Y-81098801D01*
X136422077Y-81091501D01*
X136429045Y-81085267D01*
X136435626Y-81077694D01*
X136440788Y-81067924D01*
X136444703Y-81053340D01*
X136447543Y-81031326D01*
X136449480Y-80999264D01*
X136450684Y-80954536D01*
X136451328Y-80894526D01*
X136451583Y-80816617D01*
X136451622Y-80740956D01*
X136451870Y-80640041D01*
X136451817Y-80559427D01*
X136450857Y-80520822D01*
X136304867Y-80520822D01*
X136304867Y-80961089D01*
X136211734Y-80961004D01*
X136155693Y-80959396D01*
X136096999Y-80955256D01*
X136048028Y-80949464D01*
X136046538Y-80949226D01*
X135967392Y-80930090D01*
X135906002Y-80900287D01*
X135859305Y-80857878D01*
X135829635Y-80811961D01*
X135811353Y-80761026D01*
X135812771Y-80713200D01*
X135833988Y-80661933D01*
X135875489Y-80608899D01*
X135932998Y-80569600D01*
X136007750Y-80543331D01*
X136057708Y-80534035D01*
X136114416Y-80527507D01*
X136174519Y-80522782D01*
X136225639Y-80520817D01*
X136228667Y-80520808D01*
X136304867Y-80520822D01*
X136450857Y-80520822D01*
X136450260Y-80496851D01*
X136445998Y-80450055D01*
X136437830Y-80416778D01*
X136424556Y-80394759D01*
X136404974Y-80381739D01*
X136377883Y-80375457D01*
X136342082Y-80373653D01*
X136296371Y-80374066D01*
X136296371Y-80374066D01*
G37*
X136296371Y-80374066D02*
X136256889Y-80374467D01*
X136141200Y-80377259D01*
X136044311Y-80385550D01*
X135962919Y-80400232D01*
X135893723Y-80422193D01*
X135833420Y-80452322D01*
X135778708Y-80491510D01*
X135759167Y-80508532D01*
X135726750Y-80548363D01*
X135697520Y-80602413D01*
X135674991Y-80662323D01*
X135662679Y-80719739D01*
X135661400Y-80740956D01*
X135669417Y-80799769D01*
X135690899Y-80864013D01*
X135721999Y-80924821D01*
X135758866Y-80973330D01*
X135764854Y-80979182D01*
X135815579Y-81020321D01*
X135871125Y-81052435D01*
X135934696Y-81076365D01*
X136009494Y-81092953D01*
X136098722Y-81103041D01*
X136205582Y-81107469D01*
X136254528Y-81107845D01*
X136316762Y-81107545D01*
X136360528Y-81106292D01*
X136389931Y-81103554D01*
X136409079Y-81098801D01*
X136422077Y-81091501D01*
X136429045Y-81085267D01*
X136435626Y-81077694D01*
X136440788Y-81067924D01*
X136444703Y-81053340D01*
X136447543Y-81031326D01*
X136449480Y-80999264D01*
X136450684Y-80954536D01*
X136451328Y-80894526D01*
X136451583Y-80816617D01*
X136451622Y-80740956D01*
X136451870Y-80640041D01*
X136451817Y-80559427D01*
X136450857Y-80520822D01*
X136304867Y-80520822D01*
X136304867Y-80961089D01*
X136211734Y-80961004D01*
X136155693Y-80959396D01*
X136096999Y-80955256D01*
X136048028Y-80949464D01*
X136046538Y-80949226D01*
X135967392Y-80930090D01*
X135906002Y-80900287D01*
X135859305Y-80857878D01*
X135829635Y-80811961D01*
X135811353Y-80761026D01*
X135812771Y-80713200D01*
X135833988Y-80661933D01*
X135875489Y-80608899D01*
X135932998Y-80569600D01*
X136007750Y-80543331D01*
X136057708Y-80534035D01*
X136114416Y-80527507D01*
X136174519Y-80522782D01*
X136225639Y-80520817D01*
X136228667Y-80520808D01*
X136304867Y-80520822D01*
X136450857Y-80520822D01*
X136450260Y-80496851D01*
X136445998Y-80450055D01*
X136437830Y-80416778D01*
X136424556Y-80394759D01*
X136404974Y-80381739D01*
X136377883Y-80375457D01*
X136342082Y-80373653D01*
X136296371Y-80374066D01*
G36*
X123050122Y-66137776D02*
X122944388Y-66138355D01*
X122867868Y-66139922D01*
X122815628Y-66142972D01*
X122782737Y-66147996D01*
X122764263Y-66155489D01*
X122755273Y-66165944D01*
X122750837Y-66179853D01*
X122750406Y-66181654D01*
X122743667Y-66214145D01*
X122731192Y-66278252D01*
X122714281Y-66367151D01*
X122694229Y-66474019D01*
X122672336Y-66592033D01*
X122671571Y-66596178D01*
X122649641Y-66711831D01*
X122629123Y-66814014D01*
X122611341Y-66896598D01*
X122597619Y-66953456D01*
X122589282Y-66978458D01*
X122588884Y-66978901D01*
X122564323Y-66991110D01*
X122513685Y-67011456D01*
X122447905Y-67035545D01*
X122447539Y-67035674D01*
X122364683Y-67066818D01*
X122267000Y-67106491D01*
X122174923Y-67146381D01*
X122170566Y-67148353D01*
X122020593Y-67216420D01*
X121688502Y-66989639D01*
X121586626Y-66920504D01*
X121494343Y-66858697D01*
X121416997Y-66807733D01*
X121359936Y-66771127D01*
X121328505Y-66752394D01*
X121325521Y-66751004D01*
X121302679Y-66757190D01*
X121260018Y-66787035D01*
X121195872Y-66841947D01*
X121108579Y-66923334D01*
X121019465Y-67009922D01*
X120933559Y-67095247D01*
X120856673Y-67173108D01*
X120793436Y-67238697D01*
X120748477Y-67287205D01*
X120726424Y-67313825D01*
X120725604Y-67315195D01*
X120723166Y-67333463D01*
X120732350Y-67363295D01*
X120755426Y-67408721D01*
X120794663Y-67473770D01*
X120852330Y-67562470D01*
X120929205Y-67676657D01*
X120997430Y-67777162D01*
X121058418Y-67867303D01*
X121108644Y-67941849D01*
X121144584Y-67995565D01*
X121162713Y-68023218D01*
X121163854Y-68025095D01*
X121161641Y-68051590D01*
X121144862Y-68103086D01*
X121116858Y-68169851D01*
X121106878Y-68191172D01*
X121063328Y-68286159D01*
X121016866Y-68393937D01*
X120979123Y-68487192D01*
X120951927Y-68556406D01*
X120930325Y-68609006D01*
X120917842Y-68636497D01*
X120916291Y-68638616D01*
X120893332Y-68642124D01*
X120839214Y-68651738D01*
X120761132Y-68666089D01*
X120666281Y-68683807D01*
X120561857Y-68703525D01*
X120455056Y-68723874D01*
X120353074Y-68743486D01*
X120263106Y-68760991D01*
X120192347Y-68775022D01*
X120147994Y-68784209D01*
X120137115Y-68786807D01*
X120125878Y-68793218D01*
X120117395Y-68807697D01*
X120111286Y-68835133D01*
X120107168Y-68880411D01*
X120104659Y-68948420D01*
X120103379Y-69044047D01*
X120102946Y-69172180D01*
X120102923Y-69224701D01*
X120102923Y-69651845D01*
X120205500Y-69672091D01*
X120262569Y-69683070D01*
X120347731Y-69699095D01*
X120450628Y-69718233D01*
X120560904Y-69738551D01*
X120591385Y-69744132D01*
X120693145Y-69763917D01*
X120781795Y-69783373D01*
X120849892Y-69800697D01*
X120889996Y-69814088D01*
X120896677Y-69818079D01*
X120913081Y-69846342D01*
X120936601Y-69901109D01*
X120962684Y-69971588D01*
X120967858Y-69986769D01*
X121002044Y-70080896D01*
X121044477Y-70187101D01*
X121086003Y-70282473D01*
X121086208Y-70282916D01*
X121155360Y-70432525D01*
X120700488Y-71101617D01*
X120992500Y-71394116D01*
X121080820Y-71481170D01*
X121161375Y-71557909D01*
X121229640Y-71620237D01*
X121281092Y-71664056D01*
X121311206Y-71685270D01*
X121315526Y-71686616D01*
X121340889Y-71676016D01*
X121392642Y-71646547D01*
X121465132Y-71601705D01*
X121552706Y-71544984D01*
X121647388Y-71481462D01*
X121743484Y-71416668D01*
X121829163Y-71360287D01*
X121898984Y-71315788D01*
X121947506Y-71286639D01*
X121969218Y-71276308D01*
X121995707Y-71285050D01*
X122045938Y-71308087D01*
X122109549Y-71340631D01*
X122116292Y-71344249D01*
X122201954Y-71387210D01*
X122260694Y-71408279D01*
X122297228Y-71408503D01*
X122316269Y-71388928D01*
X122316380Y-71388654D01*
X122325898Y-71365472D01*
X122348597Y-71310441D01*
X122382718Y-71227822D01*
X122426500Y-71121872D01*
X122478184Y-70996852D01*
X122536008Y-70857020D01*
X122592009Y-70721637D01*
X122653553Y-70572234D01*
X122710061Y-70433832D01*
X122759839Y-70310673D01*
X122801194Y-70207002D01*
X122832432Y-70127059D01*
X122851859Y-70075088D01*
X122857846Y-70055692D01*
X122842832Y-70033443D01*
X122803561Y-69997982D01*
X122751193Y-69958887D01*
X122602059Y-69835245D01*
X122485489Y-69693522D01*
X122402882Y-69536704D01*
X122355634Y-69367775D01*
X122345143Y-69189722D01*
X122352769Y-69107539D01*
X122394318Y-68937031D01*
X122465877Y-68786459D01*
X122563005Y-68657309D01*
X122681266Y-68551064D01*
X122816220Y-68469210D01*
X122963429Y-68413232D01*
X123118456Y-68384615D01*
X123276861Y-68384844D01*
X123434206Y-68415405D01*
X123586054Y-68477782D01*
X123727965Y-68573460D01*
X123787197Y-68627572D01*
X123900797Y-68766520D01*
X123979894Y-68918361D01*
X124025014Y-69078667D01*
X124036684Y-69243012D01*
X124015431Y-69406971D01*
X123961780Y-69566118D01*
X123876260Y-69716025D01*
X123759395Y-69852267D01*
X123628807Y-69958887D01*
X123574412Y-69999642D01*
X123535986Y-70034718D01*
X123522154Y-70055726D01*
X123529397Y-70078635D01*
X123549995Y-70133365D01*
X123582254Y-70215672D01*
X123624479Y-70321315D01*
X123674977Y-70446050D01*
X123732052Y-70585636D01*
X123788146Y-70721670D01*
X123850033Y-70871201D01*
X123907356Y-71009767D01*
X123958356Y-71133107D01*
X124001273Y-71236964D01*
X124034347Y-71317080D01*
X124055819Y-71369195D01*
X124063775Y-71388654D01*
X124082571Y-71408423D01*
X124118926Y-71408365D01*
X124177521Y-71387441D01*
X124263032Y-71344613D01*
X124263708Y-71344249D01*
X124328093Y-71311012D01*
X124380139Y-71286802D01*
X124409488Y-71276404D01*
X124410783Y-71276308D01*
X124432876Y-71286855D01*
X124481652Y-71316184D01*
X124551669Y-71360827D01*
X124637486Y-71417314D01*
X124732612Y-71481462D01*
X124829460Y-71546411D01*
X124916747Y-71602896D01*
X124988819Y-71647421D01*
X125040023Y-71676490D01*
X125064474Y-71686616D01*
X125086990Y-71673307D01*
X125132258Y-71636112D01*
X125195756Y-71579128D01*
X125272961Y-71506449D01*
X125359349Y-71422171D01*
X125387601Y-71394016D01*
X125679713Y-71101416D01*
X125457369Y-70775104D01*
X125389798Y-70674897D01*
X125330493Y-70584963D01*
X125282783Y-70510510D01*
X125249993Y-70456751D01*
X125235452Y-70428894D01*
X125235026Y-70426912D01*
X125242692Y-70400655D01*
X125263311Y-70347837D01*
X125293315Y-70277310D01*
X125314375Y-70230093D01*
X125353752Y-70139694D01*
X125390835Y-70048366D01*
X125419585Y-69971200D01*
X125427395Y-69947692D01*
X125449583Y-69884916D01*
X125471273Y-69836411D01*
X125483187Y-69818079D01*
X125509477Y-69806859D01*
X125566858Y-69790954D01*
X125647882Y-69772167D01*
X125745105Y-69752299D01*
X125788615Y-69744132D01*
X125899104Y-69723829D01*
X126005084Y-69704170D01*
X126096199Y-69687088D01*
X126162092Y-69674518D01*
X126174500Y-69672091D01*
X126277077Y-69651845D01*
X126277077Y-69224701D01*
X126276847Y-69084246D01*
X126275901Y-68977979D01*
X126273859Y-68901013D01*
X126270338Y-68848460D01*
X126264957Y-68815433D01*
X126257334Y-68797045D01*
X126247088Y-68788408D01*
X126242885Y-68786807D01*
X126217530Y-68781127D01*
X126161516Y-68769795D01*
X126082036Y-68754179D01*
X125986288Y-68735647D01*
X125881467Y-68715569D01*
X125774768Y-68695312D01*
X125673387Y-68676246D01*
X125584521Y-68659739D01*
X125515363Y-68647159D01*
X125473111Y-68639875D01*
X125463710Y-68638616D01*
X125455193Y-68621763D01*
X125436340Y-68576870D01*
X125410676Y-68512430D01*
X125400877Y-68487192D01*
X125361352Y-68389686D01*
X125314808Y-68281959D01*
X125273123Y-68191172D01*
X125242450Y-68121753D01*
X125222044Y-68064710D01*
X125215232Y-68029777D01*
X125216318Y-68025095D01*
X125230715Y-68002991D01*
X125263588Y-67953831D01*
X125311410Y-67882848D01*
X125370652Y-67795278D01*
X125437785Y-67696357D01*
X125451059Y-67676830D01*
X125528954Y-67561140D01*
X125586213Y-67473044D01*
X125625119Y-67408486D01*
X125647956Y-67363411D01*
X125657006Y-67333763D01*
X125654552Y-67315485D01*
X125654489Y-67315369D01*
X125635173Y-67291361D01*
X125592449Y-67244947D01*
X125530949Y-67180937D01*
X125455302Y-67104145D01*
X125370139Y-67019382D01*
X125360535Y-67009922D01*
X125253210Y-66905989D01*
X125170385Y-66829675D01*
X125110395Y-66779571D01*
X125071577Y-66754270D01*
X125054480Y-66751004D01*
X125029527Y-66765250D01*
X124977745Y-66798156D01*
X124904480Y-66846208D01*
X124815080Y-66905890D01*
X124714889Y-66973688D01*
X124691499Y-66989639D01*
X124359407Y-67216420D01*
X124209435Y-67148353D01*
X124118230Y-67108685D01*
X124020331Y-67068791D01*
X123936169Y-67036983D01*
X123932462Y-67035674D01*
X123866631Y-67011576D01*
X123815884Y-66991200D01*
X123791158Y-66978936D01*
X123791116Y-66978901D01*
X123783271Y-66956734D01*
X123769934Y-66902217D01*
X123752430Y-66821480D01*
X123732083Y-66720650D01*
X123710218Y-66605856D01*
X123708429Y-66596178D01*
X123686496Y-66477904D01*
X123666360Y-66370542D01*
X123649320Y-66280917D01*
X123636672Y-66215851D01*
X123629716Y-66182168D01*
X123629594Y-66181654D01*
X123625361Y-66167325D01*
X123617129Y-66156507D01*
X123599967Y-66148706D01*
X123568942Y-66143429D01*
X123519122Y-66140182D01*
X123445576Y-66138472D01*
X123343371Y-66137807D01*
X123207575Y-66137693D01*
X123190000Y-66137692D01*
X123050122Y-66137776D01*
X123050122Y-66137776D01*
G37*
X123050122Y-66137776D02*
X122944388Y-66138355D01*
X122867868Y-66139922D01*
X122815628Y-66142972D01*
X122782737Y-66147996D01*
X122764263Y-66155489D01*
X122755273Y-66165944D01*
X122750837Y-66179853D01*
X122750406Y-66181654D01*
X122743667Y-66214145D01*
X122731192Y-66278252D01*
X122714281Y-66367151D01*
X122694229Y-66474019D01*
X122672336Y-66592033D01*
X122671571Y-66596178D01*
X122649641Y-66711831D01*
X122629123Y-66814014D01*
X122611341Y-66896598D01*
X122597619Y-66953456D01*
X122589282Y-66978458D01*
X122588884Y-66978901D01*
X122564323Y-66991110D01*
X122513685Y-67011456D01*
X122447905Y-67035545D01*
X122447539Y-67035674D01*
X122364683Y-67066818D01*
X122267000Y-67106491D01*
X122174923Y-67146381D01*
X122170566Y-67148353D01*
X122020593Y-67216420D01*
X121688502Y-66989639D01*
X121586626Y-66920504D01*
X121494343Y-66858697D01*
X121416997Y-66807733D01*
X121359936Y-66771127D01*
X121328505Y-66752394D01*
X121325521Y-66751004D01*
X121302679Y-66757190D01*
X121260018Y-66787035D01*
X121195872Y-66841947D01*
X121108579Y-66923334D01*
X121019465Y-67009922D01*
X120933559Y-67095247D01*
X120856673Y-67173108D01*
X120793436Y-67238697D01*
X120748477Y-67287205D01*
X120726424Y-67313825D01*
X120725604Y-67315195D01*
X120723166Y-67333463D01*
X120732350Y-67363295D01*
X120755426Y-67408721D01*
X120794663Y-67473770D01*
X120852330Y-67562470D01*
X120929205Y-67676657D01*
X120997430Y-67777162D01*
X121058418Y-67867303D01*
X121108644Y-67941849D01*
X121144584Y-67995565D01*
X121162713Y-68023218D01*
X121163854Y-68025095D01*
X121161641Y-68051590D01*
X121144862Y-68103086D01*
X121116858Y-68169851D01*
X121106878Y-68191172D01*
X121063328Y-68286159D01*
X121016866Y-68393937D01*
X120979123Y-68487192D01*
X120951927Y-68556406D01*
X120930325Y-68609006D01*
X120917842Y-68636497D01*
X120916291Y-68638616D01*
X120893332Y-68642124D01*
X120839214Y-68651738D01*
X120761132Y-68666089D01*
X120666281Y-68683807D01*
X120561857Y-68703525D01*
X120455056Y-68723874D01*
X120353074Y-68743486D01*
X120263106Y-68760991D01*
X120192347Y-68775022D01*
X120147994Y-68784209D01*
X120137115Y-68786807D01*
X120125878Y-68793218D01*
X120117395Y-68807697D01*
X120111286Y-68835133D01*
X120107168Y-68880411D01*
X120104659Y-68948420D01*
X120103379Y-69044047D01*
X120102946Y-69172180D01*
X120102923Y-69224701D01*
X120102923Y-69651845D01*
X120205500Y-69672091D01*
X120262569Y-69683070D01*
X120347731Y-69699095D01*
X120450628Y-69718233D01*
X120560904Y-69738551D01*
X120591385Y-69744132D01*
X120693145Y-69763917D01*
X120781795Y-69783373D01*
X120849892Y-69800697D01*
X120889996Y-69814088D01*
X120896677Y-69818079D01*
X120913081Y-69846342D01*
X120936601Y-69901109D01*
X120962684Y-69971588D01*
X120967858Y-69986769D01*
X121002044Y-70080896D01*
X121044477Y-70187101D01*
X121086003Y-70282473D01*
X121086208Y-70282916D01*
X121155360Y-70432525D01*
X120700488Y-71101617D01*
X120992500Y-71394116D01*
X121080820Y-71481170D01*
X121161375Y-71557909D01*
X121229640Y-71620237D01*
X121281092Y-71664056D01*
X121311206Y-71685270D01*
X121315526Y-71686616D01*
X121340889Y-71676016D01*
X121392642Y-71646547D01*
X121465132Y-71601705D01*
X121552706Y-71544984D01*
X121647388Y-71481462D01*
X121743484Y-71416668D01*
X121829163Y-71360287D01*
X121898984Y-71315788D01*
X121947506Y-71286639D01*
X121969218Y-71276308D01*
X121995707Y-71285050D01*
X122045938Y-71308087D01*
X122109549Y-71340631D01*
X122116292Y-71344249D01*
X122201954Y-71387210D01*
X122260694Y-71408279D01*
X122297228Y-71408503D01*
X122316269Y-71388928D01*
X122316380Y-71388654D01*
X122325898Y-71365472D01*
X122348597Y-71310441D01*
X122382718Y-71227822D01*
X122426500Y-71121872D01*
X122478184Y-70996852D01*
X122536008Y-70857020D01*
X122592009Y-70721637D01*
X122653553Y-70572234D01*
X122710061Y-70433832D01*
X122759839Y-70310673D01*
X122801194Y-70207002D01*
X122832432Y-70127059D01*
X122851859Y-70075088D01*
X122857846Y-70055692D01*
X122842832Y-70033443D01*
X122803561Y-69997982D01*
X122751193Y-69958887D01*
X122602059Y-69835245D01*
X122485489Y-69693522D01*
X122402882Y-69536704D01*
X122355634Y-69367775D01*
X122345143Y-69189722D01*
X122352769Y-69107539D01*
X122394318Y-68937031D01*
X122465877Y-68786459D01*
X122563005Y-68657309D01*
X122681266Y-68551064D01*
X122816220Y-68469210D01*
X122963429Y-68413232D01*
X123118456Y-68384615D01*
X123276861Y-68384844D01*
X123434206Y-68415405D01*
X123586054Y-68477782D01*
X123727965Y-68573460D01*
X123787197Y-68627572D01*
X123900797Y-68766520D01*
X123979894Y-68918361D01*
X124025014Y-69078667D01*
X124036684Y-69243012D01*
X124015431Y-69406971D01*
X123961780Y-69566118D01*
X123876260Y-69716025D01*
X123759395Y-69852267D01*
X123628807Y-69958887D01*
X123574412Y-69999642D01*
X123535986Y-70034718D01*
X123522154Y-70055726D01*
X123529397Y-70078635D01*
X123549995Y-70133365D01*
X123582254Y-70215672D01*
X123624479Y-70321315D01*
X123674977Y-70446050D01*
X123732052Y-70585636D01*
X123788146Y-70721670D01*
X123850033Y-70871201D01*
X123907356Y-71009767D01*
X123958356Y-71133107D01*
X124001273Y-71236964D01*
X124034347Y-71317080D01*
X124055819Y-71369195D01*
X124063775Y-71388654D01*
X124082571Y-71408423D01*
X124118926Y-71408365D01*
X124177521Y-71387441D01*
X124263032Y-71344613D01*
X124263708Y-71344249D01*
X124328093Y-71311012D01*
X124380139Y-71286802D01*
X124409488Y-71276404D01*
X124410783Y-71276308D01*
X124432876Y-71286855D01*
X124481652Y-71316184D01*
X124551669Y-71360827D01*
X124637486Y-71417314D01*
X124732612Y-71481462D01*
X124829460Y-71546411D01*
X124916747Y-71602896D01*
X124988819Y-71647421D01*
X125040023Y-71676490D01*
X125064474Y-71686616D01*
X125086990Y-71673307D01*
X125132258Y-71636112D01*
X125195756Y-71579128D01*
X125272961Y-71506449D01*
X125359349Y-71422171D01*
X125387601Y-71394016D01*
X125679713Y-71101416D01*
X125457369Y-70775104D01*
X125389798Y-70674897D01*
X125330493Y-70584963D01*
X125282783Y-70510510D01*
X125249993Y-70456751D01*
X125235452Y-70428894D01*
X125235026Y-70426912D01*
X125242692Y-70400655D01*
X125263311Y-70347837D01*
X125293315Y-70277310D01*
X125314375Y-70230093D01*
X125353752Y-70139694D01*
X125390835Y-70048366D01*
X125419585Y-69971200D01*
X125427395Y-69947692D01*
X125449583Y-69884916D01*
X125471273Y-69836411D01*
X125483187Y-69818079D01*
X125509477Y-69806859D01*
X125566858Y-69790954D01*
X125647882Y-69772167D01*
X125745105Y-69752299D01*
X125788615Y-69744132D01*
X125899104Y-69723829D01*
X126005084Y-69704170D01*
X126096199Y-69687088D01*
X126162092Y-69674518D01*
X126174500Y-69672091D01*
X126277077Y-69651845D01*
X126277077Y-69224701D01*
X126276847Y-69084246D01*
X126275901Y-68977979D01*
X126273859Y-68901013D01*
X126270338Y-68848460D01*
X126264957Y-68815433D01*
X126257334Y-68797045D01*
X126247088Y-68788408D01*
X126242885Y-68786807D01*
X126217530Y-68781127D01*
X126161516Y-68769795D01*
X126082036Y-68754179D01*
X125986288Y-68735647D01*
X125881467Y-68715569D01*
X125774768Y-68695312D01*
X125673387Y-68676246D01*
X125584521Y-68659739D01*
X125515363Y-68647159D01*
X125473111Y-68639875D01*
X125463710Y-68638616D01*
X125455193Y-68621763D01*
X125436340Y-68576870D01*
X125410676Y-68512430D01*
X125400877Y-68487192D01*
X125361352Y-68389686D01*
X125314808Y-68281959D01*
X125273123Y-68191172D01*
X125242450Y-68121753D01*
X125222044Y-68064710D01*
X125215232Y-68029777D01*
X125216318Y-68025095D01*
X125230715Y-68002991D01*
X125263588Y-67953831D01*
X125311410Y-67882848D01*
X125370652Y-67795278D01*
X125437785Y-67696357D01*
X125451059Y-67676830D01*
X125528954Y-67561140D01*
X125586213Y-67473044D01*
X125625119Y-67408486D01*
X125647956Y-67363411D01*
X125657006Y-67333763D01*
X125654552Y-67315485D01*
X125654489Y-67315369D01*
X125635173Y-67291361D01*
X125592449Y-67244947D01*
X125530949Y-67180937D01*
X125455302Y-67104145D01*
X125370139Y-67019382D01*
X125360535Y-67009922D01*
X125253210Y-66905989D01*
X125170385Y-66829675D01*
X125110395Y-66779571D01*
X125071577Y-66754270D01*
X125054480Y-66751004D01*
X125029527Y-66765250D01*
X124977745Y-66798156D01*
X124904480Y-66846208D01*
X124815080Y-66905890D01*
X124714889Y-66973688D01*
X124691499Y-66989639D01*
X124359407Y-67216420D01*
X124209435Y-67148353D01*
X124118230Y-67108685D01*
X124020331Y-67068791D01*
X123936169Y-67036983D01*
X123932462Y-67035674D01*
X123866631Y-67011576D01*
X123815884Y-66991200D01*
X123791158Y-66978936D01*
X123791116Y-66978901D01*
X123783271Y-66956734D01*
X123769934Y-66902217D01*
X123752430Y-66821480D01*
X123732083Y-66720650D01*
X123710218Y-66605856D01*
X123708429Y-66596178D01*
X123686496Y-66477904D01*
X123666360Y-66370542D01*
X123649320Y-66280917D01*
X123636672Y-66215851D01*
X123629716Y-66182168D01*
X123629594Y-66181654D01*
X123625361Y-66167325D01*
X123617129Y-66156507D01*
X123599967Y-66148706D01*
X123568942Y-66143429D01*
X123519122Y-66140182D01*
X123445576Y-66138472D01*
X123343371Y-66137807D01*
X123207575Y-66137693D01*
X123190000Y-66137692D01*
X123050122Y-66137776D01*
G36*
X118944776Y-72497838D02*
X118867472Y-72548361D01*
X118830186Y-72593590D01*
X118800647Y-72675663D01*
X118798301Y-72740607D01*
X118803615Y-72827445D01*
X119003885Y-72915103D01*
X119101261Y-72959887D01*
X119164887Y-72995913D01*
X119197971Y-73027117D01*
X119203720Y-73057436D01*
X119185342Y-73090805D01*
X119165077Y-73112923D01*
X119106111Y-73148393D01*
X119041976Y-73150879D01*
X118983074Y-73123235D01*
X118939803Y-73068320D01*
X118932064Y-73048928D01*
X118894994Y-72988364D01*
X118852346Y-72962552D01*
X118793846Y-72940471D01*
X118793846Y-73024184D01*
X118799018Y-73081150D01*
X118819277Y-73129189D01*
X118861738Y-73184346D01*
X118868049Y-73191514D01*
X118915280Y-73240585D01*
X118955879Y-73266920D01*
X119006672Y-73279035D01*
X119048780Y-73283003D01*
X119124098Y-73283991D01*
X119177714Y-73271466D01*
X119211162Y-73252869D01*
X119263732Y-73211975D01*
X119300121Y-73167748D01*
X119323150Y-73112126D01*
X119335641Y-73037047D01*
X119340413Y-72934449D01*
X119340794Y-72882376D01*
X119339499Y-72819948D01*
X119221529Y-72819948D01*
X119220161Y-72853438D01*
X119216751Y-72858923D01*
X119194247Y-72851472D01*
X119145818Y-72831753D01*
X119081092Y-72803718D01*
X119067557Y-72797692D01*
X118985756Y-72756096D01*
X118940688Y-72719538D01*
X118930783Y-72685296D01*
X118954474Y-72650648D01*
X118974040Y-72635339D01*
X119044640Y-72604721D01*
X119110720Y-72609780D01*
X119166041Y-72647151D01*
X119204364Y-72713473D01*
X119216651Y-72766116D01*
X119221529Y-72819948D01*
X119339499Y-72819948D01*
X119338270Y-72760720D01*
X119328968Y-72670710D01*
X119310540Y-72605167D01*
X119280640Y-72556912D01*
X119236920Y-72518767D01*
X119217859Y-72506440D01*
X119131274Y-72474336D01*
X119036478Y-72472316D01*
X118944776Y-72497838D01*
X118944776Y-72497838D01*
G37*
X118944776Y-72497838D02*
X118867472Y-72548361D01*
X118830186Y-72593590D01*
X118800647Y-72675663D01*
X118798301Y-72740607D01*
X118803615Y-72827445D01*
X119003885Y-72915103D01*
X119101261Y-72959887D01*
X119164887Y-72995913D01*
X119197971Y-73027117D01*
X119203720Y-73057436D01*
X119185342Y-73090805D01*
X119165077Y-73112923D01*
X119106111Y-73148393D01*
X119041976Y-73150879D01*
X118983074Y-73123235D01*
X118939803Y-73068320D01*
X118932064Y-73048928D01*
X118894994Y-72988364D01*
X118852346Y-72962552D01*
X118793846Y-72940471D01*
X118793846Y-73024184D01*
X118799018Y-73081150D01*
X118819277Y-73129189D01*
X118861738Y-73184346D01*
X118868049Y-73191514D01*
X118915280Y-73240585D01*
X118955879Y-73266920D01*
X119006672Y-73279035D01*
X119048780Y-73283003D01*
X119124098Y-73283991D01*
X119177714Y-73271466D01*
X119211162Y-73252869D01*
X119263732Y-73211975D01*
X119300121Y-73167748D01*
X119323150Y-73112126D01*
X119335641Y-73037047D01*
X119340413Y-72934449D01*
X119340794Y-72882376D01*
X119339499Y-72819948D01*
X119221529Y-72819948D01*
X119220161Y-72853438D01*
X119216751Y-72858923D01*
X119194247Y-72851472D01*
X119145818Y-72831753D01*
X119081092Y-72803718D01*
X119067557Y-72797692D01*
X118985756Y-72756096D01*
X118940688Y-72719538D01*
X118930783Y-72685296D01*
X118954474Y-72650648D01*
X118974040Y-72635339D01*
X119044640Y-72604721D01*
X119110720Y-72609780D01*
X119166041Y-72647151D01*
X119204364Y-72713473D01*
X119216651Y-72766116D01*
X119221529Y-72819948D01*
X119339499Y-72819948D01*
X119338270Y-72760720D01*
X119328968Y-72670710D01*
X119310540Y-72605167D01*
X119280640Y-72556912D01*
X119236920Y-72518767D01*
X119217859Y-72506440D01*
X119131274Y-72474336D01*
X119036478Y-72472316D01*
X118944776Y-72497838D01*
G36*
X119619193Y-72486782D02*
X119595839Y-72496988D01*
X119540098Y-72541134D01*
X119492431Y-72604967D01*
X119462952Y-72673087D01*
X119458154Y-72706670D01*
X119474240Y-72753556D01*
X119509525Y-72778365D01*
X119547356Y-72793387D01*
X119564679Y-72796155D01*
X119573114Y-72776066D01*
X119589770Y-72732351D01*
X119597077Y-72712598D01*
X119638052Y-72644271D01*
X119697378Y-72610191D01*
X119773448Y-72611239D01*
X119779082Y-72612581D01*
X119819695Y-72631836D01*
X119849552Y-72669375D01*
X119869945Y-72729809D01*
X119882164Y-72817751D01*
X119887500Y-72937813D01*
X119888000Y-73001698D01*
X119888248Y-73102403D01*
X119889874Y-73171054D01*
X119894199Y-73214673D01*
X119902546Y-73240282D01*
X119916235Y-73254903D01*
X119936589Y-73265558D01*
X119937766Y-73266095D01*
X119976962Y-73282667D01*
X119996381Y-73288769D01*
X119999365Y-73270319D01*
X120001919Y-73219323D01*
X120003860Y-73142308D01*
X120005003Y-73045805D01*
X120005231Y-72975184D01*
X120004068Y-72838525D01*
X119999521Y-72734851D01*
X119990001Y-72658108D01*
X119973919Y-72602246D01*
X119949687Y-72561212D01*
X119915714Y-72528954D01*
X119882167Y-72506440D01*
X119801501Y-72476476D01*
X119707619Y-72469718D01*
X119619193Y-72486782D01*
X119619193Y-72486782D01*
G37*
X119619193Y-72486782D02*
X119595839Y-72496988D01*
X119540098Y-72541134D01*
X119492431Y-72604967D01*
X119462952Y-72673087D01*
X119458154Y-72706670D01*
X119474240Y-72753556D01*
X119509525Y-72778365D01*
X119547356Y-72793387D01*
X119564679Y-72796155D01*
X119573114Y-72776066D01*
X119589770Y-72732351D01*
X119597077Y-72712598D01*
X119638052Y-72644271D01*
X119697378Y-72610191D01*
X119773448Y-72611239D01*
X119779082Y-72612581D01*
X119819695Y-72631836D01*
X119849552Y-72669375D01*
X119869945Y-72729809D01*
X119882164Y-72817751D01*
X119887500Y-72937813D01*
X119888000Y-73001698D01*
X119888248Y-73102403D01*
X119889874Y-73171054D01*
X119894199Y-73214673D01*
X119902546Y-73240282D01*
X119916235Y-73254903D01*
X119936589Y-73265558D01*
X119937766Y-73266095D01*
X119976962Y-73282667D01*
X119996381Y-73288769D01*
X119999365Y-73270319D01*
X120001919Y-73219323D01*
X120003860Y-73142308D01*
X120005003Y-73045805D01*
X120005231Y-72975184D01*
X120004068Y-72838525D01*
X119999521Y-72734851D01*
X119990001Y-72658108D01*
X119973919Y-72602246D01*
X119949687Y-72561212D01*
X119915714Y-72528954D01*
X119882167Y-72506440D01*
X119801501Y-72476476D01*
X119707619Y-72469718D01*
X119619193Y-72486782D01*
G36*
X120302667Y-72483528D02*
X120246410Y-72509117D01*
X120202253Y-72540124D01*
X120169899Y-72574795D01*
X120147562Y-72619520D01*
X120133454Y-72680692D01*
X120125789Y-72764701D01*
X120122780Y-72877940D01*
X120122462Y-72952509D01*
X120122462Y-73243420D01*
X120172227Y-73266095D01*
X120211424Y-73282667D01*
X120230843Y-73288769D01*
X120234558Y-73270610D01*
X120237505Y-73221648D01*
X120239309Y-73150153D01*
X120239692Y-73093385D01*
X120241339Y-73011371D01*
X120245778Y-72946309D01*
X120252260Y-72906467D01*
X120257410Y-72898000D01*
X120292023Y-72906646D01*
X120346360Y-72928823D01*
X120409278Y-72958886D01*
X120469632Y-72991192D01*
X120516279Y-73020098D01*
X120538074Y-73039961D01*
X120538161Y-73040175D01*
X120536286Y-73076935D01*
X120519475Y-73112026D01*
X120489961Y-73140528D01*
X120446884Y-73150061D01*
X120410068Y-73148950D01*
X120357926Y-73148133D01*
X120330556Y-73160349D01*
X120314118Y-73192624D01*
X120312045Y-73198710D01*
X120304919Y-73244739D01*
X120323976Y-73272687D01*
X120373647Y-73286007D01*
X120427303Y-73288470D01*
X120523858Y-73270210D01*
X120573841Y-73244131D01*
X120635571Y-73182868D01*
X120668310Y-73107670D01*
X120671247Y-73028211D01*
X120643576Y-72954167D01*
X120601953Y-72907769D01*
X120560396Y-72881793D01*
X120495078Y-72848907D01*
X120418962Y-72815557D01*
X120406274Y-72810461D01*
X120322667Y-72773565D01*
X120274470Y-72741046D01*
X120258970Y-72708718D01*
X120273450Y-72672394D01*
X120298308Y-72644000D01*
X120357061Y-72609039D01*
X120421707Y-72606417D01*
X120480992Y-72633358D01*
X120523661Y-72687088D01*
X120529261Y-72700950D01*
X120561867Y-72751936D01*
X120609470Y-72789787D01*
X120669539Y-72820850D01*
X120669539Y-72732768D01*
X120666003Y-72678951D01*
X120650844Y-72636534D01*
X120617232Y-72591279D01*
X120584965Y-72556420D01*
X120534791Y-72507062D01*
X120495807Y-72480547D01*
X120453936Y-72469911D01*
X120406540Y-72468154D01*
X120302667Y-72483528D01*
X120302667Y-72483528D01*
G37*
X120302667Y-72483528D02*
X120246410Y-72509117D01*
X120202253Y-72540124D01*
X120169899Y-72574795D01*
X120147562Y-72619520D01*
X120133454Y-72680692D01*
X120125789Y-72764701D01*
X120122780Y-72877940D01*
X120122462Y-72952509D01*
X120122462Y-73243420D01*
X120172227Y-73266095D01*
X120211424Y-73282667D01*
X120230843Y-73288769D01*
X120234558Y-73270610D01*
X120237505Y-73221648D01*
X120239309Y-73150153D01*
X120239692Y-73093385D01*
X120241339Y-73011371D01*
X120245778Y-72946309D01*
X120252260Y-72906467D01*
X120257410Y-72898000D01*
X120292023Y-72906646D01*
X120346360Y-72928823D01*
X120409278Y-72958886D01*
X120469632Y-72991192D01*
X120516279Y-73020098D01*
X120538074Y-73039961D01*
X120538161Y-73040175D01*
X120536286Y-73076935D01*
X120519475Y-73112026D01*
X120489961Y-73140528D01*
X120446884Y-73150061D01*
X120410068Y-73148950D01*
X120357926Y-73148133D01*
X120330556Y-73160349D01*
X120314118Y-73192624D01*
X120312045Y-73198710D01*
X120304919Y-73244739D01*
X120323976Y-73272687D01*
X120373647Y-73286007D01*
X120427303Y-73288470D01*
X120523858Y-73270210D01*
X120573841Y-73244131D01*
X120635571Y-73182868D01*
X120668310Y-73107670D01*
X120671247Y-73028211D01*
X120643576Y-72954167D01*
X120601953Y-72907769D01*
X120560396Y-72881793D01*
X120495078Y-72848907D01*
X120418962Y-72815557D01*
X120406274Y-72810461D01*
X120322667Y-72773565D01*
X120274470Y-72741046D01*
X120258970Y-72708718D01*
X120273450Y-72672394D01*
X120298308Y-72644000D01*
X120357061Y-72609039D01*
X120421707Y-72606417D01*
X120480992Y-72633358D01*
X120523661Y-72687088D01*
X120529261Y-72700950D01*
X120561867Y-72751936D01*
X120609470Y-72789787D01*
X120669539Y-72820850D01*
X120669539Y-72732768D01*
X120666003Y-72678951D01*
X120650844Y-72636534D01*
X120617232Y-72591279D01*
X120584965Y-72556420D01*
X120534791Y-72507062D01*
X120495807Y-72480547D01*
X120453936Y-72469911D01*
X120406540Y-72468154D01*
X120302667Y-72483528D01*
G36*
X120794071Y-72486662D02*
X120791089Y-72538068D01*
X120788753Y-72616192D01*
X120787251Y-72714857D01*
X120786769Y-72818343D01*
X120786769Y-73168533D01*
X120848599Y-73230363D01*
X120891207Y-73268462D01*
X120928610Y-73283895D01*
X120979730Y-73282918D01*
X121000022Y-73280433D01*
X121063446Y-73273200D01*
X121115905Y-73269055D01*
X121128692Y-73268672D01*
X121171801Y-73271176D01*
X121233456Y-73277462D01*
X121257362Y-73280433D01*
X121316078Y-73285028D01*
X121355536Y-73275046D01*
X121394662Y-73244228D01*
X121408785Y-73230363D01*
X121470615Y-73168533D01*
X121470615Y-72513503D01*
X121420850Y-72490829D01*
X121377998Y-72474034D01*
X121352927Y-72468154D01*
X121346499Y-72486736D01*
X121340491Y-72538655D01*
X121335303Y-72618172D01*
X121331336Y-72719546D01*
X121329423Y-72805192D01*
X121324077Y-73142231D01*
X121277440Y-73148825D01*
X121235024Y-73144214D01*
X121214240Y-73129287D01*
X121208430Y-73101377D01*
X121203470Y-73041925D01*
X121199754Y-72958466D01*
X121197676Y-72858532D01*
X121197376Y-72807104D01*
X121197077Y-72511054D01*
X121135546Y-72489604D01*
X121091996Y-72475020D01*
X121068306Y-72468219D01*
X121067623Y-72468154D01*
X121065246Y-72486642D01*
X121062634Y-72537906D01*
X121060005Y-72615649D01*
X121057579Y-72713574D01*
X121055885Y-72805192D01*
X121050539Y-73142231D01*
X120933308Y-73142231D01*
X120927928Y-72834746D01*
X120922549Y-72527261D01*
X120865399Y-72497707D01*
X120823203Y-72477413D01*
X120798230Y-72468204D01*
X120797509Y-72468154D01*
X120794071Y-72486662D01*
X120794071Y-72486662D01*
G37*
X120794071Y-72486662D02*
X120791089Y-72538068D01*
X120788753Y-72616192D01*
X120787251Y-72714857D01*
X120786769Y-72818343D01*
X120786769Y-73168533D01*
X120848599Y-73230363D01*
X120891207Y-73268462D01*
X120928610Y-73283895D01*
X120979730Y-73282918D01*
X121000022Y-73280433D01*
X121063446Y-73273200D01*
X121115905Y-73269055D01*
X121128692Y-73268672D01*
X121171801Y-73271176D01*
X121233456Y-73277462D01*
X121257362Y-73280433D01*
X121316078Y-73285028D01*
X121355536Y-73275046D01*
X121394662Y-73244228D01*
X121408785Y-73230363D01*
X121470615Y-73168533D01*
X121470615Y-72513503D01*
X121420850Y-72490829D01*
X121377998Y-72474034D01*
X121352927Y-72468154D01*
X121346499Y-72486736D01*
X121340491Y-72538655D01*
X121335303Y-72618172D01*
X121331336Y-72719546D01*
X121329423Y-72805192D01*
X121324077Y-73142231D01*
X121277440Y-73148825D01*
X121235024Y-73144214D01*
X121214240Y-73129287D01*
X121208430Y-73101377D01*
X121203470Y-73041925D01*
X121199754Y-72958466D01*
X121197676Y-72858532D01*
X121197376Y-72807104D01*
X121197077Y-72511054D01*
X121135546Y-72489604D01*
X121091996Y-72475020D01*
X121068306Y-72468219D01*
X121067623Y-72468154D01*
X121065246Y-72486642D01*
X121062634Y-72537906D01*
X121060005Y-72615649D01*
X121057579Y-72713574D01*
X121055885Y-72805192D01*
X121050539Y-73142231D01*
X120933308Y-73142231D01*
X120927928Y-72834746D01*
X120922549Y-72527261D01*
X120865399Y-72497707D01*
X120823203Y-72477413D01*
X120798230Y-72468204D01*
X120797509Y-72468154D01*
X120794071Y-72486662D01*
G36*
X121587919Y-72630289D02*
X121588167Y-72776320D01*
X121589128Y-72888655D01*
X121591206Y-72972678D01*
X121594807Y-73033769D01*
X121600335Y-73077309D01*
X121608196Y-73108679D01*
X121618793Y-73133262D01*
X121626818Y-73147294D01*
X121693272Y-73223388D01*
X121777530Y-73271084D01*
X121870751Y-73288199D01*
X121964100Y-73272546D01*
X122019688Y-73244418D01*
X122078043Y-73195760D01*
X122117814Y-73136333D01*
X122141810Y-73058507D01*
X122152839Y-72954652D01*
X122154401Y-72878462D01*
X122154191Y-72872986D01*
X122017692Y-72872986D01*
X122016859Y-72960355D01*
X122013039Y-73018192D01*
X122004254Y-73056029D01*
X121988526Y-73083398D01*
X121969734Y-73104042D01*
X121906625Y-73143890D01*
X121838863Y-73147295D01*
X121774821Y-73114025D01*
X121769836Y-73109517D01*
X121748561Y-73086067D01*
X121735221Y-73058166D01*
X121727999Y-73016641D01*
X121725077Y-72952316D01*
X121724615Y-72881200D01*
X121725617Y-72791858D01*
X121729762Y-72732258D01*
X121738764Y-72693089D01*
X121754333Y-72665040D01*
X121767098Y-72650144D01*
X121826400Y-72612575D01*
X121894699Y-72608057D01*
X121959890Y-72636753D01*
X121972472Y-72647406D01*
X121993889Y-72671063D01*
X122007256Y-72699251D01*
X122014434Y-72741245D01*
X122017281Y-72806319D01*
X122017692Y-72872986D01*
X122154191Y-72872986D01*
X122149678Y-72755765D01*
X122133638Y-72663577D01*
X122103472Y-72594269D01*
X122056371Y-72540211D01*
X122019688Y-72512505D01*
X121953010Y-72482572D01*
X121875728Y-72468678D01*
X121803890Y-72472397D01*
X121763692Y-72487400D01*
X121747918Y-72491670D01*
X121737450Y-72475750D01*
X121730144Y-72433089D01*
X121724615Y-72368106D01*
X121718563Y-72295732D01*
X121710156Y-72252187D01*
X121694859Y-72227287D01*
X121668136Y-72210845D01*
X121651346Y-72203564D01*
X121587846Y-72176963D01*
X121587919Y-72630289D01*
X121587919Y-72630289D01*
G37*
X121587919Y-72630289D02*
X121588167Y-72776320D01*
X121589128Y-72888655D01*
X121591206Y-72972678D01*
X121594807Y-73033769D01*
X121600335Y-73077309D01*
X121608196Y-73108679D01*
X121618793Y-73133262D01*
X121626818Y-73147294D01*
X121693272Y-73223388D01*
X121777530Y-73271084D01*
X121870751Y-73288199D01*
X121964100Y-73272546D01*
X122019688Y-73244418D01*
X122078043Y-73195760D01*
X122117814Y-73136333D01*
X122141810Y-73058507D01*
X122152839Y-72954652D01*
X122154401Y-72878462D01*
X122154191Y-72872986D01*
X122017692Y-72872986D01*
X122016859Y-72960355D01*
X122013039Y-73018192D01*
X122004254Y-73056029D01*
X121988526Y-73083398D01*
X121969734Y-73104042D01*
X121906625Y-73143890D01*
X121838863Y-73147295D01*
X121774821Y-73114025D01*
X121769836Y-73109517D01*
X121748561Y-73086067D01*
X121735221Y-73058166D01*
X121727999Y-73016641D01*
X121725077Y-72952316D01*
X121724615Y-72881200D01*
X121725617Y-72791858D01*
X121729762Y-72732258D01*
X121738764Y-72693089D01*
X121754333Y-72665040D01*
X121767098Y-72650144D01*
X121826400Y-72612575D01*
X121894699Y-72608057D01*
X121959890Y-72636753D01*
X121972472Y-72647406D01*
X121993889Y-72671063D01*
X122007256Y-72699251D01*
X122014434Y-72741245D01*
X122017281Y-72806319D01*
X122017692Y-72872986D01*
X122154191Y-72872986D01*
X122149678Y-72755765D01*
X122133638Y-72663577D01*
X122103472Y-72594269D01*
X122056371Y-72540211D01*
X122019688Y-72512505D01*
X121953010Y-72482572D01*
X121875728Y-72468678D01*
X121803890Y-72472397D01*
X121763692Y-72487400D01*
X121747918Y-72491670D01*
X121737450Y-72475750D01*
X121730144Y-72433089D01*
X121724615Y-72368106D01*
X121718563Y-72295732D01*
X121710156Y-72252187D01*
X121694859Y-72227287D01*
X121668136Y-72210845D01*
X121651346Y-72203564D01*
X121587846Y-72176963D01*
X121587919Y-72630289D01*
G36*
X122476638Y-72474670D02*
X122387883Y-72507421D01*
X122315978Y-72565350D01*
X122287856Y-72606128D01*
X122257198Y-72680954D01*
X122257835Y-72735058D01*
X122290013Y-72771446D01*
X122301919Y-72777633D01*
X122353325Y-72796925D01*
X122379578Y-72791982D01*
X122388470Y-72759587D01*
X122388923Y-72741692D01*
X122405203Y-72675859D01*
X122447635Y-72629807D01*
X122506612Y-72607564D01*
X122572525Y-72613161D01*
X122626105Y-72642229D01*
X122644202Y-72658810D01*
X122657029Y-72678925D01*
X122665694Y-72709332D01*
X122671304Y-72756788D01*
X122674965Y-72828050D01*
X122677785Y-72929875D01*
X122678516Y-72962115D01*
X122681180Y-73072410D01*
X122684208Y-73150036D01*
X122688750Y-73201396D01*
X122695954Y-73232890D01*
X122706967Y-73250920D01*
X122722940Y-73261888D01*
X122733166Y-73266733D01*
X122776594Y-73283301D01*
X122802158Y-73288769D01*
X122810605Y-73270507D01*
X122815761Y-73215296D01*
X122817654Y-73122499D01*
X122816311Y-72991478D01*
X122815893Y-72971269D01*
X122812942Y-72851733D01*
X122809452Y-72764449D01*
X122804486Y-72702591D01*
X122797107Y-72659336D01*
X122786376Y-72627860D01*
X122771355Y-72601339D01*
X122763498Y-72589975D01*
X122718447Y-72539692D01*
X122668060Y-72500581D01*
X122661892Y-72497167D01*
X122571542Y-72470212D01*
X122476638Y-72474670D01*
X122476638Y-72474670D01*
G37*
X122476638Y-72474670D02*
X122387883Y-72507421D01*
X122315978Y-72565350D01*
X122287856Y-72606128D01*
X122257198Y-72680954D01*
X122257835Y-72735058D01*
X122290013Y-72771446D01*
X122301919Y-72777633D01*
X122353325Y-72796925D01*
X122379578Y-72791982D01*
X122388470Y-72759587D01*
X122388923Y-72741692D01*
X122405203Y-72675859D01*
X122447635Y-72629807D01*
X122506612Y-72607564D01*
X122572525Y-72613161D01*
X122626105Y-72642229D01*
X122644202Y-72658810D01*
X122657029Y-72678925D01*
X122665694Y-72709332D01*
X122671304Y-72756788D01*
X122674965Y-72828050D01*
X122677785Y-72929875D01*
X122678516Y-72962115D01*
X122681180Y-73072410D01*
X122684208Y-73150036D01*
X122688750Y-73201396D01*
X122695954Y-73232890D01*
X122706967Y-73250920D01*
X122722940Y-73261888D01*
X122733166Y-73266733D01*
X122776594Y-73283301D01*
X122802158Y-73288769D01*
X122810605Y-73270507D01*
X122815761Y-73215296D01*
X122817654Y-73122499D01*
X122816311Y-72991478D01*
X122815893Y-72971269D01*
X122812942Y-72851733D01*
X122809452Y-72764449D01*
X122804486Y-72702591D01*
X122797107Y-72659336D01*
X122786376Y-72627860D01*
X122771355Y-72601339D01*
X122763498Y-72589975D01*
X122718447Y-72539692D01*
X122668060Y-72500581D01*
X122661892Y-72497167D01*
X122571542Y-72470212D01*
X122476638Y-72474670D01*
G36*
X123136499Y-72476303D02*
X123059940Y-72504733D01*
X123059064Y-72505279D01*
X123011715Y-72540127D01*
X122976759Y-72580852D01*
X122952175Y-72633925D01*
X122935938Y-72705814D01*
X122926025Y-72802992D01*
X122920414Y-72931928D01*
X122919923Y-72950298D01*
X122912859Y-73227287D01*
X122972305Y-73258028D01*
X123015319Y-73278802D01*
X123041290Y-73288646D01*
X123042491Y-73288769D01*
X123046986Y-73270606D01*
X123050556Y-73221612D01*
X123052752Y-73150031D01*
X123053231Y-73092068D01*
X123053242Y-72998170D01*
X123057534Y-72939203D01*
X123072497Y-72911079D01*
X123104518Y-72909706D01*
X123159986Y-72930998D01*
X123243731Y-72970136D01*
X123305311Y-73002643D01*
X123336983Y-73030845D01*
X123346294Y-73061582D01*
X123346308Y-73063104D01*
X123330943Y-73116054D01*
X123285453Y-73144660D01*
X123215834Y-73148803D01*
X123165687Y-73148084D01*
X123139246Y-73162527D01*
X123122757Y-73197218D01*
X123113267Y-73241416D01*
X123126943Y-73266493D01*
X123132093Y-73270082D01*
X123180575Y-73284496D01*
X123248469Y-73286537D01*
X123318388Y-73276983D01*
X123367932Y-73259522D01*
X123436430Y-73201364D01*
X123475366Y-73120408D01*
X123483077Y-73057160D01*
X123477193Y-73000111D01*
X123455899Y-72953542D01*
X123413735Y-72912181D01*
X123345241Y-72870755D01*
X123244956Y-72823993D01*
X123238846Y-72821350D01*
X123148510Y-72779617D01*
X123092765Y-72745391D01*
X123068871Y-72714635D01*
X123074087Y-72683311D01*
X123105672Y-72647383D01*
X123115117Y-72639116D01*
X123178383Y-72607058D01*
X123243936Y-72608407D01*
X123301028Y-72639838D01*
X123338907Y-72698024D01*
X123342426Y-72709446D01*
X123376700Y-72764837D01*
X123420191Y-72791518D01*
X123483077Y-72817960D01*
X123483077Y-72749548D01*
X123463948Y-72650110D01*
X123407169Y-72558902D01*
X123377622Y-72528389D01*
X123310458Y-72489228D01*
X123225044Y-72471500D01*
X123136499Y-72476303D01*
X123136499Y-72476303D01*
G37*
X123136499Y-72476303D02*
X123059940Y-72504733D01*
X123059064Y-72505279D01*
X123011715Y-72540127D01*
X122976759Y-72580852D01*
X122952175Y-72633925D01*
X122935938Y-72705814D01*
X122926025Y-72802992D01*
X122920414Y-72931928D01*
X122919923Y-72950298D01*
X122912859Y-73227287D01*
X122972305Y-73258028D01*
X123015319Y-73278802D01*
X123041290Y-73288646D01*
X123042491Y-73288769D01*
X123046986Y-73270606D01*
X123050556Y-73221612D01*
X123052752Y-73150031D01*
X123053231Y-73092068D01*
X123053242Y-72998170D01*
X123057534Y-72939203D01*
X123072497Y-72911079D01*
X123104518Y-72909706D01*
X123159986Y-72930998D01*
X123243731Y-72970136D01*
X123305311Y-73002643D01*
X123336983Y-73030845D01*
X123346294Y-73061582D01*
X123346308Y-73063104D01*
X123330943Y-73116054D01*
X123285453Y-73144660D01*
X123215834Y-73148803D01*
X123165687Y-73148084D01*
X123139246Y-73162527D01*
X123122757Y-73197218D01*
X123113267Y-73241416D01*
X123126943Y-73266493D01*
X123132093Y-73270082D01*
X123180575Y-73284496D01*
X123248469Y-73286537D01*
X123318388Y-73276983D01*
X123367932Y-73259522D01*
X123436430Y-73201364D01*
X123475366Y-73120408D01*
X123483077Y-73057160D01*
X123477193Y-73000111D01*
X123455899Y-72953542D01*
X123413735Y-72912181D01*
X123345241Y-72870755D01*
X123244956Y-72823993D01*
X123238846Y-72821350D01*
X123148510Y-72779617D01*
X123092765Y-72745391D01*
X123068871Y-72714635D01*
X123074087Y-72683311D01*
X123105672Y-72647383D01*
X123115117Y-72639116D01*
X123178383Y-72607058D01*
X123243936Y-72608407D01*
X123301028Y-72639838D01*
X123338907Y-72698024D01*
X123342426Y-72709446D01*
X123376700Y-72764837D01*
X123420191Y-72791518D01*
X123483077Y-72817960D01*
X123483077Y-72749548D01*
X123463948Y-72650110D01*
X123407169Y-72558902D01*
X123377622Y-72528389D01*
X123310458Y-72489228D01*
X123225044Y-72471500D01*
X123136499Y-72476303D01*
G36*
X124030154Y-72342120D02*
X124024428Y-72421980D01*
X124017851Y-72469039D01*
X124008738Y-72489566D01*
X123995402Y-72489829D01*
X123991077Y-72487378D01*
X123933556Y-72469636D01*
X123858732Y-72470672D01*
X123782661Y-72488910D01*
X123735082Y-72512505D01*
X123686298Y-72550198D01*
X123650636Y-72592855D01*
X123626155Y-72647057D01*
X123610913Y-72719384D01*
X123602970Y-72816419D01*
X123600384Y-72944742D01*
X123600338Y-72969358D01*
X123600308Y-73245870D01*
X123661839Y-73267320D01*
X123705541Y-73281912D01*
X123729518Y-73288706D01*
X123730223Y-73288769D01*
X123732585Y-73270345D01*
X123734594Y-73219526D01*
X123736099Y-73142993D01*
X123736947Y-73047430D01*
X123737077Y-72989329D01*
X123737349Y-72874771D01*
X123738748Y-72792667D01*
X123742151Y-72736393D01*
X123748433Y-72699326D01*
X123758471Y-72674844D01*
X123773139Y-72656325D01*
X123782298Y-72647406D01*
X123845211Y-72611466D01*
X123913864Y-72608775D01*
X123976152Y-72639170D01*
X123987671Y-72650144D01*
X124004567Y-72670779D01*
X124016286Y-72695256D01*
X124023767Y-72730647D01*
X124027946Y-72784026D01*
X124029763Y-72862466D01*
X124030154Y-72970617D01*
X124030154Y-73245870D01*
X124091685Y-73267320D01*
X124135387Y-73281912D01*
X124159364Y-73288706D01*
X124160070Y-73288769D01*
X124161874Y-73270069D01*
X124163500Y-73217322D01*
X124164883Y-73135557D01*
X124165958Y-73029805D01*
X124166660Y-72905094D01*
X124166923Y-72766455D01*
X124166923Y-72231806D01*
X124039923Y-72178236D01*
X124030154Y-72342120D01*
X124030154Y-72342120D01*
G37*
X124030154Y-72342120D02*
X124024428Y-72421980D01*
X124017851Y-72469039D01*
X124008738Y-72489566D01*
X123995402Y-72489829D01*
X123991077Y-72487378D01*
X123933556Y-72469636D01*
X123858732Y-72470672D01*
X123782661Y-72488910D01*
X123735082Y-72512505D01*
X123686298Y-72550198D01*
X123650636Y-72592855D01*
X123626155Y-72647057D01*
X123610913Y-72719384D01*
X123602970Y-72816419D01*
X123600384Y-72944742D01*
X123600338Y-72969358D01*
X123600308Y-73245870D01*
X123661839Y-73267320D01*
X123705541Y-73281912D01*
X123729518Y-73288706D01*
X123730223Y-73288769D01*
X123732585Y-73270345D01*
X123734594Y-73219526D01*
X123736099Y-73142993D01*
X123736947Y-73047430D01*
X123737077Y-72989329D01*
X123737349Y-72874771D01*
X123738748Y-72792667D01*
X123742151Y-72736393D01*
X123748433Y-72699326D01*
X123758471Y-72674844D01*
X123773139Y-72656325D01*
X123782298Y-72647406D01*
X123845211Y-72611466D01*
X123913864Y-72608775D01*
X123976152Y-72639170D01*
X123987671Y-72650144D01*
X124004567Y-72670779D01*
X124016286Y-72695256D01*
X124023767Y-72730647D01*
X124027946Y-72784026D01*
X124029763Y-72862466D01*
X124030154Y-72970617D01*
X124030154Y-73245870D01*
X124091685Y-73267320D01*
X124135387Y-73281912D01*
X124159364Y-73288706D01*
X124160070Y-73288769D01*
X124161874Y-73270069D01*
X124163500Y-73217322D01*
X124164883Y-73135557D01*
X124165958Y-73029805D01*
X124166660Y-72905094D01*
X124166923Y-72766455D01*
X124166923Y-72231806D01*
X124039923Y-72178236D01*
X124030154Y-72342120D01*
G36*
X125655746Y-72449745D02*
X125578714Y-72501567D01*
X125519184Y-72576412D01*
X125483622Y-72671654D01*
X125476429Y-72741756D01*
X125477246Y-72771009D01*
X125484086Y-72793407D01*
X125502888Y-72813474D01*
X125539592Y-72835733D01*
X125600138Y-72864709D01*
X125690466Y-72904927D01*
X125690923Y-72905129D01*
X125774067Y-72943210D01*
X125842247Y-72977025D01*
X125888495Y-73002933D01*
X125905842Y-73017295D01*
X125905846Y-73017411D01*
X125890557Y-73048685D01*
X125854804Y-73083157D01*
X125813758Y-73107990D01*
X125792963Y-73112923D01*
X125736230Y-73095862D01*
X125687373Y-73053133D01*
X125663535Y-73006155D01*
X125640603Y-72971522D01*
X125595682Y-72932081D01*
X125542877Y-72898009D01*
X125496290Y-72879480D01*
X125486548Y-72878462D01*
X125475582Y-72895215D01*
X125474921Y-72938039D01*
X125482980Y-72995781D01*
X125498173Y-73057289D01*
X125518914Y-73111409D01*
X125519962Y-73113510D01*
X125582379Y-73200660D01*
X125663274Y-73259939D01*
X125755144Y-73289034D01*
X125850487Y-73285634D01*
X125941802Y-73247428D01*
X125945862Y-73244741D01*
X126017694Y-73179642D01*
X126064927Y-73094705D01*
X126091066Y-72983021D01*
X126094574Y-72951643D01*
X126100787Y-72803536D01*
X126093339Y-72734468D01*
X125905846Y-72734468D01*
X125903410Y-72777552D01*
X125890086Y-72790126D01*
X125856868Y-72780719D01*
X125804506Y-72758483D01*
X125745976Y-72730610D01*
X125744521Y-72729872D01*
X125694911Y-72703777D01*
X125675000Y-72686363D01*
X125679910Y-72668107D01*
X125700584Y-72644120D01*
X125753181Y-72609406D01*
X125809823Y-72606856D01*
X125860631Y-72632119D01*
X125895724Y-72680847D01*
X125905846Y-72734468D01*
X126093339Y-72734468D01*
X126088008Y-72685036D01*
X126055222Y-72591055D01*
X126009579Y-72525215D01*
X125927198Y-72458681D01*
X125836454Y-72425676D01*
X125743815Y-72423573D01*
X125655746Y-72449745D01*
X125655746Y-72449745D01*
G37*
X125655746Y-72449745D02*
X125578714Y-72501567D01*
X125519184Y-72576412D01*
X125483622Y-72671654D01*
X125476429Y-72741756D01*
X125477246Y-72771009D01*
X125484086Y-72793407D01*
X125502888Y-72813474D01*
X125539592Y-72835733D01*
X125600138Y-72864709D01*
X125690466Y-72904927D01*
X125690923Y-72905129D01*
X125774067Y-72943210D01*
X125842247Y-72977025D01*
X125888495Y-73002933D01*
X125905842Y-73017295D01*
X125905846Y-73017411D01*
X125890557Y-73048685D01*
X125854804Y-73083157D01*
X125813758Y-73107990D01*
X125792963Y-73112923D01*
X125736230Y-73095862D01*
X125687373Y-73053133D01*
X125663535Y-73006155D01*
X125640603Y-72971522D01*
X125595682Y-72932081D01*
X125542877Y-72898009D01*
X125496290Y-72879480D01*
X125486548Y-72878462D01*
X125475582Y-72895215D01*
X125474921Y-72938039D01*
X125482980Y-72995781D01*
X125498173Y-73057289D01*
X125518914Y-73111409D01*
X125519962Y-73113510D01*
X125582379Y-73200660D01*
X125663274Y-73259939D01*
X125755144Y-73289034D01*
X125850487Y-73285634D01*
X125941802Y-73247428D01*
X125945862Y-73244741D01*
X126017694Y-73179642D01*
X126064927Y-73094705D01*
X126091066Y-72983021D01*
X126094574Y-72951643D01*
X126100787Y-72803536D01*
X126093339Y-72734468D01*
X125905846Y-72734468D01*
X125903410Y-72777552D01*
X125890086Y-72790126D01*
X125856868Y-72780719D01*
X125804506Y-72758483D01*
X125745976Y-72730610D01*
X125744521Y-72729872D01*
X125694911Y-72703777D01*
X125675000Y-72686363D01*
X125679910Y-72668107D01*
X125700584Y-72644120D01*
X125753181Y-72609406D01*
X125809823Y-72606856D01*
X125860631Y-72632119D01*
X125895724Y-72680847D01*
X125905846Y-72734468D01*
X126093339Y-72734468D01*
X126088008Y-72685036D01*
X126055222Y-72591055D01*
X126009579Y-72525215D01*
X125927198Y-72458681D01*
X125836454Y-72425676D01*
X125743815Y-72423573D01*
X125655746Y-72449745D01*
G36*
X127173114Y-72437256D02*
X127081536Y-72485409D01*
X127013951Y-72562905D01*
X126989943Y-72612727D01*
X126971262Y-72687533D01*
X126961699Y-72782052D01*
X126960792Y-72885210D01*
X126968079Y-72985935D01*
X126983097Y-73073153D01*
X127005385Y-73135791D01*
X127012235Y-73146579D01*
X127093368Y-73227105D01*
X127189734Y-73275336D01*
X127294299Y-73289450D01*
X127400032Y-73267629D01*
X127429457Y-73254547D01*
X127486759Y-73214231D01*
X127537050Y-73160775D01*
X127541803Y-73153995D01*
X127561122Y-73121321D01*
X127573892Y-73086394D01*
X127581436Y-73040414D01*
X127585076Y-72974584D01*
X127586135Y-72880105D01*
X127586154Y-72858923D01*
X127586106Y-72852182D01*
X127390769Y-72852182D01*
X127389632Y-72941349D01*
X127385159Y-73000520D01*
X127375754Y-73038741D01*
X127359824Y-73065053D01*
X127351692Y-73073846D01*
X127304942Y-73107261D01*
X127259553Y-73105737D01*
X127213660Y-73076752D01*
X127186288Y-73045809D01*
X127170077Y-73000643D01*
X127160974Y-72929420D01*
X127160349Y-72921114D01*
X127158796Y-72792037D01*
X127175035Y-72696172D01*
X127208848Y-72634107D01*
X127260016Y-72606432D01*
X127278280Y-72604923D01*
X127326240Y-72612513D01*
X127359047Y-72638808D01*
X127379105Y-72689095D01*
X127388822Y-72768664D01*
X127390769Y-72852182D01*
X127586106Y-72852182D01*
X127585426Y-72758249D01*
X127582371Y-72687906D01*
X127575678Y-72639163D01*
X127564040Y-72603288D01*
X127546147Y-72571548D01*
X127542192Y-72565648D01*
X127475733Y-72486104D01*
X127403315Y-72439929D01*
X127315151Y-72421599D01*
X127285213Y-72420703D01*
X127173114Y-72437256D01*
X127173114Y-72437256D01*
G37*
X127173114Y-72437256D02*
X127081536Y-72485409D01*
X127013951Y-72562905D01*
X126989943Y-72612727D01*
X126971262Y-72687533D01*
X126961699Y-72782052D01*
X126960792Y-72885210D01*
X126968079Y-72985935D01*
X126983097Y-73073153D01*
X127005385Y-73135791D01*
X127012235Y-73146579D01*
X127093368Y-73227105D01*
X127189734Y-73275336D01*
X127294299Y-73289450D01*
X127400032Y-73267629D01*
X127429457Y-73254547D01*
X127486759Y-73214231D01*
X127537050Y-73160775D01*
X127541803Y-73153995D01*
X127561122Y-73121321D01*
X127573892Y-73086394D01*
X127581436Y-73040414D01*
X127585076Y-72974584D01*
X127586135Y-72880105D01*
X127586154Y-72858923D01*
X127586106Y-72852182D01*
X127390769Y-72852182D01*
X127389632Y-72941349D01*
X127385159Y-73000520D01*
X127375754Y-73038741D01*
X127359824Y-73065053D01*
X127351692Y-73073846D01*
X127304942Y-73107261D01*
X127259553Y-73105737D01*
X127213660Y-73076752D01*
X127186288Y-73045809D01*
X127170077Y-73000643D01*
X127160974Y-72929420D01*
X127160349Y-72921114D01*
X127158796Y-72792037D01*
X127175035Y-72696172D01*
X127208848Y-72634107D01*
X127260016Y-72606432D01*
X127278280Y-72604923D01*
X127326240Y-72612513D01*
X127359047Y-72638808D01*
X127379105Y-72689095D01*
X127388822Y-72768664D01*
X127390769Y-72852182D01*
X127586106Y-72852182D01*
X127585426Y-72758249D01*
X127582371Y-72687906D01*
X127575678Y-72639163D01*
X127564040Y-72603288D01*
X127546147Y-72571548D01*
X127542192Y-72565648D01*
X127475733Y-72486104D01*
X127403315Y-72439929D01*
X127315151Y-72421599D01*
X127285213Y-72420703D01*
X127173114Y-72437256D01*
G36*
X124918336Y-72445089D02*
X124855633Y-72481358D01*
X124812039Y-72517358D01*
X124780155Y-72555075D01*
X124758190Y-72601199D01*
X124744351Y-72662421D01*
X124736847Y-72745431D01*
X124733883Y-72856919D01*
X124733539Y-72937062D01*
X124733539Y-73232065D01*
X124899615Y-73306515D01*
X124909385Y-72983402D01*
X124913421Y-72862729D01*
X124917656Y-72775141D01*
X124922903Y-72714650D01*
X124929975Y-72675268D01*
X124939689Y-72651007D01*
X124952856Y-72635880D01*
X124957081Y-72632606D01*
X125021091Y-72607034D01*
X125085792Y-72617153D01*
X125124308Y-72644000D01*
X125139975Y-72663024D01*
X125150820Y-72687988D01*
X125157712Y-72725834D01*
X125161521Y-72783502D01*
X125163117Y-72867935D01*
X125163385Y-72955928D01*
X125163437Y-73066323D01*
X125165328Y-73144463D01*
X125171655Y-73197165D01*
X125185017Y-73231242D01*
X125208015Y-73253511D01*
X125243246Y-73270787D01*
X125290303Y-73288738D01*
X125341697Y-73308278D01*
X125335579Y-72961485D01*
X125333116Y-72836468D01*
X125330233Y-72744082D01*
X125326102Y-72677881D01*
X125319893Y-72631420D01*
X125310774Y-72598256D01*
X125297917Y-72571944D01*
X125282416Y-72548729D01*
X125207629Y-72474569D01*
X125116372Y-72431684D01*
X125017117Y-72421412D01*
X124918336Y-72445089D01*
X124918336Y-72445089D01*
G37*
X124918336Y-72445089D02*
X124855633Y-72481358D01*
X124812039Y-72517358D01*
X124780155Y-72555075D01*
X124758190Y-72601199D01*
X124744351Y-72662421D01*
X124736847Y-72745431D01*
X124733883Y-72856919D01*
X124733539Y-72937062D01*
X124733539Y-73232065D01*
X124899615Y-73306515D01*
X124909385Y-72983402D01*
X124913421Y-72862729D01*
X124917656Y-72775141D01*
X124922903Y-72714650D01*
X124929975Y-72675268D01*
X124939689Y-72651007D01*
X124952856Y-72635880D01*
X124957081Y-72632606D01*
X125021091Y-72607034D01*
X125085792Y-72617153D01*
X125124308Y-72644000D01*
X125139975Y-72663024D01*
X125150820Y-72687988D01*
X125157712Y-72725834D01*
X125161521Y-72783502D01*
X125163117Y-72867935D01*
X125163385Y-72955928D01*
X125163437Y-73066323D01*
X125165328Y-73144463D01*
X125171655Y-73197165D01*
X125185017Y-73231242D01*
X125208015Y-73253511D01*
X125243246Y-73270787D01*
X125290303Y-73288738D01*
X125341697Y-73308278D01*
X125335579Y-72961485D01*
X125333116Y-72836468D01*
X125330233Y-72744082D01*
X125326102Y-72677881D01*
X125319893Y-72631420D01*
X125310774Y-72598256D01*
X125297917Y-72571944D01*
X125282416Y-72548729D01*
X125207629Y-72474569D01*
X125116372Y-72431684D01*
X125017117Y-72421412D01*
X124918336Y-72445089D01*
G36*
X126421114Y-72434505D02*
X126346461Y-72471727D01*
X126280569Y-72540261D01*
X126262423Y-72565648D01*
X126242655Y-72598866D01*
X126229828Y-72634945D01*
X126222490Y-72683098D01*
X126219187Y-72752536D01*
X126218462Y-72844206D01*
X126221737Y-72969830D01*
X126233123Y-73064154D01*
X126254959Y-73134523D01*
X126289581Y-73188286D01*
X126339330Y-73232788D01*
X126342986Y-73235423D01*
X126392015Y-73262377D01*
X126451055Y-73275712D01*
X126526141Y-73279000D01*
X126648205Y-73279000D01*
X126648256Y-73397497D01*
X126649392Y-73463492D01*
X126656314Y-73502202D01*
X126674402Y-73525419D01*
X126709038Y-73544933D01*
X126717355Y-73548920D01*
X126756280Y-73567603D01*
X126786417Y-73579403D01*
X126808826Y-73580422D01*
X126824567Y-73566761D01*
X126834698Y-73534522D01*
X126840277Y-73479804D01*
X126842365Y-73398711D01*
X126842019Y-73287344D01*
X126840300Y-73141802D01*
X126839763Y-73098269D01*
X126837828Y-72948205D01*
X126836096Y-72850042D01*
X126648308Y-72850042D01*
X126647252Y-72933364D01*
X126642562Y-72987880D01*
X126631949Y-73023837D01*
X126613128Y-73051482D01*
X126600350Y-73064965D01*
X126548110Y-73104417D01*
X126501858Y-73107628D01*
X126454133Y-73075049D01*
X126452923Y-73073846D01*
X126433506Y-73048668D01*
X126421693Y-73014447D01*
X126415735Y-72961748D01*
X126413880Y-72881131D01*
X126413846Y-72863271D01*
X126418330Y-72752175D01*
X126432926Y-72675161D01*
X126459350Y-72628147D01*
X126499317Y-72607050D01*
X126522416Y-72604923D01*
X126577238Y-72614900D01*
X126614842Y-72647752D01*
X126637477Y-72707857D01*
X126647394Y-72799598D01*
X126648308Y-72850042D01*
X126836096Y-72850042D01*
X126835778Y-72832060D01*
X126833127Y-72744679D01*
X126829394Y-72680905D01*
X126824093Y-72635582D01*
X126816742Y-72603555D01*
X126806857Y-72579668D01*
X126793954Y-72558764D01*
X126788421Y-72550898D01*
X126715031Y-72476595D01*
X126622240Y-72434467D01*
X126514904Y-72422722D01*
X126421114Y-72434505D01*
X126421114Y-72434505D01*
G37*
X126421114Y-72434505D02*
X126346461Y-72471727D01*
X126280569Y-72540261D01*
X126262423Y-72565648D01*
X126242655Y-72598866D01*
X126229828Y-72634945D01*
X126222490Y-72683098D01*
X126219187Y-72752536D01*
X126218462Y-72844206D01*
X126221737Y-72969830D01*
X126233123Y-73064154D01*
X126254959Y-73134523D01*
X126289581Y-73188286D01*
X126339330Y-73232788D01*
X126342986Y-73235423D01*
X126392015Y-73262377D01*
X126451055Y-73275712D01*
X126526141Y-73279000D01*
X126648205Y-73279000D01*
X126648256Y-73397497D01*
X126649392Y-73463492D01*
X126656314Y-73502202D01*
X126674402Y-73525419D01*
X126709038Y-73544933D01*
X126717355Y-73548920D01*
X126756280Y-73567603D01*
X126786417Y-73579403D01*
X126808826Y-73580422D01*
X126824567Y-73566761D01*
X126834698Y-73534522D01*
X126840277Y-73479804D01*
X126842365Y-73398711D01*
X126842019Y-73287344D01*
X126840300Y-73141802D01*
X126839763Y-73098269D01*
X126837828Y-72948205D01*
X126836096Y-72850042D01*
X126648308Y-72850042D01*
X126647252Y-72933364D01*
X126642562Y-72987880D01*
X126631949Y-73023837D01*
X126613128Y-73051482D01*
X126600350Y-73064965D01*
X126548110Y-73104417D01*
X126501858Y-73107628D01*
X126454133Y-73075049D01*
X126452923Y-73073846D01*
X126433506Y-73048668D01*
X126421693Y-73014447D01*
X126415735Y-72961748D01*
X126413880Y-72881131D01*
X126413846Y-72863271D01*
X126418330Y-72752175D01*
X126432926Y-72675161D01*
X126459350Y-72628147D01*
X126499317Y-72607050D01*
X126522416Y-72604923D01*
X126577238Y-72614900D01*
X126614842Y-72647752D01*
X126637477Y-72707857D01*
X126647394Y-72799598D01*
X126648308Y-72850042D01*
X126836096Y-72850042D01*
X126835778Y-72832060D01*
X126833127Y-72744679D01*
X126829394Y-72680905D01*
X126824093Y-72635582D01*
X126816742Y-72603555D01*
X126806857Y-72579668D01*
X126793954Y-72558764D01*
X126788421Y-72550898D01*
X126715031Y-72476595D01*
X126622240Y-72434467D01*
X126514904Y-72422722D01*
X126421114Y-72434505D01*
G04 #@! TD*
M02*
